<svg width="40" height="40" viewBox="0 0 40 40" fill="none" xmlns="http://www.w3.org/2000/svg">
<path d="M13.7541 12.329C13.7072 12.2822 13.6437 12.2558 13.5773 12.2558C13.511 12.2558 13.4475 12.2822 13.4006 12.329L12.3291 13.4005C12.2822 13.4474 12.2559 13.511 12.2559 13.5773C12.2559 13.6436 12.2822 13.7072 12.3291 13.7541L18.5756 20.0006L12.3232 26.2529C12.2763 26.2998 12.25 26.3634 12.25 26.4297C12.25 26.496 12.2763 26.5596 12.3232 26.6065L13.3935 27.6768C13.4912 27.7744 13.6495 27.7744 13.7471 27.6768L19.9994 21.4244L26.2454 27.6704C26.343 27.768 26.5013 27.768 26.599 27.6704L27.6704 26.5989C27.7681 26.5013 27.7681 26.343 27.6704 26.2454L21.4245 19.9994L27.6768 13.7471C27.7744 13.6495 27.7744 13.4912 27.6768 13.3935L26.6065 12.3232C26.5596 12.2763 26.496 12.25 26.4297 12.25C26.3634 12.25 26.2998 12.2763 26.2529 12.3232L20.0006 18.5755L13.7541 12.329Z" fill="white" stroke="white" stroke-width="0.5" stroke-linejoin="round"/>
</svg>
