<svg width="73" height="72" viewBox="0 0 73 72" fill="none" xmlns="http://www.w3.org/2000/svg">
<g clip-path="url(#clip0_478_4464)">
<path d="M63.2505 25.2904C64.3204 24.6421 65.6908 25.395 65.7174 26.6456L66.2906 53.6355C66.3172 54.8861 64.9799 55.6965 63.8835 55.0942L40.223 42.0957C39.1266 41.4934 39.0934 39.9301 40.1632 39.2818L63.2505 25.2904Z" fill="#180C98" stroke="#4F4F4F" stroke-width="0.75"/>
<path d="M68.693 37.3169C69.8992 36.9854 71.0119 38.084 70.6958 39.2944L65.0431 60.9419C64.727 62.1523 63.2193 62.5666 62.3291 61.6877L46.4082 45.9685C45.518 45.0897 45.9131 43.5767 47.1193 43.2453L68.693 37.3169Z" fill="#45E2C3" stroke="#4F4F4F" stroke-width="0.75"/>
<path d="M3.85693 36.0002L4.08263 12.0767L22.8152 24.2641L3.85693 36.0002Z" fill="url(#paint0_linear_478_4464)"/>
<path d="M3.85693 36.0002L4.08263 12.0767L22.8152 24.2641L3.85693 36.0002Z" fill="#180C98"/>
<path d="M3.85693 36.0002L4.08263 12.0767L22.8152 24.2641L3.85693 36.0002Z" stroke="#4F4F4F" stroke-width="0.75"/>
<path d="M2.28956 12.6019C4.70564 19.4033 13.7742 32.2708 30.7196 29.3301C33.2241 29.0187 41.5338 27.4435 46.6433 38.0237C51.7529 48.6039 55.3861 56.6993 65.9679 56.968" stroke="#4F4F4F" stroke-width="1.5"/>
<path d="M6.38184 30.8135L6.60753 6.88989L25.3401 19.0774L6.38184 30.8135Z" fill="url(#paint1_linear_478_4464)"/>
<path d="M6.38184 30.8135L6.60753 6.88989L25.3401 19.0774L6.38184 30.8135Z" fill="url(#paint2_linear_478_4464)"/>
<path d="M6.38184 30.8135L6.60753 6.88989L25.3401 19.0774L6.38184 30.8135Z" stroke="#4F4F4F" stroke-width="0.75"/>
<path d="M11.3982 13.4346C13.2449 12.5375 14.7377 11.0447 15.6348 9.19805C16.5319 11.0447 18.0247 12.5375 19.8714 13.4346C18.0247 14.3317 16.5319 15.8245 15.6348 17.6712C14.7377 15.8245 13.2449 14.3317 11.3982 13.4346Z" fill="#2215B0" stroke="#4F4F4F" stroke-width="0.75"/>
<path d="M20.8177 20.1177C13.9507 27.6101 15.9218 33.5786 15.9218 34.023C13.7255 36.2335 14.6172 38.0226 14.6172 38.2088C14.3652 38.5714 14.2322 40.5981 14.1972 41.5661L13.5679 42.1467C13.3447 53.2107 16.1047 56.2902 17.5127 56.4469C17.499 56.4878 17.5454 56.7248 17.84 57.3458C18.1345 57.9668 18.8249 58.1784 19.1332 58.2066C19.3119 58.4396 19.9611 58.8079 21.1287 58.4163C22.5881 57.9269 23.7543 58.8708 24.2444 52.9977C24.7345 47.1246 23.1875 42.1105 22.706 40.0025C22.2246 37.8945 19.8544 37.6911 19.6692 38.0226C19.4841 38.3542 19.4656 38.2088 18.7249 38.2088C18.1323 38.2088 17.7126 38.9115 17.5768 39.2628H16.8732L16.7527 38.0226C18.349 36.8404 18.118 35.4176 17.8029 34.8539C18.048 34.6743 19.2382 33.2458 19.3433 32.267C19.4273 31.4839 20.8486 28.5846 21.5488 27.2329C23.1591 25.0654 26.6249 18.598 36.6022 18.598C45.7032 18.598 51.1422 25.6481 52.7409 29.6101C53.8051 33.078 54.9839 34.6707 55.4403 35.0336C54.5524 36.0008 55.6533 37.4293 56.3147 38.0226L56.0793 39.5004H55.4403C55.4403 39.0705 54.8349 38.6496 54.5322 38.4928C53.767 38.4055 53.2735 38.2887 52.2645 38.4928C51.3046 38.687 51.3484 38.8399 50.8327 39.2317C47.9538 47.7488 48.7811 54.983 49.5547 57.5355C49.8125 57.9833 50.7991 58.9124 52.6824 59.0468C54.5658 59.1811 55.3057 57.7146 55.4403 56.9645L56.5501 56.4607C60.5052 47.2988 59.7227 42.9932 58.8371 41.9857L58.5008 38.0226C59.0725 34.9328 57.2228 34.6306 57.4582 34.3955C57.6465 34.2074 57.3797 33.6678 57.2228 33.4215C57.438 32.9647 57.5857 31.7274 57.6327 31.1658C54.4789 15.2667 42.5421 12.5194 36.968 13.1332C33.8736 12.9639 26.3114 14.1237 20.8177 20.1177Z" fill="#FBD474"/>
<path d="M20.8177 20.1177C13.9507 27.6101 15.9218 33.5786 15.9218 34.023C13.7255 36.2335 14.6172 38.0226 14.6172 38.2088C14.3652 38.5714 14.2322 40.5981 14.1972 41.5661L13.5679 42.1467C13.3447 53.2107 16.1047 56.2902 17.5127 56.4469C17.499 56.4878 17.5454 56.7248 17.84 57.3458C18.1345 57.9668 18.8249 58.1784 19.1332 58.2066C19.3119 58.4396 19.9611 58.8079 21.1287 58.4163C22.5881 57.9269 23.7543 58.8708 24.2444 52.9977C24.7345 47.1246 23.1875 42.1105 22.706 40.0025C22.2246 37.8945 19.8544 37.6911 19.6692 38.0226C19.4841 38.3542 19.4656 38.2088 18.7249 38.2088C18.1323 38.2088 17.7126 38.9115 17.5768 39.2628H16.8732L16.7527 38.0226C18.349 36.8404 18.118 35.4176 17.8029 34.8539C18.048 34.6743 19.2382 33.2458 19.3433 32.267C19.4273 31.4839 20.8486 28.5846 21.5488 27.2329C23.1591 25.0654 26.6249 18.598 36.6022 18.598C45.7032 18.598 51.1422 25.6481 52.7409 29.6101C53.8051 33.078 54.9839 34.6707 55.4403 35.0336C54.5524 36.0008 55.6533 37.4293 56.3147 38.0226L56.0793 39.5004H55.4403C55.4403 39.0705 54.8349 38.6496 54.5322 38.4928C53.767 38.4055 53.2735 38.2887 52.2645 38.4928C51.3046 38.687 51.3484 38.8399 50.8327 39.2317C47.9538 47.7488 48.7811 54.983 49.5547 57.5355C49.8125 57.9833 50.7991 58.9124 52.6824 59.0468C54.5658 59.1811 55.3057 57.7146 55.4403 56.9645L56.5501 56.4607C60.5052 47.2988 59.7227 42.9932 58.8371 41.9857L58.5008 38.0226C59.0725 34.9328 57.2228 34.6306 57.4582 34.3955C57.6465 34.2074 57.3797 33.6678 57.2228 33.4215C57.438 32.9647 57.5857 31.7274 57.6327 31.1658C54.4789 15.2667 42.5421 12.5194 36.968 13.1332C33.8736 12.9639 26.3114 14.1237 20.8177 20.1177Z" fill="url(#paint3_linear_478_4464)"/>
<path d="M20.8177 20.1177C13.9507 27.6101 15.9218 33.5786 15.9218 34.023C13.7255 36.2335 14.6172 38.0226 14.6172 38.2088C14.3652 38.5714 14.2322 40.5981 14.1972 41.5661L13.5679 42.1467C13.3447 53.2107 16.1047 56.2902 17.5127 56.4469C17.499 56.4878 17.5454 56.7248 17.84 57.3458C18.1345 57.9668 18.8249 58.1784 19.1332 58.2066C19.3119 58.4396 19.9611 58.8079 21.1287 58.4163C22.5881 57.9269 23.7543 58.8708 24.2444 52.9977C24.7345 47.1246 23.1875 42.1105 22.706 40.0025C22.2246 37.8945 19.8544 37.6911 19.6692 38.0226C19.4841 38.3542 19.4656 38.2088 18.7249 38.2088C18.1323 38.2088 17.7126 38.9115 17.5768 39.2628H16.8732L16.7527 38.0226C18.349 36.8404 18.118 35.4176 17.8029 34.8539C18.048 34.6743 19.2382 33.2458 19.3433 32.267C19.4273 31.4839 20.8486 28.5846 21.5488 27.2329C23.1591 25.0654 26.6249 18.598 36.6022 18.598C45.7032 18.598 51.1422 25.6481 52.7409 29.6101C53.8051 33.078 54.9839 34.6707 55.4403 35.0336C54.5524 36.0008 55.6533 37.4293 56.3147 38.0226L56.0793 39.5004H55.4403C55.4403 39.0705 54.8349 38.6496 54.5322 38.4928C53.767 38.4055 53.2735 38.2887 52.2645 38.4928C51.3046 38.687 51.3484 38.8399 50.8327 39.2317C47.9538 47.7488 48.7811 54.983 49.5547 57.5355C49.8125 57.9833 50.7991 58.9124 52.6824 59.0468C54.5658 59.1811 55.3057 57.7146 55.4403 56.9645L56.5501 56.4607C60.5052 47.2988 59.7227 42.9932 58.8371 41.9857L58.5008 38.0226C59.0725 34.9328 57.2228 34.6306 57.4582 34.3955C57.6465 34.2074 57.3797 33.6678 57.2228 33.4215C57.438 32.9647 57.5857 31.7274 57.6327 31.1658C54.4789 15.2667 42.5421 12.5194 36.968 13.1332C33.8736 12.9639 26.3114 14.1237 20.8177 20.1177Z" stroke="#4F4F4F" stroke-width="0.75" stroke-linecap="round"/>
<path d="M22.4309 60.8317C17.9887 52.2498 18.7898 40.3394 19.7484 35.4571C19.9109 34.6296 21.8396 35.1118 22.338 35.4568C26.4198 37.8439 26.2431 48.9219 25.7385 55.909C25.3688 61.0272 23.3794 61.3234 22.4309 60.8317Z" fill="#A58023" stroke="#4F4F4F" stroke-width="0.75"/>
<path d="M51.7939 60.8542C55.7893 52.3829 55.2489 40.3744 54.3868 35.555C53.607 34.4979 51.6624 35.2145 51.2141 35.555C46.746 39.509 48.1046 49.4738 48.5202 55.7891C48.8527 60.8414 50.9408 61.3396 51.7939 60.8542Z" fill="#A58023" stroke="#4F4F4F" stroke-width="0.75"/>
</g>
<defs>
<linearGradient id="paint0_linear_478_4464" x1="13.3361" y1="12.0767" x2="13.3361" y2="36.0002" gradientUnits="userSpaceOnUse">
<stop offset="0.116473" stop-color="#FFDA8B"/>
<stop offset="0.614448" stop-color="#FFCB5B"/>
</linearGradient>
<linearGradient id="paint1_linear_478_4464" x1="15.861" y1="6.88989" x2="15.861" y2="30.8135" gradientUnits="userSpaceOnUse">
<stop offset="0.116473" stop-color="#FFDA8B"/>
<stop offset="0.614448" stop-color="#FFCB5B"/>
</linearGradient>
<linearGradient id="paint2_linear_478_4464" x1="15.861" y1="6.88989" x2="15.861" y2="30.8135" gradientUnits="userSpaceOnUse">
<stop stop-color="#61DFC6"/>
<stop offset="1" stop-color="#61DFC6"/>
</linearGradient>
<linearGradient id="paint3_linear_478_4464" x1="26.1733" y1="59.0555" x2="26.1733" y2="5.68009" gradientUnits="userSpaceOnUse">
<stop stop-color="#F9B409"/>
<stop offset="1" stop-color="#FDECC2"/>
</linearGradient>
<clipPath id="clip0_478_4464">
<rect width="72" height="72" fill="white" transform="translate(0.5)"/>
</clipPath>
</defs>
</svg>
