<svg width="73" height="72" viewBox="0 0 73 72" fill="none" xmlns="http://www.w3.org/2000/svg">
<path d="M6.21943 16.1196C7.28896 20.5484 9.98439 23.4846 14.3057 24.9282C18.6272 26.3717 21.3227 29.3079 22.3921 33.7368C23.4615 38.1656 26.1571 41.1018 30.4783 42.5454C34.7999 43.989 37.4953 46.9251 38.5647 51.3541" stroke="#4F4F4F" stroke-width="1.5"/>
<path d="M30.0752 70.4999V56.0581H41.905V43.221H55.6532V30.3838H71.0001V70.4999H30.0752Z" fill="#FDECC2" stroke="#4F4F4F" stroke-width="0.75"/>
<mask id="path-3-outside-1_478_4424" maskUnits="userSpaceOnUse" x="13.5005" y="8.00024" width="33" height="41" fill="black">
<rect fill="white" x="13.5005" y="8.00024" width="33" height="41"/>
<path fill-rule="evenodd" clip-rule="evenodd" d="M22.3051 9.01962C19.5542 8.77867 17.1293 10.8134 16.8889 13.5643L14.5198 40.675C14.2794 43.4259 16.3145 45.8513 19.0654 46.0923L37.59 47.7148C40.3409 47.9558 42.7658 45.921 43.0062 43.1701L45.3753 16.0595C45.6157 13.3085 43.5806 10.8831 40.8297 10.6422L22.3051 9.01962ZM23.1924 13.7343L22.3616 11.5972L21.1726 13.5574L18.8857 13.6881L20.3804 15.4259L19.7979 17.6438L21.9106 16.7576L23.8375 17.9976L23.6485 15.7121L25.4219 14.2606L23.1924 13.7343Z"/>
</mask>
<path fill-rule="evenodd" clip-rule="evenodd" d="M22.3051 9.01962C19.5542 8.77867 17.1293 10.8134 16.8889 13.5643L14.5198 40.675C14.2794 43.4259 16.3145 45.8513 19.0654 46.0923L37.59 47.7148C40.3409 47.9558 42.7658 45.921 43.0062 43.1701L45.3753 16.0595C45.6157 13.3085 43.5806 10.8831 40.8297 10.6422L22.3051 9.01962ZM23.1924 13.7343L22.3616 11.5972L21.1726 13.5574L18.8857 13.6881L20.3804 15.4259L19.7979 17.6438L21.9106 16.7576L23.8375 17.9976L23.6485 15.7121L25.4219 14.2606L23.1924 13.7343Z" fill="#D9D9D9"/>
<path fill-rule="evenodd" clip-rule="evenodd" d="M22.3051 9.01962C19.5542 8.77867 17.1293 10.8134 16.8889 13.5643L14.5198 40.675C14.2794 43.4259 16.3145 45.8513 19.0654 46.0923L37.59 47.7148C40.3409 47.9558 42.7658 45.921 43.0062 43.1701L45.3753 16.0595C45.6157 13.3085 43.5806 10.8831 40.8297 10.6422L22.3051 9.01962ZM23.1924 13.7343L22.3616 11.5972L21.1726 13.5574L18.8857 13.6881L20.3804 15.4259L19.7979 17.6438L21.9106 16.7576L23.8375 17.9976L23.6485 15.7121L25.4219 14.2606L23.1924 13.7343Z" fill="url(#paint0_linear_478_4424)"/>
<path d="M16.8889 13.5643L16.1418 13.4991L16.8889 13.5643ZM22.3051 9.01962L22.3706 8.27248L22.3051 9.01962ZM14.5198 40.675L15.2669 40.7403L14.5198 40.675ZM19.0654 46.0923L19.1309 45.3451H19.1309L19.0654 46.0923ZM37.59 47.7148L37.5245 48.462L37.59 47.7148ZM43.0062 43.1701L43.7533 43.2354L43.0062 43.1701ZM45.3753 16.0595L44.6282 15.9942V15.9942L45.3753 16.0595ZM40.8297 10.6422L40.7642 11.3893L40.8297 10.6422ZM22.3616 11.5972L23.0606 11.3254L22.5093 9.90745L21.7203 11.2083L22.3616 11.5972ZM23.1924 13.7343L22.4934 14.0061L22.6363 14.3736L23.0201 14.4642L23.1924 13.7343ZM21.1726 13.5574L21.2154 14.3062L21.6093 14.2837L21.8139 13.9463L21.1726 13.5574ZM18.8857 13.6881L18.8429 12.9393L17.3269 13.026L18.3171 14.1772L18.8857 13.6881ZM20.3804 15.4259L21.1058 15.6164L21.2059 15.2354L20.949 14.9368L20.3804 15.4259ZM19.7979 17.6438L19.0725 17.4532L18.6864 18.9233L20.088 18.3354L19.7979 17.6438ZM21.9106 16.7576L22.3165 16.1269L21.9845 15.9133L21.6205 16.066L21.9106 16.7576ZM23.8375 17.9976L23.4316 18.6283L24.7103 19.4511L24.585 17.9358L23.8375 17.9976ZM23.6485 15.7121L23.1735 15.1318L22.8686 15.3813L22.9011 15.7739L23.6485 15.7121ZM25.4219 14.2606L25.897 14.841L27.0717 13.8795L25.5942 13.5307L25.4219 14.2606ZM17.6361 13.6296C17.8404 11.2914 19.9015 9.56195 22.2397 9.76676L22.3706 8.27248C19.207 7.99538 16.4182 10.3354 16.1418 13.4991L17.6361 13.6296ZM15.2669 40.7403L17.6361 13.6296L16.1418 13.4991L13.7726 40.6097L15.2669 40.7403ZM19.1309 45.3451C16.7925 45.1403 15.0626 43.0786 15.2669 40.7403L13.7726 40.6097C13.4962 43.7732 15.8365 46.5623 19 46.8394L19.1309 45.3451ZM37.6554 46.9677L19.1309 45.3451L19 46.8394L37.5245 48.462L37.6554 46.9677ZM42.259 43.1048C42.0547 45.443 39.9936 47.1725 37.6554 46.9677L37.5245 48.462C40.6881 48.7391 43.4769 46.399 43.7533 43.2354L42.259 43.1048ZM44.6282 15.9942L42.259 43.1048L43.7533 43.2354L46.1225 16.1248L44.6282 15.9942ZM40.7642 11.3893C43.1025 11.5941 44.8325 13.6558 44.6282 15.9942L46.1225 16.1248C46.3989 12.9612 44.0586 10.1721 40.8951 9.89503L40.7642 11.3893ZM22.2397 9.76676L40.7642 11.3893L40.8951 9.89503L22.3706 8.27248L22.2397 9.76676ZM21.6625 11.869L22.4934 14.0061L23.8915 13.4625L23.0606 11.3254L21.6625 11.869ZM21.8139 13.9463L23.0028 11.9862L21.7203 11.2083L20.5314 13.1684L21.8139 13.9463ZM18.9285 14.4369L21.2154 14.3062L21.1298 12.8086L18.8429 12.9393L18.9285 14.4369ZM20.949 14.9368L19.4543 13.199L18.3171 14.1772L19.8118 15.915L20.949 14.9368ZM20.5233 17.8343L21.1058 15.6164L19.655 15.2354L19.0725 17.4532L20.5233 17.8343ZM21.6205 16.066L19.5078 16.9521L20.088 18.3354L22.2007 17.4492L21.6205 16.066ZM24.2434 17.3669L22.3165 16.1269L21.5047 17.3883L23.4316 18.6283L24.2434 17.3669ZM22.9011 15.7739L23.0901 18.0594L24.585 17.9358L24.396 15.6503L22.9011 15.7739ZM24.9469 13.6802L23.1735 15.1318L24.1236 16.2925L25.897 14.841L24.9469 13.6802ZM23.0201 14.4642L25.2496 14.9906L25.5942 13.5307L23.3647 13.0044L23.0201 14.4642Z" fill="#4F4F4F" mask="url(#path-3-outside-1_478_4424)"/>
<mask id="path-5-outside-2_478_4424" maskUnits="userSpaceOnUse" x="18.0112" y="19.0281" width="42" height="45" fill="black">
<rect fill="white" x="18.0112" y="19.0281" width="42" height="45"/>
<path fill-rule="evenodd" clip-rule="evenodd" d="M40.004 20.7056C37.6177 19.316 34.5711 20.1323 33.1992 22.5289L19.6752 46.1538C18.3033 48.5504 19.1257 51.6196 21.512 53.0092L37.5068 62.3229C39.8932 63.7125 42.9398 62.8962 44.3117 60.4996L57.8356 36.8746C59.2075 34.4781 58.3852 31.4089 55.9988 30.0193L40.004 20.7056ZM39.067 25.1019L39.2154 22.8082L37.3202 24.0846L35.2033 23.2335L35.8212 25.4461L34.3646 27.2138L36.6416 27.3047L37.8582 29.2483L38.6476 27.0921L40.8562 26.5255L39.067 25.1019Z"/>
</mask>
<path fill-rule="evenodd" clip-rule="evenodd" d="M40.004 20.7056C37.6177 19.316 34.5711 20.1323 33.1992 22.5289L19.6752 46.1538C18.3033 48.5504 19.1257 51.6196 21.512 53.0092L37.5068 62.3229C39.8932 63.7125 42.9398 62.8962 44.3117 60.4996L57.8356 36.8746C59.2075 34.4781 58.3852 31.4089 55.9988 30.0193L40.004 20.7056ZM39.067 25.1019L39.2154 22.8082L37.3202 24.0846L35.2033 23.2335L35.8212 25.4461L34.3646 27.2138L36.6416 27.3047L37.8582 29.2483L38.6476 27.0921L40.8562 26.5255L39.067 25.1019Z" fill="#D9D9D9"/>
<path fill-rule="evenodd" clip-rule="evenodd" d="M40.004 20.7056C37.6177 19.316 34.5711 20.1323 33.1992 22.5289L19.6752 46.1538C18.3033 48.5504 19.1257 51.6196 21.512 53.0092L37.5068 62.3229C39.8932 63.7125 42.9398 62.8962 44.3117 60.4996L57.8356 36.8746C59.2075 34.4781 58.3852 31.4089 55.9988 30.0193L40.004 20.7056ZM39.067 25.1019L39.2154 22.8082L37.3202 24.0846L35.2033 23.2335L35.8212 25.4461L34.3646 27.2138L36.6416 27.3047L37.8582 29.2483L38.6476 27.0921L40.8562 26.5255L39.067 25.1019Z" fill="url(#paint1_linear_478_4424)"/>
<path fill-rule="evenodd" clip-rule="evenodd" d="M40.004 20.7056C37.6177 19.316 34.5711 20.1323 33.1992 22.5289L19.6752 46.1538C18.3033 48.5504 19.1257 51.6196 21.512 53.0092L37.5068 62.3229C39.8932 63.7125 42.9398 62.8962 44.3117 60.4996L57.8356 36.8746C59.2075 34.4781 58.3852 31.4089 55.9988 30.0193L40.004 20.7056ZM39.067 25.1019L39.2154 22.8082L37.3202 24.0846L35.2033 23.2335L35.8212 25.4461L34.3646 27.2138L36.6416 27.3047L37.8582 29.2483L38.6476 27.0921L40.8562 26.5255L39.067 25.1019Z" fill="url(#paint2_linear_478_4424)"/>
<path d="M33.1992 22.5289L32.5483 22.1563L33.1992 22.5289ZM40.004 20.7056L40.3814 20.0574V20.0574L40.004 20.7056ZM19.6752 46.1538L19.0243 45.7812H19.0243L19.6752 46.1538ZM21.512 53.0092L21.8894 52.361H21.8894L21.512 53.0092ZM37.5068 62.3229L37.1294 62.9711L37.5068 62.3229ZM44.3117 60.4996L43.6608 60.127H43.6608L44.3117 60.4996ZM57.8356 36.8746L57.1847 36.502L57.8356 36.8746ZM55.9988 30.0193L55.6214 30.6674L55.9988 30.0193ZM39.2154 22.8082L39.9638 22.8566L40.0623 21.3335L38.7964 22.1861L39.2154 22.8082ZM39.067 25.1019L38.3186 25.0535L38.2933 25.4447L38.6 25.6888L39.067 25.1019ZM37.3202 24.0846L37.0404 24.7805L37.4094 24.9288L37.7392 24.7067L37.3202 24.0846ZM35.2033 23.2335L35.4831 22.5377L34.0719 21.9703L34.481 23.4353L35.2033 23.2335ZM35.8212 25.4461L36.4 25.923L36.6488 25.6211L36.5436 25.2443L35.8212 25.4461ZM34.3646 27.2138L33.7858 26.7368L32.8249 27.9029L34.3347 27.9632L34.3646 27.2138ZM36.6416 27.3047L37.2774 26.9068L37.0672 26.5711L36.6716 26.5553L36.6416 27.3047ZM37.8582 29.2483L37.2225 29.6463L38.0356 30.9453L38.5625 29.5062L37.8582 29.2483ZM38.6476 27.0921L38.4613 26.3656L38.079 26.4636L37.9434 26.8342L38.6476 27.0921ZM40.8562 26.5255L41.0425 27.252L42.503 26.8774L41.3232 25.9387L40.8562 26.5255ZM33.8501 22.9015C35.0151 20.8663 37.6001 20.1737 39.6266 21.3537L40.3814 20.0574C37.6353 18.4584 34.127 19.3984 32.5483 22.1563L33.8501 22.9015ZM20.3261 46.5264L33.8501 22.9015L32.5483 22.1563L19.0243 45.7812L20.3261 46.5264ZM21.8894 52.361C19.8592 51.1788 19.1589 48.5654 20.3261 46.5264L19.0243 45.7812C17.4477 48.5354 18.3922 52.0604 21.1346 53.6573L21.8894 52.361ZM37.8842 61.6748L21.8894 52.361L21.1346 53.6573L37.1294 62.9711L37.8842 61.6748ZM43.6608 60.127C42.4957 62.1622 39.9107 62.8548 37.8842 61.6748L37.1294 62.9711C39.8756 64.5701 43.3838 63.6301 44.9626 60.8722L43.6608 60.127ZM57.1847 36.502L43.6608 60.127L44.9626 60.8722L58.4865 37.2473L57.1847 36.502ZM55.6214 30.6674C57.6517 31.8497 58.3519 34.4631 57.1847 36.502L58.4865 37.2473C60.0631 34.4931 59.1186 30.9681 56.3762 29.3712L55.6214 30.6674ZM39.6266 21.3537L55.6214 30.6674L56.3762 29.3712L40.3814 20.0574L39.6266 21.3537ZM38.4669 22.7598L38.3186 25.0535L39.8155 25.1503L39.9638 22.8566L38.4669 22.7598ZM37.7392 24.7067L39.6343 23.4302L38.7964 22.1861L36.9012 23.4626L37.7392 24.7067ZM34.9236 23.9294L37.0404 24.7805L37.6 23.3888L35.4831 22.5377L34.9236 23.9294ZM36.5436 25.2443L35.9257 23.0318L34.481 23.4353L35.0989 25.6478L36.5436 25.2443ZM34.9434 27.6907L36.4 25.923L35.2424 24.9691L33.7858 26.7368L34.9434 27.6907ZM36.6716 26.5553L34.3945 26.4644L34.3347 27.9632L36.6117 28.0541L36.6716 26.5553ZM38.494 28.8504L37.2774 26.9068L36.0059 27.7027L37.2225 29.6463L38.494 28.8504ZM37.9434 26.8342L37.1539 28.9905L38.5625 29.5062L39.3519 27.3499L37.9434 26.8342ZM40.6698 25.7991L38.4613 26.3656L38.834 27.8185L41.0425 27.252L40.6698 25.7991ZM38.6 25.6888L40.3892 27.1124L41.3232 25.9387L39.534 24.515L38.6 25.6888Z" fill="#4F4F4F" mask="url(#path-5-outside-2_478_4424)"/>
<defs>
<linearGradient id="paint0_linear_478_4424" x1="21.9634" y1="46.0111" x2="25.7388" y2="2.94861" gradientUnits="userSpaceOnUse">
<stop stop-color="#F9B409"/>
<stop offset="1" stop-color="#FDECC2"/>
</linearGradient>
<linearGradient id="paint1_linear_478_4424" x1="47.7181" y1="25.8386" x2="29.4122" y2="57.2383" gradientUnits="userSpaceOnUse">
<stop stop-color="#B76AF3"/>
<stop offset="1" stop-color="#463ACA"/>
</linearGradient>
<linearGradient id="paint2_linear_478_4424" x1="38.7554" y1="20.3024" x2="38.7554" y2="63.0005" gradientUnits="userSpaceOnUse">
<stop stop-color="#3879FF"/>
<stop offset="1" stop-color="#2215B0"/>
</linearGradient>
</defs>
</svg>
