<svg width="72" height="72" viewBox="0 0 72 72" fill="none" xmlns="http://www.w3.org/2000/svg">
<g clip-path="url(#clip0_478_4374)">
<mask id="path-1-inside-1_478_4374" fill="white">
<path fill-rule="evenodd" clip-rule="evenodd" d="M18.6714 18.8192C18.6714 18.3668 18.3157 18 17.8769 18H0.794538C0.355731 18 4.57253e-06 18.3667 4.57253e-06 18.8192L1.41796e-06 55.2721C4.72793e-07 55.2726 0 55.2731 0 55.2737V71.6575C0 71.9403 0.138956 72.1897 0.350303 72.337C0.477111 72.4253 0.62998 72.4769 0.794533 72.4769L53.6308 72.4769C54.0696 72.4769 54.4253 72.1101 54.4253 71.6575V55.2737C54.4253 54.8212 54.0696 54.4545 53.6308 54.4545H37.3429V37.6608C37.3429 37.2084 36.9872 36.8416 36.5484 36.8416H18.6714V18.8192Z"/>
</mask>
<path fill-rule="evenodd" clip-rule="evenodd" d="M18.6714 18.8192C18.6714 18.3668 18.3157 18 17.8769 18H0.794538C0.355731 18 4.57253e-06 18.3667 4.57253e-06 18.8192L1.41796e-06 55.2721C4.72793e-07 55.2726 0 55.2731 0 55.2737V71.6575C0 71.9403 0.138956 72.1897 0.350303 72.337C0.477111 72.4253 0.62998 72.4769 0.794533 72.4769L53.6308 72.4769C54.0696 72.4769 54.4253 72.1101 54.4253 71.6575V55.2737C54.4253 54.8212 54.0696 54.4545 53.6308 54.4545H37.3429V37.6608C37.3429 37.2084 36.9872 36.8416 36.5484 36.8416H18.6714V18.8192Z" fill="#F5CD69"/>
<path d="M4.57253e-06 18.8192L0.500005 18.8192V18.8192H4.57253e-06ZM1.41796e-06 55.2721L0.500001 55.273V55.2721H1.41796e-06ZM0.350303 72.337L0.636135 71.9267L0.636132 71.9267L0.350303 72.337ZM0.794533 72.4769L0.794533 71.9769H0.794533V72.4769ZM53.6308 72.4769V72.9769V72.4769ZM37.3429 54.4545H36.8429V54.9545H37.3429V54.4545ZM18.6714 36.8416H18.1714V37.3416H18.6714V36.8416ZM17.8769 18.5C18.0253 18.5 18.1714 18.6284 18.1714 18.8192H19.1714C19.1714 18.1052 18.6062 17.5 17.8769 17.5V18.5ZM0.794538 18.5H17.8769V17.5H0.794538V18.5ZM0.500005 18.8192C0.500005 18.6284 0.646162 18.5 0.794538 18.5V17.5C0.0653008 17.5 -0.499995 18.1051 -0.499995 18.8192H0.500005ZM0.500001 55.2721L0.500005 18.8192L-0.499995 18.8192L-0.499999 55.2721H0.500001ZM-0.499998 55.2712C-0.499999 55.272 -0.5 55.2728 -0.5 55.2737H0.5C0.5 55.2735 0.5 55.2732 0.500001 55.273L-0.499998 55.2712ZM0.5 71.6575V55.2737H-0.5V71.6575H0.5ZM0.636132 71.9267C0.556701 71.8714 0.5 71.774 0.5 71.6575H-0.5C-0.5 72.1066 -0.278789 72.5081 0.0644738 72.7472L0.636132 71.9267ZM0.794533 71.9769C0.736438 71.9769 0.682632 71.9591 0.636135 71.9267L0.0644705 72.7472C0.27159 72.8915 0.523523 72.9769 0.794533 72.9769V71.9769ZM0.794532 72.9769L53.6308 72.9769V71.9769L0.794533 71.9769L0.794532 72.9769ZM53.6308 72.9769C54.3601 72.9769 54.9253 72.3716 54.9253 71.6575H53.9253C53.9253 71.8485 53.779 71.9769 53.6308 71.9769V72.9769ZM54.9253 71.6575V55.2737H53.9253V71.6575H54.9253ZM54.9253 55.2737C54.9253 54.5595 54.36 53.9545 53.6308 53.9545V54.9545C53.7792 54.9545 53.9253 55.0829 53.9253 55.2737H54.9253ZM53.6308 53.9545H37.3429V54.9545H53.6308V53.9545ZM36.8429 37.6608V54.4545H37.8429V37.6608H36.8429ZM36.5484 37.3416C36.6967 37.3416 36.8429 37.4699 36.8429 37.6608H37.8429C37.8429 36.9468 37.2777 36.3416 36.5484 36.3416V37.3416ZM18.6714 37.3416H36.5484V36.3416H18.6714V37.3416ZM18.1714 18.8192V36.8416H19.1714V18.8192H18.1714Z" fill="#4F4F4F" mask="url(#path-1-inside-1_478_4374)"/>
<path d="M8.69366 16.7298C12.5961 15.8255 15.6621 12.5582 16.5338 8.41582C17.4056 12.5582 20.4715 15.8255 24.3739 16.7298C20.4715 17.6342 17.4056 20.9015 16.5338 25.0439C15.6621 20.9015 12.5961 17.6342 8.69366 16.7298Z" fill="#2215B0" stroke="#4F4F4F" stroke-width="0.5"/>
<path d="M35.8343 53.8062C36.4306 53.4506 36.6354 52.6623 36.2916 52.0455C35.9479 51.4287 35.1858 51.2168 34.5894 51.5724L35.8343 53.8062Z" fill="#4F4F4F"/>
<path fill-rule="evenodd" clip-rule="evenodd" d="M6.38789 57.1411L14.7951 64.7206L32.7284 48.9484C36.1199 45.9643 38.4562 44.0374 41.8232 46.7849C50.2256 53.6412 64.4102 50.1126 69.6297 39.7752C72.7284 33.6381 74.3351 17.732 57.0932 13.045C52.8155 11.4789 42.1645 11.3919 33.7821 23.573L6.38789 57.1411ZM58.3325 40.6664C63.4544 37.1558 64.764 30.1624 61.2573 25.0463C57.7507 19.9302 50.7559 18.6287 45.6339 22.1393C40.512 25.65 39.2025 32.6433 42.7091 37.7594C46.2157 42.8755 53.2105 44.177 58.3325 40.6664ZM56.8438 38.4944C52.9228 41.1819 47.568 40.1856 44.8836 36.269C42.1991 32.3525 43.2016 26.9988 47.1226 24.3113C51.0437 21.6238 56.3984 22.6202 59.0829 26.5367C61.7673 30.4533 60.7648 35.8069 56.8438 38.4944ZM57.6474 27.5207C59.7889 30.6453 58.9892 34.9163 55.8611 37.0603C52.733 39.2043 48.461 38.4095 46.3194 35.2849C44.1779 32.1604 44.9776 27.8894 48.1057 25.7453C51.2339 23.6013 55.5058 24.3962 57.6474 27.5207ZM48.7753 33.6017C49.9883 35.3714 52.408 35.8216 54.1797 34.6072C55.9515 33.3928 56.4045 30.9737 55.1915 29.204C53.9785 27.4342 51.5589 26.984 49.7871 28.1984C48.0153 29.4128 47.5623 31.8319 48.7753 33.6017ZM53.0019 32.8884C53.8198 32.3278 54.029 31.2109 53.469 30.3939C52.909 29.5768 51.7919 29.369 50.9739 29.9296C50.1559 30.4903 49.9468 31.6071 50.5068 32.4242C51.0668 33.2412 52.1839 33.4491 53.0019 32.8884Z" fill="url(#paint0_linear_478_4374)"/>
<path d="M14.7951 64.7206L14.6277 64.9063L14.793 65.0554L14.9602 64.9084L14.7951 64.7206ZM6.38789 57.1411L6.1942 56.983L6.04373 57.1674L6.22049 57.3268L6.38789 57.1411ZM32.7284 48.9484L32.8935 49.1361L32.8935 49.1361L32.7284 48.9484ZM41.8232 46.7849L41.6652 46.9786L41.8232 46.7849ZM69.6297 39.7752L69.4065 39.6625L69.6297 39.7752ZM57.0932 13.045L57.0073 13.2798L57.0173 13.2835L57.0276 13.2863L57.0932 13.045ZM33.7821 23.573L33.9758 23.7311L33.9822 23.7232L33.988 23.7147L33.7821 23.573ZM14.9625 64.535L6.55529 56.9554L6.22049 57.3268L14.6277 64.9063L14.9625 64.535ZM32.5633 48.7607L14.63 64.5329L14.9602 64.9084L32.8935 49.1361L32.5633 48.7607ZM41.9813 46.5912C41.118 45.8868 40.3053 45.4693 39.5108 45.2997C38.7135 45.1296 37.9524 45.213 37.2008 45.4819C35.7175 46.0127 34.2477 47.2786 32.5632 48.7607L32.8935 49.1361C34.6006 47.6341 35.9947 46.4445 37.3692 45.9527C38.0465 45.7103 38.7128 45.6407 39.4065 45.7887C40.1029 45.9373 40.8449 46.3093 41.6652 46.9786L41.9813 46.5912ZM69.4065 39.6625C64.2501 49.8749 50.2451 53.3344 41.9813 46.5912L41.6652 46.9786C50.2061 53.948 64.5702 50.3503 69.8528 39.8879L69.4065 39.6625ZM57.0276 13.2863C65.5628 15.6064 69.4034 20.687 70.747 25.9284C72.0963 31.1921 70.9321 36.6409 69.4065 39.6625L69.8528 39.8879C71.4259 36.7723 72.6144 31.1996 71.2314 25.8042C69.8425 20.3866 65.8656 15.1706 57.1588 12.8038L57.0276 13.2863ZM33.988 23.7147C42.3033 11.6311 52.8326 11.7514 57.0073 13.2798L57.1792 12.8103C52.7984 11.2064 42.0257 11.1526 33.5761 23.4313L33.988 23.7147ZM6.58158 57.2992L33.9758 23.7311L33.5884 23.415L6.1942 56.983L6.58158 57.2992ZM61.0511 25.1877C64.4795 30.1897 63.1994 37.0275 58.1911 40.4602L58.4738 40.8726C63.7095 37.2841 65.0484 30.1352 61.4636 24.905L61.0511 25.1877ZM45.7753 22.3456C50.7836 18.9128 57.6227 20.1857 61.0511 25.1877L61.4636 24.905C57.8787 19.6748 50.7282 18.3446 45.4926 21.9331L45.7753 22.3456ZM42.9153 37.6181C39.4869 32.6161 40.767 25.7783 45.7753 22.3456L45.4926 21.9331C40.257 25.5217 38.9181 32.6705 42.5029 37.9007L42.9153 37.6181ZM58.1911 40.4602C53.1829 43.8929 46.3437 42.6201 42.9153 37.6181L42.5029 37.9007C46.0877 43.131 53.2382 44.4611 58.4738 40.8726L58.1911 40.4602ZM44.6773 36.4104C47.44 40.441 52.9504 41.466 56.9851 38.7006L56.7025 38.2882C52.8951 40.8978 47.696 39.9301 45.0898 36.1277L44.6773 36.4104ZM46.9813 24.1051C42.9466 26.8705 41.9147 32.3797 44.6773 36.4104L45.0898 36.1277C42.4836 32.3252 43.4566 27.1271 47.264 24.5175L46.9813 24.1051ZM59.2891 26.3954C56.5264 22.3647 51.016 21.3397 46.9813 24.1051L47.264 24.5175C51.0713 21.908 56.2704 22.8756 58.8767 26.6781L59.2891 26.3954ZM56.9851 38.7006C61.0198 35.9352 62.0517 30.426 59.2891 26.3954L58.8767 26.6781C61.4829 30.4805 60.5098 35.6786 56.7025 38.2882L56.9851 38.7006ZM56.0024 37.2665C59.2442 35.0446 60.0734 30.618 57.8536 27.3794L57.4412 27.6621C59.5045 30.6725 58.7342 34.788 55.7197 36.8541L56.0024 37.2665ZM46.1132 35.4263C48.333 38.6649 52.7606 39.4885 56.0024 37.2665L55.7197 36.8541C52.7053 38.9202 48.589 38.154 46.5257 35.1436L46.1132 35.4263ZM47.9644 25.5391C44.7226 27.7611 43.8934 32.1876 46.1132 35.4263L46.5257 35.1436C44.4623 32.1332 45.2326 28.0177 48.2471 25.9516L47.9644 25.5391ZM57.8536 27.3794C55.6338 24.1407 51.2062 23.3172 47.9644 25.5391L48.2471 25.9516C51.2615 23.8854 55.3778 24.6516 57.4412 27.6621L57.8536 27.3794ZM54.0384 34.401C52.3803 35.5375 50.1163 35.116 48.9815 33.4603L48.5691 33.743C49.8603 35.6268 52.4356 36.1057 54.3211 34.8134L54.0384 34.401ZM54.9853 29.3453C56.1201 31.001 55.6965 33.2645 54.0384 34.401L54.3211 34.8134C56.2065 33.5212 56.6889 30.9465 55.3977 29.0627L54.9853 29.3453ZM49.9284 28.4046C51.5865 27.2682 53.8505 27.6897 54.9853 29.3453L55.3977 29.0627C54.1065 27.1788 51.5312 26.6999 49.6458 27.9922L49.9284 28.4046ZM48.9815 33.4603C47.8468 31.8047 48.2703 29.5411 49.9284 28.4046L49.6458 27.9922C47.7603 29.2845 47.2779 31.8591 48.5691 33.743L48.9815 33.4603ZM53.2628 30.5352C53.7445 31.2382 53.5648 32.1995 52.8605 32.6822L53.1432 33.0946C54.0748 32.4561 54.3134 31.1837 53.6752 30.2525L53.2628 30.5352ZM51.1152 30.1359C51.8196 29.6531 52.781 29.8323 53.2628 30.5352L53.6752 30.2525C53.037 29.3214 51.7642 29.0849 50.8326 29.7234L51.1152 30.1359ZM50.713 32.2828C50.2312 31.5799 50.4109 30.6186 51.1152 30.1359L50.8326 29.7234C49.9009 30.362 49.6624 31.6343 50.3006 32.5655L50.713 32.2828ZM52.8605 32.6822C52.1562 33.1649 51.1948 32.9858 50.713 32.2828L50.3006 32.5655C50.9388 33.4967 52.2116 33.7332 53.1432 33.0946L52.8605 32.6822Z" fill="#4F4F4F"/>
<path d="M33.3662 23.7515C27.6974 20.8199 18.169 24.9759 31.4911 47.9902C44.8133 71.0045 28.066 72.2383 19.4445 67.5963C18.0273 71.2 11.1182 76.9046 -5.18018 70.8945" stroke="#4F4F4F" stroke-width="1.38893" stroke-linecap="round"/>
<path d="M40.1988 46.4843C34.9825 43.9113 32.8677 40.9046 31.4958 37.0041C30.7931 35.0063 30.3573 31.509 30.6272 29.204C30.8031 27.7014 30.9987 23.6692 33.5054 23.7506" stroke="#4F4F4F" stroke-width="1.29539" stroke-linecap="round"/>
</g>
<defs>
<linearGradient id="paint0_linear_478_4374" x1="28.0085" y1="25.0085" x2="49.492" y2="56.3527" gradientUnits="userSpaceOnUse">
<stop stop-color="#61DFC6"/>
<stop offset="1" stop-color="#61DFC6"/>
</linearGradient>
<clipPath id="clip0_478_4374">
<rect width="72" height="72" fill="white"/>
</clipPath>
</defs>
</svg>
