<svg width="72" height="72" viewBox="0 0 72 72" fill="none" xmlns="http://www.w3.org/2000/svg">
<g clip-path="url(#clip0_367_4239)">
<path d="M8.51855 47.4438C8.51855 32.2679 20.8211 19.9653 35.997 19.9653C51.1729 19.9653 63.4754 32.2678 63.4754 47.4438V66.0479H8.51855V47.4438Z" fill="#45E2C3"/>
<path fill-rule="evenodd" clip-rule="evenodd" d="M14.7933 5.95264C23.7813 6.66758 23.8722 14.1661 22.7941 17.826C21.943 19.9539 19.1513 24.082 14.7933 23.5713C10.4354 23.0606 8.35305 19.5283 7.85664 17.826C5.37131 8.93999 11.4455 6.20792 14.7933 5.95264ZM49.2055 17.826C48.1275 14.1661 48.2183 6.66758 57.2064 5.95264C60.5541 6.20792 66.6284 8.93999 64.143 17.826C63.6466 19.5283 61.5643 23.0606 57.2064 23.5713C52.8484 24.082 50.0567 19.9539 49.2055 17.826ZM26.3748 29.7783C24.983 25.0534 25.1003 15.3728 36.7038 14.4498C41.0257 14.7794 48.8675 18.3065 45.659 29.7783C45.0181 31.9759 42.3299 36.5361 36.7038 37.1954C31.0777 37.8547 27.4736 32.5253 26.3748 29.7783ZM29.8097 38.0141C30.8714 38.7258 33.6712 40.1339 36.3766 40.0718C39.0821 40.0097 41.6243 38.6741 42.5573 38.0141C47.62 38.5478 57.322 42.3432 55.6279 53.255C54.839 55.3103 52.1401 59.6824 47.6558 60.7288V51.7602C47.6818 51.2921 47.4992 50.3725 46.5616 50.4383C45.624 50.5041 45.3759 51.1099 45.369 51.4046V61.4797C41.7883 62.0112 33.0679 62.6953 26.8326 61.1798V51.4046C26.873 51.0527 26.7039 50.3582 25.705 50.3957C24.7061 50.4331 24.5603 51.0839 24.6122 51.4046V60.4944C21.3211 58.7978 15.2438 53.8179 17.2632 47.4713C19.2826 41.1246 26.4689 38.522 29.8097 38.0141ZM49.7787 25.4965C50.9392 27.9066 46.9149 33.6789 44.7577 36.2638L47.532 36.9731V34.7781C47.561 34.6259 47.758 34.313 48.3144 34.2782C48.8708 34.2434 49.003 34.597 48.9996 34.7781V37.5374C53.06 38.6941 55.7867 42.0916 56.6424 43.6458L63.3705 43.1441C63.3902 40.6654 63.4178 35.5898 63.3705 35.1176C63.3115 34.5274 63.6951 34.4094 64.1378 34.3209C64.4919 34.25 64.7175 34.7045 64.786 34.9406V42.7913C67.6498 41.7127 73.0651 38.1943 71.8154 32.7492C70.5658 27.3041 63.9305 25.2734 60.7691 24.9386C57.154 26.5453 53.8326 25.6081 52.6239 24.9386L49.7787 25.4965ZM27.242 36.2638C25.0848 33.6789 21.0605 27.9066 22.221 25.4965L19.3758 24.9386C18.167 25.6081 14.8457 26.5453 11.2305 24.9386C8.06914 25.2734 1.43391 27.3041 0.184225 32.7492C-1.06546 38.1943 4.34984 41.7127 7.2137 42.7913V34.9406C7.28222 34.7045 7.50777 34.25 7.86189 34.3209C8.30452 34.4094 8.68814 34.5274 8.62913 35.1176C8.58191 35.5898 8.60945 40.6654 8.62913 43.1441L15.3572 43.6458C16.213 42.0916 18.9396 38.6941 23.0001 37.5374V34.7781C22.9967 34.597 23.1289 34.2434 23.6853 34.2782C24.2416 34.313 24.4387 34.6259 24.4677 34.7781V36.9731L27.242 36.2638Z" fill="#D9D9D9"/>
<path fill-rule="evenodd" clip-rule="evenodd" d="M14.7933 5.95264C23.7813 6.66758 23.8722 14.1661 22.7941 17.826C21.943 19.9539 19.1513 24.082 14.7933 23.5713C10.4354 23.0606 8.35305 19.5283 7.85664 17.826C5.37131 8.93999 11.4455 6.20792 14.7933 5.95264ZM49.2055 17.826C48.1275 14.1661 48.2183 6.66758 57.2064 5.95264C60.5541 6.20792 66.6284 8.93999 64.143 17.826C63.6466 19.5283 61.5643 23.0606 57.2064 23.5713C52.8484 24.082 50.0567 19.9539 49.2055 17.826ZM26.3748 29.7783C24.983 25.0534 25.1003 15.3728 36.7038 14.4498C41.0257 14.7794 48.8675 18.3065 45.659 29.7783C45.0181 31.9759 42.3299 36.5361 36.7038 37.1954C31.0777 37.8547 27.4736 32.5253 26.3748 29.7783ZM29.8097 38.0141C30.8714 38.7258 33.6712 40.1339 36.3766 40.0718C39.0821 40.0097 41.6243 38.6741 42.5573 38.0141C47.62 38.5478 57.322 42.3432 55.6279 53.255C54.839 55.3103 52.1401 59.6824 47.6558 60.7288V51.7602C47.6818 51.2921 47.4992 50.3725 46.5616 50.4383C45.624 50.5041 45.3759 51.1099 45.369 51.4046V61.4797C41.7883 62.0112 33.0679 62.6953 26.8326 61.1798V51.4046C26.873 51.0527 26.7039 50.3582 25.705 50.3957C24.7061 50.4331 24.5603 51.0839 24.6122 51.4046V60.4944C21.3211 58.7978 15.2438 53.8179 17.2632 47.4713C19.2826 41.1246 26.4689 38.522 29.8097 38.0141ZM49.7787 25.4965C50.9392 27.9066 46.9149 33.6789 44.7577 36.2638L47.532 36.9731V34.7781C47.561 34.6259 47.758 34.313 48.3144 34.2782C48.8708 34.2434 49.003 34.597 48.9996 34.7781V37.5374C53.06 38.6941 55.7867 42.0916 56.6424 43.6458L63.3705 43.1441C63.3902 40.6654 63.4178 35.5898 63.3705 35.1176C63.3115 34.5274 63.6951 34.4094 64.1378 34.3209C64.4919 34.25 64.7175 34.7045 64.786 34.9406V42.7913C67.6498 41.7127 73.0651 38.1943 71.8154 32.7492C70.5658 27.3041 63.9305 25.2734 60.7691 24.9386C57.154 26.5453 53.8326 25.6081 52.6239 24.9386L49.7787 25.4965ZM27.242 36.2638C25.0848 33.6789 21.0605 27.9066 22.221 25.4965L19.3758 24.9386C18.167 25.6081 14.8457 26.5453 11.2305 24.9386C8.06914 25.2734 1.43391 27.3041 0.184225 32.7492C-1.06546 38.1943 4.34984 41.7127 7.2137 42.7913V34.9406C7.28222 34.7045 7.50777 34.25 7.86189 34.3209C8.30452 34.4094 8.68814 34.5274 8.62913 35.1176C8.58191 35.5898 8.60945 40.6654 8.62913 43.1441L15.3572 43.6458C16.213 42.0916 18.9396 38.6941 23.0001 37.5374V34.7781C22.9967 34.597 23.1289 34.2434 23.6853 34.2782C24.2416 34.313 24.4387 34.6259 24.4677 34.7781V36.9731L27.242 36.2638Z" fill="url(#paint0_linear_367_4239)"/>
<path d="M22.7941 17.826L23.2584 18.0117L23.2671 17.9898L23.2738 17.9673L22.7941 17.826ZM14.7933 5.95264L14.833 5.45421L14.7941 5.45112L14.7553 5.45408L14.7933 5.95264ZM7.85664 17.826L7.37509 17.9607L7.37663 17.966L7.85664 17.826ZM57.2064 5.95264L57.2444 5.45408L57.2055 5.45112L57.1667 5.45421L57.2064 5.95264ZM49.2055 17.826L48.7259 17.9673L48.7326 17.9898L48.7413 18.0117L49.2055 17.826ZM64.143 17.826L64.6231 17.966L64.6246 17.9607L64.143 17.826ZM36.7038 14.4498L36.7418 13.9513L36.703 13.9483L36.6641 13.9514L36.7038 14.4498ZM26.3748 29.7783L25.8951 29.9195L25.9018 29.9421L25.9105 29.964L26.3748 29.7783ZM45.659 29.7783L46.139 29.9182L46.1405 29.9129L45.659 29.7783ZM36.3766 40.0718L36.3881 40.5716L36.3766 40.0718ZM29.8097 38.0141L30.0881 37.5988L29.9266 37.4905L29.7345 37.5198L29.8097 38.0141ZM42.5573 38.0141L42.6097 37.5168L42.4223 37.4971L42.2685 37.6059L42.5573 38.0141ZM55.6279 53.255L56.0947 53.4341L56.1138 53.3844L56.122 53.3317L55.6279 53.255ZM47.6558 60.7288H47.1558V61.3589L47.7694 61.2157L47.6558 60.7288ZM47.6558 51.7602L47.1566 51.7325L47.1558 51.7464V51.7602H47.6558ZM46.5616 50.4383L46.5266 49.9395H46.5266L46.5616 50.4383ZM45.369 51.4046L44.869 51.393V51.4046H45.369ZM45.369 61.4797L45.4425 61.9743L45.869 61.911V61.4797H45.369ZM26.8326 61.1798H26.3326V61.5728L26.7145 61.6656L26.8326 61.1798ZM26.8326 51.4046L26.3358 51.3477L26.3326 51.3761V51.4046H26.8326ZM25.705 50.3957L25.6863 49.896L25.705 50.3957ZM24.6122 51.4046H25.1122V51.3644L25.1058 51.3247L24.6122 51.4046ZM24.6122 60.4944L24.3831 60.9389L25.1122 61.3147V60.4944H24.6122ZM17.2632 47.4713L16.7868 47.3197L17.2632 47.4713ZM44.7577 36.2638L44.3738 35.9434L43.866 36.5519L44.6338 36.7482L44.7577 36.2638ZM49.7787 25.4965L49.6825 25.0058L49.0474 25.1303L49.3282 25.7134L49.7787 25.4965ZM47.532 36.9731L47.4082 37.4575L48.032 37.6171V36.9731H47.532ZM47.532 34.7781L47.0408 34.6845L47.032 34.7309V34.7781H47.532ZM48.3144 34.2782L48.3456 34.7772V34.7772L48.3144 34.2782ZM48.9996 34.7781L48.4996 34.7686V34.7781H48.9996ZM48.9996 37.5374H48.4996V37.9148L48.8626 38.0182L48.9996 37.5374ZM56.6424 43.6458L56.2044 43.887L56.3594 44.1683L56.6796 44.1444L56.6424 43.6458ZM63.3705 43.1441L63.4077 43.6427L63.8669 43.6085L63.8705 43.1481L63.3705 43.1441ZM63.3705 35.1176L62.873 35.1674L62.873 35.1674L63.3705 35.1176ZM64.1378 34.3209L64.0397 33.8306L64.1378 34.3209ZM64.786 34.9406H65.286V34.8695L65.2662 34.8012L64.786 34.9406ZM64.786 42.7913H64.286V43.5139L64.9622 43.2592L64.786 42.7913ZM71.8154 32.7492L71.3281 32.861V32.8611L71.8154 32.7492ZM60.7691 24.9386L60.8218 24.4414L60.6885 24.4273L60.5661 24.4817L60.7691 24.9386ZM52.6239 24.9386L52.8661 24.5012L52.7066 24.4129L52.5277 24.448L52.6239 24.9386ZM22.221 25.4965L22.6715 25.7134L22.9522 25.1303L22.3172 25.0058L22.221 25.4965ZM27.242 36.2638L27.3659 36.7482L28.1337 36.5519L27.6259 35.9434L27.242 36.2638ZM19.3758 24.9386L19.472 24.448L19.2931 24.4129L19.1336 24.5012L19.3758 24.9386ZM11.2305 24.9386L11.4336 24.4817L11.3112 24.4273L11.1779 24.4414L11.2305 24.9386ZM7.2137 42.7913L7.03747 43.2592L7.7137 43.5139V42.7913H7.2137ZM7.2137 34.9406L6.73352 34.8012L6.7137 34.8695V34.9406H7.2137ZM7.86189 34.3209L7.95994 33.8306H7.95994L7.86189 34.3209ZM8.62913 35.1176L8.13161 35.0679V35.0679L8.62913 35.1176ZM8.62913 43.1441L8.12914 43.1481L8.1328 43.6085L8.59195 43.6427L8.62913 43.1441ZM15.3572 43.6458L15.3201 44.1444L15.6403 44.1683L15.7952 43.887L15.3572 43.6458ZM23.0001 37.5374L23.1371 38.0182L23.5001 37.9148V37.5374H23.0001ZM23.0001 34.7781H23.5002L23.5 34.7686L23.0001 34.7781ZM23.6853 34.2782L23.6541 34.7772L23.6541 34.7772L23.6853 34.2782ZM24.4677 34.7781H24.9677V34.7309L24.9588 34.6845L24.4677 34.7781ZM24.4677 36.9731H23.9677V37.6171L24.5915 37.4575L24.4677 36.9731ZM23.2738 17.9673C23.833 16.0688 24.0998 13.1537 23.0299 10.5922C21.9385 7.97934 19.4928 5.82487 14.833 5.45421L14.7537 6.45106C19.0819 6.79535 21.1756 8.74761 22.1071 10.9777C23.0601 13.2591 22.8333 15.9233 22.3145 17.6847L23.2738 17.9673ZM14.7351 24.0679C17.1002 24.345 19.0258 23.3565 20.4463 22.057C21.8604 20.7633 22.8101 19.1323 23.2584 18.0117L22.3299 17.6403C21.927 18.6476 21.0553 20.1445 19.7713 21.3192C18.4936 22.488 16.8443 23.3082 14.8515 23.0747L14.7351 24.0679ZM7.37663 17.966C7.90582 19.7807 10.106 23.5254 14.7351 24.0679L14.8515 23.0747C10.7648 22.5958 8.80028 19.2759 8.33665 17.686L7.37663 17.966ZM14.7553 5.45408C12.993 5.58847 10.5004 6.37121 8.76421 8.32021C7.00089 10.2996 6.09707 13.3912 7.37512 17.9607L8.33816 17.6913C7.13088 13.3748 8.0215 10.6573 9.5109 8.98538C11.0274 7.28303 13.2458 6.5721 14.8313 6.45119L14.7553 5.45408ZM57.1667 5.45421C52.5069 5.82487 50.0612 7.97934 48.9698 10.5922C47.8999 13.1537 48.1667 16.0688 48.7259 17.9673L49.6852 17.6847C49.1663 15.9233 48.9396 13.2591 49.8925 10.9777C50.824 8.74761 52.9178 6.79535 57.246 6.45106L57.1667 5.45421ZM64.6246 17.9607C65.9026 13.3912 64.9988 10.2996 63.2355 8.32021C61.4992 6.37121 59.0066 5.58847 57.2444 5.45408L57.1683 6.45119C58.7539 6.5721 60.9723 7.28303 62.4888 8.98538C63.9782 10.6573 64.8688 13.3748 63.6615 17.6913L64.6246 17.9607ZM57.2646 24.0679C61.8937 23.5254 64.0938 19.7807 64.623 17.966L63.663 17.686C63.1994 19.2759 61.2349 22.5958 57.1482 23.0747L57.2646 24.0679ZM48.7413 18.0117C49.1895 19.1323 50.1392 20.7633 51.5534 22.057C52.9739 23.3565 54.8995 24.345 57.2646 24.0679L57.1482 23.0747C55.1553 23.3082 53.506 22.488 52.2284 21.3192C50.9444 20.1445 50.0727 18.6476 49.6698 17.6403L48.7413 18.0117ZM36.6641 13.9514C30.6966 14.4261 27.5904 17.1781 26.2047 20.4956C24.8404 23.7617 25.1791 27.4885 25.8951 29.9195L26.8544 29.637C26.1787 27.3431 25.8801 23.8672 27.1274 20.8811C28.3532 17.9464 31.1075 15.3966 36.7434 14.9483L36.6641 13.9514ZM46.1405 29.9129C47.7802 24.0506 46.6152 20.1138 44.3787 17.6031C42.1692 15.1229 38.9911 14.1228 36.7418 13.9513L36.6658 14.9484C38.7384 15.1064 41.6422 16.0347 43.632 18.2683C45.5946 20.4715 46.7463 24.0342 45.1775 29.6436L46.1405 29.9129ZM36.762 37.692C42.6593 37.0009 45.4653 32.2283 46.139 29.9182L45.179 29.6383C44.5709 31.7236 42.0004 36.0713 36.6456 36.6988L36.762 37.692ZM25.9105 29.964C26.4826 31.3941 27.6973 33.4803 29.504 35.1331C31.3171 36.7918 33.7628 38.0435 36.762 37.692L36.6456 36.6988C34.0187 37.0066 31.8493 35.9233 30.179 34.3953C28.5025 32.8615 27.3657 30.9095 26.839 29.5926L25.9105 29.964ZM36.3652 39.5719C33.8066 39.6306 31.1097 38.2837 30.0881 37.5988L29.5312 38.4294C30.633 39.168 33.5358 40.6371 36.3881 40.5716L36.3652 39.5719ZM42.2685 37.6059C41.3849 38.231 38.9382 39.5128 36.3652 39.5719L36.3881 40.5716C39.226 40.5065 41.8637 39.1172 42.846 38.4223L42.2685 37.6059ZM56.122 53.3317C56.9978 47.6905 54.9185 43.8431 51.9471 41.3591C49.0043 38.8992 45.2102 37.791 42.6097 37.5168L42.5048 38.5113C44.9671 38.7709 48.5553 39.8272 51.3057 42.1264C54.0274 44.4015 55.9521 47.9076 55.1338 53.1783L56.122 53.3317ZM47.7694 61.2157C50.1414 60.6622 52.0212 59.2345 53.3991 57.7049C54.776 56.1764 55.6794 54.5161 56.0947 53.4341L55.1611 53.0758C54.7875 54.0491 53.947 55.6026 52.6561 57.0356C51.3663 58.4674 49.6545 59.749 47.5422 60.2418L47.7694 61.2157ZM47.1558 51.7602V60.7288H48.1558V51.7602H47.1558ZM46.5966 50.937C46.7451 50.9266 46.8322 50.9561 46.885 50.9861C46.9404 51.0175 46.991 51.0683 47.0356 51.1465C47.1327 51.317 47.1662 51.5592 47.1566 51.7325L48.1551 51.7879C48.1714 51.4931 48.1266 51.0415 47.9045 50.6516C47.7894 50.4495 47.6202 50.2535 47.3785 50.1163C47.1342 49.9778 46.8469 49.917 46.5266 49.9395L46.5966 50.937ZM45.8689 51.4163C45.8697 51.3833 45.891 51.2759 45.9849 51.1734C46.068 51.0828 46.2391 50.9621 46.5966 50.937L46.5266 49.9395C45.9465 49.9802 45.5248 50.1954 45.2476 50.4978C44.9814 50.7884 44.8753 51.1313 44.8692 51.393L45.8689 51.4163ZM45.869 61.4797V51.4046H44.869V61.4797H45.869ZM26.7145 61.6656C33.0458 63.2045 41.844 62.5084 45.4425 61.9743L45.2956 60.9851C41.7325 61.514 33.09 62.1861 26.9507 60.6939L26.7145 61.6656ZM26.3326 51.4046V61.1798H27.3326V51.4046H26.3326ZM25.7237 50.8953C26.095 50.8814 26.2163 50.9987 26.2607 51.057C26.3258 51.1425 26.3453 51.2653 26.3358 51.3477L27.3293 51.4616C27.3603 51.192 27.3154 50.7916 27.0564 50.4513C26.7766 50.0837 26.3139 49.8725 25.6863 49.896L25.7237 50.8953ZM25.1058 51.3247C25.097 51.2703 25.1068 51.1713 25.1652 51.093C25.2093 51.0339 25.3378 50.9098 25.7237 50.8953L25.6863 49.896C25.0732 49.919 24.6294 50.139 24.3638 50.4949C24.1126 50.8315 24.0755 51.2183 24.1187 51.4846L25.1058 51.3247ZM25.1122 60.4944V51.4046H24.1122V60.4944H25.1122ZM16.7868 47.3197C15.713 50.6945 16.8055 53.6924 18.5455 56.0255C20.2792 58.3503 22.6867 60.0643 24.3831 60.9389L24.8413 60.05C23.2467 59.2279 20.97 57.6037 19.3471 55.4277C17.7305 53.2601 16.7941 50.5947 17.7397 47.6229L16.7868 47.3197ZM29.7345 37.5198C28.0057 37.7826 25.3095 38.5807 22.7802 40.1265C20.2488 41.6736 17.8445 43.9955 16.7868 47.3197L17.7397 47.6229C18.7014 44.6004 20.8999 42.4476 23.3017 40.9798C25.7056 39.5106 28.2729 38.7535 29.8848 38.5084L29.7345 37.5198ZM45.1415 36.5842C46.2341 35.2749 47.8003 33.1585 48.951 31.0545C49.5257 30.0036 50.0076 28.9363 50.2699 27.9621C50.5277 27.0045 50.5982 26.0459 50.2292 25.2796L49.3282 25.7134C49.5394 26.1521 49.5421 26.8188 49.3043 27.7022C49.0709 28.5689 48.6296 29.5581 48.0736 30.5747C46.963 32.6055 45.4384 34.6677 44.3738 35.9434L45.1415 36.5842ZM47.6559 36.4887L44.8815 35.7794L44.6338 36.7482L47.4082 37.4575L47.6559 36.4887ZM47.032 34.7781V36.9731H48.032V34.7781H47.032ZM48.2832 33.7792C47.5245 33.8266 47.1172 34.2838 47.0408 34.6845L48.0232 34.8716C48.0141 34.9192 48.0039 34.9028 48.0448 34.8689C48.0766 34.8425 48.1607 34.7888 48.3456 34.7772L48.2832 33.7792ZM49.4995 34.7876C49.5032 34.5884 49.4367 34.3192 49.228 34.1013C49.0038 33.8672 48.6764 33.7546 48.2832 33.7792L48.3456 34.7772C48.4311 34.7719 48.4764 34.7829 48.4944 34.7891C48.5105 34.7947 48.5107 34.7981 48.5058 34.793C48.5024 34.7894 48.5012 34.7864 48.501 34.7859C48.5009 34.7856 48.5007 34.785 48.5004 34.7833C48.5002 34.7819 48.4995 34.7772 48.4996 34.7686L49.4995 34.7876ZM49.4996 37.5374V34.7781H48.4996V37.5374H49.4996ZM57.0804 43.4046C56.1865 41.7812 53.3695 38.2624 49.1365 37.0565L48.8626 38.0182C52.7505 39.1259 55.3868 42.4021 56.2044 43.887L57.0804 43.4046ZM63.3334 42.6455L56.6053 43.1472L56.6796 44.1444L63.4077 43.6427L63.3334 42.6455ZM62.873 35.1674C62.8819 35.2557 62.8894 35.63 62.8932 36.2256C62.897 36.8044 62.8974 37.5589 62.8956 38.3773C62.8922 40.0138 62.8804 41.9014 62.8706 43.1402L63.8705 43.1481C63.8804 41.9081 63.8922 40.0185 63.8956 38.3794C63.8974 37.5601 63.897 36.8022 63.8932 36.2191C63.8896 35.6528 63.8828 35.2156 63.8681 35.0679L62.873 35.1674ZM64.0397 33.8306C63.8311 33.8723 63.5064 33.9398 63.2549 34.1397C62.9485 34.3833 62.8307 34.7444 62.873 35.1674L63.8681 35.0679C63.8587 34.9738 63.8706 34.9345 63.8734 34.9269C63.8741 34.9248 63.8722 34.9265 63.8772 34.9225C63.8879 34.914 63.917 34.8956 63.9823 34.8736C64.048 34.8515 64.1291 34.8325 64.2358 34.8112L64.0397 33.8306ZM65.2662 34.8012C65.2194 34.64 65.1203 34.4011 64.9569 34.2001C64.7965 34.0029 64.4821 33.7421 64.0397 33.8306L64.2358 34.8112C64.204 34.8175 64.1712 34.8099 64.1536 34.801C64.144 34.7962 64.1553 34.7995 64.1811 34.8311C64.2057 34.8613 64.2318 34.9033 64.2559 34.9528C64.2797 35.0018 64.2965 35.048 64.3058 35.0799L65.2662 34.8012ZM65.286 42.7913V34.9406H64.286V42.7913H65.286ZM71.3281 32.8611C71.9054 35.3765 70.9561 37.4556 69.4749 39.0696C67.9844 40.6937 65.9872 41.8046 64.6097 42.3234L64.9622 43.2592C66.4486 42.6994 68.591 41.5118 70.2117 39.7458C71.8417 37.9696 72.9752 35.567 72.3028 32.6374L71.3281 32.8611ZM60.7165 25.4358C62.243 25.5975 64.6249 26.1727 66.766 27.3644C68.9066 28.5559 70.7466 30.3272 71.3281 32.861L72.3028 32.6374C71.6346 29.7262 69.5322 27.7596 67.2523 26.4907C64.9731 25.2221 62.4567 24.6145 60.8218 24.4414L60.7165 25.4358ZM52.3816 25.376C53.702 26.1073 57.189 27.0769 60.9722 25.3955L60.5661 24.4817C57.1189 26.0137 53.9632 25.1088 52.8661 24.5012L52.3816 25.376ZM49.8749 25.9871L52.7201 25.4293L52.5277 24.448L49.6825 25.0058L49.8749 25.9871ZM21.7705 25.2796C21.4015 26.0459 21.472 27.0045 21.7298 27.9621C21.992 28.9363 22.474 30.0036 23.0487 31.0545C24.1994 33.1585 25.7655 35.2749 26.8581 36.5842L27.6259 35.9434C26.5613 34.6677 25.0367 32.6055 23.9261 30.5747C23.3701 29.5581 22.9287 28.5689 22.6954 27.7022C22.4576 26.8188 22.4603 26.1521 22.6715 25.7134L21.7705 25.2796ZM19.2796 25.4293L22.1248 25.9871L22.3172 25.0058L19.472 24.448L19.2796 25.4293ZM11.0275 25.3955C14.8106 27.0769 18.2977 26.1073 19.6181 25.376L19.1336 24.5012C18.0364 25.1088 14.8808 26.0137 11.4336 24.4817L11.0275 25.3955ZM0.671555 32.8611C1.2531 30.3272 3.09309 28.5559 5.23366 27.3644C7.37481 26.1727 9.75667 25.5975 11.2832 25.4358L11.1779 24.4414C9.54301 24.6145 7.02656 25.2221 4.74732 26.4907C2.4675 27.7596 0.365037 29.7262 -0.303105 32.6374L0.671555 32.8611ZM7.38993 42.3234C6.0125 41.8046 4.01526 40.6937 2.52477 39.0696C1.04358 37.4556 0.0942422 35.3765 0.671555 32.8611L-0.303105 32.6374C-0.975477 35.567 0.157993 37.9696 1.788 39.7458C3.4087 41.5118 5.55104 42.6994 7.03747 43.2592L7.38993 42.3234ZM6.7137 34.9406V42.7913H7.7137V34.9406H6.7137ZM7.95994 33.8306C7.51753 33.7421 7.20322 34.0029 7.04282 34.2001C6.87936 34.4011 6.7803 34.64 6.73352 34.8012L7.69389 35.0799C7.70317 35.0479 7.71994 35.0018 7.74376 34.9528C7.76783 34.9033 7.79402 34.8613 7.81857 34.8311C7.84434 34.7995 7.85569 34.7962 7.84608 34.801C7.82852 34.8099 7.79569 34.8175 7.76383 34.8112L7.95994 33.8306ZM9.12664 35.1674C9.16894 34.7444 9.05122 34.3833 8.74475 34.1397C8.49324 33.9398 8.16857 33.8723 7.95994 33.8306L7.76383 34.8112C7.87054 34.8325 7.95165 34.8515 8.01734 34.8736C8.08272 34.8956 8.11173 34.914 8.12251 34.9225C8.12746 34.9265 8.12552 34.9248 8.12629 34.9269C8.12906 34.9345 8.14101 34.9738 8.13161 35.0679L9.12664 35.1674ZM9.12911 43.1402C9.11928 41.9014 9.10748 40.0138 9.10404 38.3773C9.10232 37.5589 9.10269 36.8044 9.10643 36.2256C9.11027 35.63 9.11781 35.2557 9.12664 35.1674L8.13161 35.0679C8.11684 35.2156 8.11011 35.6528 8.10645 36.2191C8.10269 36.8022 8.10232 37.5601 8.10404 38.3794C8.10749 40.0185 8.1193 41.9081 8.12914 43.1481L9.12911 43.1402ZM15.3944 43.1472L8.6663 42.6455L8.59195 43.6427L15.3201 44.1444L15.3944 43.1472ZM22.8631 37.0565C18.6302 38.2624 15.8131 41.7812 14.9192 43.4046L15.7952 43.887C16.6128 42.4021 19.2491 39.1259 23.1371 38.0182L22.8631 37.0565ZM22.5001 34.7781V37.5374H23.5001V34.7781H22.5001ZM23.7164 33.7792C23.3233 33.7546 22.9959 33.8672 22.7717 34.1013C22.563 34.3192 22.4964 34.5884 22.5002 34.7876L23.5 34.7686C23.5002 34.7772 23.4995 34.7819 23.4993 34.7833C23.499 34.785 23.4988 34.7856 23.4987 34.7859C23.4985 34.7864 23.4973 34.7894 23.4939 34.793C23.489 34.7981 23.4891 34.7947 23.5053 34.7891C23.5233 34.7829 23.5686 34.7719 23.6541 34.7772L23.7164 33.7792ZM24.9588 34.6845C24.8825 34.2838 24.4752 33.8266 23.7164 33.7792L23.6541 34.7772C23.8389 34.7888 23.9231 34.8425 23.9549 34.8689C23.9958 34.9028 23.9856 34.9192 23.9765 34.8716L24.9588 34.6845ZM24.9677 36.9731V34.7781H23.9677V36.9731H24.9677ZM27.1182 35.7794L24.3438 36.4887L24.5915 37.4575L27.3659 36.7482L27.1182 35.7794Z" fill="#5F5714"/>
</g>
<defs>
<linearGradient id="paint0_linear_367_4239" x1="19.75" y1="62.1041" x2="19.75" y2="-3.05028" gradientUnits="userSpaceOnUse">
<stop stop-color="#F9B409"/>
<stop offset="1" stop-color="#FDECC2"/>
</linearGradient>
<clipPath id="clip0_367_4239">
<rect width="72" height="72" fill="white"/>
</clipPath>
</defs>
</svg>
