<svg width="72" height="72" viewBox="0 0 72 72" fill="none" xmlns="http://www.w3.org/2000/svg">
<rect width="23.1423" height="23.1423" rx="5" transform="matrix(0.705601 0.70861 -0.705601 0.70861 34.9453 39.2021)" fill="#45E2C3"/>
<rect width="23.1423" height="23.1423" rx="5" transform="matrix(0.705601 0.70861 -0.705601 0.70861 55.6704 18.2095)" fill="#FDB927"/>
<rect width="23.1423" height="23.1423" rx="5" transform="matrix(0.705601 0.70861 -0.705601 0.70861 16.3291 18.2095)" fill="#FDB927"/>
<rect width="23.1423" height="23.1423" rx="5" transform="matrix(0.705601 0.70861 -0.705601 0.70861 34.9453 0)" fill="#45E2C3"/>
<path d="M0.968726 39.3606C6.34083 35.1529 12.2279 34.219 18.6299 36.559C25.0319 38.8992 30.919 37.9653 36.291 33.7573C41.6631 29.5496 47.5503 28.6157 53.9521 30.9556C60.3543 33.2958 66.2412 32.362 71.6134 28.1539" stroke="#888888"/>
<path d="M52.5616 36.9051C52.5616 46.6822 44.6706 54.6008 34.9454 54.6008C25.2202 54.6008 17.3291 46.6822 17.3291 36.9051C17.3291 27.1281 25.2202 19.2095 34.9454 19.2095C44.6706 19.2095 52.5616 27.1281 52.5616 36.9051Z" fill="#D9D9D9"/>
<path d="M52.5616 36.9051C52.5616 46.6822 44.6706 54.6008 34.9454 54.6008C25.2202 54.6008 17.3291 46.6822 17.3291 36.9051C17.3291 27.1281 25.2202 19.2095 34.9454 19.2095C44.6706 19.2095 52.5616 27.1281 52.5616 36.9051Z" fill="url(#paint0_linear_367_4260)"/>
<path d="M52.5616 36.9051C52.5616 46.6822 44.6706 54.6008 34.9454 54.6008C25.2202 54.6008 17.3291 46.6822 17.3291 36.9051C17.3291 27.1281 25.2202 19.2095 34.9454 19.2095C44.6706 19.2095 52.5616 27.1281 52.5616 36.9051Z" stroke="#5B50D7" stroke-width="2"/>
<path d="M34.9453 27.3447V37.7505C34.9453 38.0267 35.1692 38.2505 35.4453 38.2505H43.7363" stroke="#191919" stroke-width="1.5" stroke-linecap="round"/>
<defs>
<linearGradient id="paint0_linear_367_4260" x1="26.5422" y1="55.6008" x2="24.9783" y2="-18.7802" gradientUnits="userSpaceOnUse">
<stop stop-color="#6557FF"/>
<stop offset="1" stop-color="#6557FF" stop-opacity="0"/>
</linearGradient>
</defs>
</svg>
