<svg width="200" height="40" viewBox="0 0 200 40" fill="none" xmlns="http://www.w3.org/2000/svg">
<g id="logo" clip-path="url(#clip0_493_1004)">
<g id="Group">
<g id="Group_2">
<path id="Vector" d="M53.8263 11.5054V18.7381H64.7312V22.4726H53.8263V31.5742H49.6328V7.80371H66.1181V11.5054H53.8263Z" fill="white"/>
<path id="Vector_2" d="M81.649 15.1544C82.9933 16.4331 83.6654 18.3642 83.6654 20.9445V31.574H79.8589V29.3675C79.3638 30.1609 78.6589 30.7642 77.7474 31.1839C76.8326 31.6035 75.731 31.8134 74.4392 31.8134C73.1474 31.8134 72.0195 31.5806 71.0523 31.1183C70.0851 30.656 69.3376 30.0101 68.8097 29.1839C68.2818 28.3576 68.0195 27.4232 68.0195 26.3839C68.0195 24.7544 68.5933 23.4462 69.7441 22.4626C70.8949 21.4789 72.7081 20.9839 75.1802 20.9839H79.6326V20.7117C79.6326 19.4429 79.272 18.4691 78.5507 17.7904C77.8294 17.1117 76.7605 16.7708 75.3408 16.7708C74.3736 16.7708 73.4228 16.9281 72.4851 17.2462C71.5507 17.5642 70.7605 18.0035 70.1146 18.5708L68.5343 15.479C69.4359 14.7544 70.5244 14.2003 71.7933 13.8134C73.0621 13.4298 74.4064 13.2363 75.8261 13.2363C78.3638 13.2363 80.3048 13.8757 81.649 15.1544ZM77.9736 27.9904C78.7572 27.5052 79.3113 26.8068 79.6359 25.9019V23.797H75.4753C73.154 23.797 71.99 24.6003 71.99 26.2068C71.99 26.9773 72.2818 27.5871 72.8622 28.0396C73.4425 28.4921 74.249 28.7183 75.2818 28.7183C76.2884 28.7216 77.1867 28.479 77.9736 27.9904Z" fill="white"/>
<path id="Vector_3" d="M103.829 15.2393C105.141 16.577 105.797 18.5574 105.797 21.1803V31.5705H101.764V21.7213C101.764 20.1377 101.41 18.941 100.698 18.1377C99.9867 17.3344 98.9769 16.9311 97.6654 16.9311C96.1801 16.9311 95.0096 17.4 94.1474 18.341C93.2883 19.282 92.8555 20.6328 92.8555 22.4V31.5672H88.8228V13.4328H92.6621V15.777C93.3277 14.941 94.167 14.3049 95.1769 13.8754C96.1867 13.4459 97.3277 13.2295 98.5965 13.2295C100.774 13.236 102.518 13.9049 103.829 15.2393Z" fill="white"/>
<path id="Vector_4" d="M115.508 11.5054V18.7381H126.413V22.4726H115.508V31.5742H111.315V7.80371H127.8V11.5054H115.508Z" fill="white"/>
<path id="Vector_5" d="M134.026 30.6232C132.629 29.8298 131.538 28.7281 130.751 27.3117C129.967 25.8986 129.574 24.2953 129.574 22.5052C129.574 20.7183 129.967 19.1216 130.751 17.7183C131.534 16.315 132.626 15.2167 134.026 14.4232C135.423 13.6298 136.993 13.2363 138.738 13.2363C140.502 13.2363 142.082 13.633 143.479 14.4232C144.875 15.2167 145.967 16.315 146.754 17.7183C147.538 19.1216 147.931 20.7183 147.931 22.5052C147.931 24.2953 147.538 25.8953 146.754 27.3117C145.967 28.7281 144.879 29.8298 143.479 30.6232C142.082 31.4167 140.498 31.8101 138.738 31.8101C136.993 31.8101 135.423 31.4167 134.026 30.6232ZM142.413 26.6167C143.38 25.574 143.866 24.2068 143.866 22.5085C143.866 20.8101 143.38 19.4396 142.413 18.4003C141.446 17.3576 140.22 16.8396 138.734 16.8396C137.249 16.8396 136.029 17.3609 135.072 18.4003C134.115 19.4429 133.636 20.8101 133.636 22.5085C133.636 24.2068 134.115 25.5773 135.072 26.6167C136.029 27.6593 137.249 28.1773 138.734 28.1773C140.22 28.1773 141.446 27.656 142.413 26.6167Z" fill="white"/>
<path id="Vector_6" d="M161.767 13.2363V17.2789C161.423 17.2101 161.111 17.1773 160.833 17.1773C159.262 17.1773 158.036 17.6593 157.154 18.6199C156.272 19.5839 155.833 20.9675 155.833 22.7806V31.5773H151.8V13.4429H155.639V16.0921C156.8 14.1871 158.842 13.2363 161.767 13.2363Z" fill="white"/>
<path id="Vector_7" d="M168.125 30.6232C166.705 29.8298 165.597 28.7281 164.803 27.3117C164.007 25.8986 163.61 24.2953 163.61 22.5052C163.61 20.7183 164.007 19.1216 164.803 17.7183C165.6 16.315 166.702 15.2167 168.108 14.4232C169.518 13.6298 171.125 13.2363 172.931 13.2363C174.63 13.2363 176.118 13.6003 177.4 14.3216C178.679 15.0462 179.643 16.0888 180.289 17.4462L177.19 19.3478C176.695 18.5117 176.079 17.8822 175.334 17.4626C174.593 17.0429 173.78 16.833 172.898 16.833C171.393 16.833 170.144 17.3478 169.157 18.3773C168.167 19.4068 167.672 20.7839 167.672 22.5019C167.672 24.2232 168.161 25.597 169.141 26.6265C170.118 27.656 171.371 28.1708 172.898 28.1708C173.78 28.1708 174.593 27.9609 175.334 27.5412C176.075 27.1216 176.695 26.4953 177.19 25.656L180.289 27.5576C179.623 28.915 178.649 29.9642 177.371 30.6986C176.092 31.4331 174.613 31.8035 172.934 31.8035C171.144 31.8101 169.544 31.4167 168.125 30.6232Z" fill="white"/>
<path id="Vector_8" d="M199.643 23.8662H186.125C186.361 25.2006 186.98 26.2596 187.98 27.04C188.98 27.8203 190.223 28.2104 191.705 28.2104C193.597 28.2104 195.157 27.5547 196.384 26.24L198.544 28.8531C197.771 29.8268 196.79 30.5613 195.61 31.0596C194.426 31.558 193.095 31.8072 191.61 31.8072C189.718 31.8072 188.049 31.4104 186.61 30.6203C185.167 29.8268 184.056 28.7252 183.272 27.3088C182.489 25.8957 182.095 24.2924 182.095 22.5023C182.095 20.735 182.476 19.1449 183.239 17.7318C184.003 16.3186 185.062 15.2137 186.417 14.4203C187.771 13.6268 189.298 13.2334 190.997 13.2334C192.676 13.2334 194.174 13.6236 195.498 14.4039C196.82 15.1842 197.853 16.2826 198.597 17.699C199.338 19.1154 199.708 20.7514 199.708 22.6072C199.705 22.9022 199.685 23.3219 199.643 23.8662ZM187.721 17.8367C186.83 18.64 186.285 19.7088 186.092 21.0465H195.866C195.692 19.735 195.167 18.6695 194.285 17.8531C193.403 17.0367 192.305 16.6301 190.994 16.6301C189.705 16.6334 188.613 17.0334 187.721 17.8367Z" fill="white"/>
</g>
<g id="Group_3">
<path id="Vector_9" d="M19.8459 39.6918C30.8065 39.6918 39.6918 30.8065 39.6918 19.8459C39.6918 8.88532 30.8065 0 19.8459 0C8.88531 0 0 8.88532 0 19.8459C0 30.8065 8.88531 39.6918 19.8459 39.6918Z" fill="white"/>
<g id="Group_4">
<path id="Vector_10" d="M15.5608 17.2358C16.1674 17.2358 16.6591 16.744 16.6591 16.1374C16.6591 15.5308 16.1674 15.0391 15.5608 15.0391C14.9542 15.0391 14.4624 15.5308 14.4624 16.1374C14.4624 16.744 14.9542 17.2358 15.5608 17.2358Z" fill="#1C224A"/>
<path id="Vector_11" d="M20.0754 17.2358C20.682 17.2358 21.1738 16.744 21.1738 16.1374C21.1738 15.5308 20.682 15.0391 20.0754 15.0391C19.4688 15.0391 18.9771 15.5308 18.9771 16.1374C18.9771 16.744 19.4688 17.2358 20.0754 17.2358Z" fill="#1C224A"/>
<path id="Vector_12" d="M24.5871 17.2358C25.1937 17.2358 25.6855 16.744 25.6855 16.1374C25.6855 15.5308 25.1937 15.0391 24.5871 15.0391C23.9805 15.0391 23.4888 15.5308 23.4888 16.1374C23.4888 16.744 23.9805 17.2358 24.5871 17.2358Z" fill="#1C224A"/>
<path id="Vector_13" d="M15.5608 21.6948C16.1674 21.6948 16.6591 21.203 16.6591 20.5964C16.6591 19.9898 16.1674 19.498 15.5608 19.498C14.9542 19.498 14.4624 19.9898 14.4624 20.5964C14.4624 21.203 14.9542 21.6948 15.5608 21.6948Z" fill="#1C224A"/>
<path id="Vector_14" d="M15.5608 26.1176C16.1674 26.1176 16.6591 25.6259 16.6591 25.0193C16.6591 24.4127 16.1674 23.9209 15.5608 23.9209C14.9542 23.9209 14.4624 24.4127 14.4624 25.0193C14.4624 25.6259 14.9542 26.1176 15.5608 26.1176Z" fill="#1C224A"/>
<path id="Vector_15" d="M20.0754 21.6948C20.682 21.6948 21.1738 21.203 21.1738 20.5964C21.1738 19.9898 20.682 19.498 20.0754 19.498C19.4688 19.498 18.9771 19.9898 18.9771 20.5964C18.9771 21.203 19.4688 21.6948 20.0754 21.6948Z" fill="#1C224A"/>
<path id="Vector_16" d="M24.5871 21.6948C25.1937 21.6948 25.6855 21.203 25.6855 20.5964C25.6855 19.9898 25.1937 19.498 24.5871 19.498C23.9805 19.498 23.4888 19.9898 23.4888 20.5964C23.4888 21.203 23.9805 21.6948 24.5871 21.6948Z" fill="#1C224A"/>
</g>
</g>
</g>
</g>
<defs>
<clipPath id="clip0_493_1004">
<rect width="200" height="40" fill="white"/>
</clipPath>
</defs>
</svg>
