<svg width="24" height="24" viewBox="0 0 24 24" fill="none" xmlns="http://www.w3.org/2000/svg">
<path fill-rule="evenodd" clip-rule="evenodd" d="M4.71429 10.5356C3.62944 10.5356 2.75 11.4151 2.75 12.4999C2.75 13.5848 3.62944 14.4642 4.71429 14.4642C5.79913 14.4642 6.67857 13.5848 6.67857 12.4999C6.67857 11.4151 5.79913 10.5356 4.71429 10.5356ZM1.25 12.4999C1.25 10.5867 2.80101 9.03564 4.71429 9.03564C6.62756 9.03564 8.17857 10.5867 8.17857 12.4999C8.17857 14.4132 6.62756 15.9642 4.71429 15.9642C2.80101 15.9642 1.25 14.4132 1.25 12.4999Z" fill="white" stroke="white" stroke-width="0.6"/>
<path fill-rule="evenodd" clip-rule="evenodd" d="M18.2856 3.75C17.2007 3.75 16.3213 4.62944 16.3213 5.71429C16.3213 6.79913 17.2007 7.67857 18.2856 7.67857C19.3704 7.67857 20.2499 6.79913 20.2499 5.71429C20.2499 4.62944 19.3704 3.75 18.2856 3.75ZM14.8213 5.71429C14.8213 3.80101 16.3723 2.25 18.2856 2.25C20.1988 2.25 21.7499 3.80101 21.7499 5.71429C21.7499 7.62756 20.1988 9.17857 18.2856 9.17857C16.3723 9.17857 14.8213 7.62756 14.8213 5.71429Z" fill="white" stroke="white" stroke-width="0.6"/>
<path fill-rule="evenodd" clip-rule="evenodd" d="M18.2856 17.3213C17.2007 17.3213 16.3213 18.2007 16.3213 19.2856C16.3213 20.3704 17.2007 21.2499 18.2856 21.2499C19.3704 21.2499 20.2499 20.3704 20.2499 19.2856C20.2499 18.2007 19.3704 17.3213 18.2856 17.3213ZM14.8213 19.2856C14.8213 17.3723 16.3723 15.8213 18.2856 15.8213C20.1988 15.8213 21.7499 17.3723 21.7499 19.2856C21.7499 21.1988 20.1988 22.7499 18.2856 22.7499C16.3723 22.7499 14.8213 21.1988 14.8213 19.2856Z" fill="white" stroke="white" stroke-width="0.6"/>
<path fill-rule="evenodd" clip-rule="evenodd" d="M16.2194 6.69351C16.4281 7.0513 16.3073 7.51054 15.9495 7.71925L8.17871 12.2522V12.7478L15.9495 17.2807C16.3073 17.4894 16.4281 17.9487 16.2194 18.3065C16.0107 18.6642 15.5515 18.7851 15.1937 18.5764L7.10042 13.8553C6.83928 13.703 6.67871 13.4234 6.67871 13.1211V11.8788C6.67871 11.5765 6.83929 11.297 7.10042 11.1446L15.1937 6.42358C15.5515 6.21487 16.0107 6.33572 16.2194 6.69351Z" fill="white" stroke="white" stroke-width="0.6" stroke-linecap="round"/>
</svg>
