<svg width="337" height="362" viewBox="0 0 337 362" fill="none" xmlns="http://www.w3.org/2000/svg">
<path d="M181.194 362.001C266.812 362.001 336.219 352.032 336.219 339.734C336.219 327.437 266.812 317.467 181.194 317.467C95.5756 317.467 26.1685 327.437 26.1685 339.734C26.1685 352.032 95.5756 362.001 181.194 362.001Z" fill="#6C6C6C"/>
<path d="M264.443 261.716C251.875 273.693 229.102 294.104 212.234 301.105C207.595 303.045 204.558 307.768 205.064 312.744C207.679 339.06 248.923 366.472 291.433 333.662C316.905 314.01 309.736 281.706 296.409 264.078C288.65 253.872 273.636 252.86 264.443 261.716Z" fill="#00B390"/>
<path d="M265.117 33.6471C265.117 33.6471 215.775 1.93358 164.831 0.078001C113.803 -1.69323 64.6299 26.8152 41.9412 73.9637C19.2526 121.112 52.0626 170.876 51.7252 227.218C51.4722 283.56 82.0048 329.359 142.986 323.539C203.967 317.719 206.076 276.475 260.984 240.375C315.892 204.276 375.439 111.834 265.117 33.6471Z" fill="#F3A600"/>
<path d="M95.5 42.0824C95.5 42.0824 45.9055 67.3857 21.1082 106.353C-3.68907 145.32 -1.74915 195.421 28.3618 232.617C58.4728 269.812 115.911 265.005 164.072 288.537C212.233 312.069 265.285 307.261 288.058 257.329C310.831 207.398 276.419 188.757 270.599 130.897C264.779 73.0368 212.739 -11.4763 95.5 42.0824Z" fill="white"/>
<g opacity="0.7" filter="url(#filter0_d_235_1385)">
<path d="M95.5 42.0824C95.5 42.0824 45.9055 67.3857 21.1082 106.353C-3.68907 145.32 -1.74915 195.421 28.3618 232.617C58.4728 269.812 115.911 265.005 164.072 288.537C212.233 312.069 265.285 307.261 288.058 257.329C310.831 207.398 276.419 188.757 270.599 130.897C264.779 73.0368 212.739 -11.4763 95.5 42.0824Z" fill="#E0F7FF"/>
</g>
<path d="M66.907 242.904C68.847 242.229 72.3894 239.024 72.3894 239.024C72.3894 239.024 69.6061 237.337 69.353 237.337C67.1601 236.41 62.3524 235.903 60.5812 238.012C59.4847 239.362 59.7378 241.386 61.0873 242.482C61.1716 242.567 61.256 242.651 61.3403 242.651C62.8585 243.747 65.2201 243.494 66.907 242.904Z" fill="#45E2C3"/>
<path d="M103.176 212.121C103.261 212.121 101.742 209.169 101.574 209C100.309 207.06 96.5131 203.939 93.8984 204.698C92.2115 205.205 91.2837 206.976 91.7898 208.747C91.7898 208.831 91.8741 209 91.9585 209C92.6332 210.771 94.7418 211.868 96.4287 212.289C98.5373 212.796 103.176 212.121 103.176 212.121Z" fill="#45E2C3"/>
<path d="M77.1978 252.016C78.8847 250.92 81.2463 247.208 81.415 246.955C83.5236 248.305 85.7166 249.486 87.9939 250.498C89.2591 251.173 90.6086 251.679 92.0424 252.269C91.3677 252.1 90.8616 252.016 90.7772 252.016C88.4156 251.763 83.608 252.522 82.5115 254.968C81.8367 256.571 82.5115 258.51 84.1984 259.101C84.3671 259.185 84.4514 259.185 84.5358 259.27C86.307 259.944 88.4999 259.017 90.0181 258.089C91.5363 257.077 93.5606 253.956 94.0667 253.112L95.6692 253.787C98.1996 254.799 100.646 255.727 103.176 256.824C104.019 257.161 104.863 257.583 105.706 258.004C105.116 257.836 104.61 257.751 104.525 257.751C102.164 257.498 97.3561 258.257 96.2596 260.703C95.5849 262.306 96.2596 264.246 97.9465 264.836C98.1152 264.921 98.1996 264.921 98.2839 265.005C100.055 265.68 102.248 264.752 103.766 263.824C105.284 262.812 107.14 260.029 107.815 259.017C108.658 259.438 109.502 259.86 110.345 260.282C110.936 260.535 111.442 260.872 111.948 261.21L113.55 262.222C114.478 262.896 115.49 263.571 116.418 264.33C117.093 264.836 117.683 265.258 118.274 265.68C117.43 265.342 115.743 264.583 115.575 264.499C113.297 263.824 108.405 263.824 106.887 266.186C105.959 267.704 106.381 269.644 107.815 270.572C107.899 270.656 108.068 270.74 108.068 270.74C109.755 271.668 112.032 271.162 113.635 270.403C115.406 269.644 118.189 266.355 118.527 266.017C119.539 266.776 120.551 267.535 121.479 268.21C124.093 270.319 126.371 272.259 128.058 273.692L129.323 272.512C127.551 270.993 125.274 269.054 122.406 267.029C121.394 266.27 120.298 265.427 119.117 264.583C119.707 263.402 120.298 262.137 120.72 260.872C122.744 261.125 126.539 260.029 127.045 259.86C127.467 261.041 127.889 262.222 128.226 263.402C129.238 266.523 130.082 269.307 130.672 271.5L132.106 270.234C131.431 268.21 130.757 265.764 129.744 262.896C129.323 261.716 128.817 260.366 128.311 259.017C128.732 258.764 132.359 256.655 133.54 254.968C134.636 253.534 135.48 251.426 134.974 249.486C134.468 247.799 132.781 246.787 131.01 247.293C130.925 247.293 130.757 247.377 130.757 247.377C128.311 248.474 127.298 253.197 127.551 255.558C127.551 255.727 127.889 257.245 128.142 258.173C127.889 257.583 127.72 257.077 127.467 256.486C127.045 255.39 126.539 254.378 126.118 253.112C125.865 252.522 125.612 251.932 125.358 251.426C125.105 250.919 124.768 250.245 124.515 249.739C123.84 248.474 122.997 247.124 122.238 245.774C123.166 245.437 126.624 244.003 127.804 242.654C128.985 241.389 130.335 239.364 129.997 237.509C129.744 235.822 128.226 234.472 126.455 234.725C126.286 234.725 126.202 234.725 126.118 234.81C123.503 235.484 121.816 240.039 121.647 242.401C121.647 242.569 121.732 244.256 121.816 245.184C121.31 244.425 120.804 243.582 120.298 242.907C118.78 240.714 117.177 238.521 115.575 236.328C115.068 235.653 114.562 234.978 114.141 234.304C114.478 234.135 118.527 232.617 119.96 231.183C121.141 229.918 122.491 227.893 122.153 226.038C121.9 224.351 120.382 223.001 118.611 223.255C118.442 223.255 118.358 223.255 118.274 223.339C115.659 224.014 113.972 228.568 113.803 230.93C113.803 231.183 113.972 233.545 114.056 234.219C112.96 232.701 111.948 231.183 110.936 229.749C109.67 227.725 108.405 225.616 107.393 223.423C107.562 223.339 111.779 221.736 113.297 220.302C114.478 219.037 115.828 217.013 115.49 215.157C115.237 213.471 113.719 212.121 111.948 212.374C111.779 212.374 111.695 212.374 111.61 212.458C108.996 213.133 107.309 217.688 107.14 220.049C107.14 220.218 107.224 222.158 107.309 223.001L107.14 223.086C106.128 220.893 105.369 218.616 104.778 216.254C104.441 214.989 104.188 213.639 104.019 212.458C104.778 212.205 108.574 211.193 110.008 210.012C111.442 208.832 112.875 207.06 112.791 205.12C112.791 203.349 111.357 202 109.586 202C109.417 202 109.333 202 109.249 202C106.634 202.337 104.357 206.723 104.019 209.085C104.019 209.253 103.935 210.519 103.851 211.531C103.766 210.94 103.598 210.35 103.598 209.844C103.345 207.819 103.176 205.964 103.092 204.361C103.007 203.434 103.007 202.59 103.007 201.747C103.682 201.072 106.465 198.457 107.14 196.77C107.815 195.083 108.321 192.806 107.393 191.204C106.634 189.601 104.694 189.095 103.092 189.854C103.007 189.938 102.839 190.023 102.839 190.023C100.646 191.625 100.73 196.433 101.405 198.71C101.489 198.963 102.754 201.831 102.839 201.831L102.923 201.747C102.923 202.506 102.923 203.349 103.007 204.277C103.092 205.964 103.176 207.819 103.429 209.759C103.682 211.868 104.019 214.145 104.525 216.254C105.031 218.7 105.791 220.977 106.718 223.255L106.803 223.339C106.297 222.748 104.778 221.146 104.694 221.062C102.923 219.459 98.4526 217.519 96.1753 218.953C94.6571 219.881 94.2354 221.905 95.2475 223.339C95.3318 223.423 95.4162 223.592 95.5005 223.592C96.6814 225.11 98.9587 225.616 100.73 225.616C102.754 225.616 106.718 223.845 107.056 223.676C108.068 225.954 109.249 228.146 110.598 230.339C111.357 231.52 112.201 232.785 112.96 234.051C112.538 233.545 112.116 233.123 112.032 233.038C110.261 231.436 105.791 229.496 103.513 230.93C101.995 231.858 101.573 233.882 102.585 235.316C102.67 235.4 102.754 235.569 102.839 235.569C104.019 237.087 106.297 237.593 108.068 237.593C109.839 237.593 113.297 236.159 114.225 235.737C114.478 236.159 114.9 236.665 115.153 237.171C116.755 239.364 118.274 241.642 119.707 243.835C120.213 244.594 120.72 245.437 121.226 246.196C120.804 245.774 120.466 245.437 120.466 245.353C118.695 243.75 114.225 241.81 111.948 243.244C110.43 244.172 110.008 246.196 111.02 247.63C111.104 247.714 111.189 247.883 111.273 247.883C112.454 249.401 114.731 249.907 116.502 249.907C118.274 249.907 121.479 248.642 122.491 248.136C122.997 248.895 123.419 249.823 123.84 250.582C124.093 251.173 124.431 251.679 124.599 252.269C124.768 252.859 125.105 253.45 125.274 253.956C125.696 255.052 126.118 256.149 126.539 257.245C126.792 257.92 127.13 258.679 127.298 259.438C126.792 258.679 125.78 257.161 125.612 256.992C124.178 255.39 122.406 254.293 120.382 253.619C120.213 253.365 120.129 253.281 119.876 253.112C118.611 251.932 116.587 252.1 115.406 253.365C115.321 253.45 115.237 253.534 115.153 253.619C113.635 255.811 115.406 260.366 116.924 262.222C117.008 262.39 118.105 263.402 118.78 264.077L117.261 263.149C116.334 262.475 115.321 261.884 114.225 261.125L112.622 260.113C112.116 259.776 111.442 259.438 110.936 259.185C109.67 258.511 108.321 257.836 106.887 257.245C107.477 256.402 109.502 253.365 109.923 251.594C110.261 249.823 110.176 247.546 108.911 246.112C107.73 244.762 105.791 244.594 104.441 245.774C104.357 245.859 104.272 245.943 104.188 246.028C102.417 247.967 103.513 252.775 104.694 254.799C104.778 254.968 105.791 256.318 106.381 257.077C105.538 256.739 104.694 256.402 103.851 255.98C101.32 254.968 98.8743 254.04 96.2596 253.112C95.5005 252.859 94.6571 252.522 93.9823 252.269C94.2354 252.016 96.6814 248.389 97.1031 246.449C97.4405 244.678 97.3561 242.401 96.0909 240.967C94.9101 239.617 92.9702 239.449 91.6207 240.629C91.5363 240.714 91.452 240.798 91.3677 240.882C89.5964 242.822 90.6929 247.63 91.8737 249.654C91.9581 249.823 93.4763 251.763 93.8136 252.269C92.1268 251.594 90.4399 251.004 88.8373 250.245C86.6444 249.317 84.4514 248.136 82.4271 246.955C82.5115 246.787 85.1262 243.075 85.5479 241.051C85.8853 239.28 85.8009 237.003 84.5358 235.569C83.3549 234.219 81.415 234.051 80.0655 235.231C79.9812 235.316 79.8968 235.4 79.8125 235.484C78.0412 237.424 79.1377 242.232 80.3185 244.256C80.4029 244.425 81.4994 245.943 82.0898 246.618L82.0054 246.787C79.8968 245.521 77.9569 244.003 76.1857 242.316C75.1735 241.389 74.2457 240.545 73.4023 239.617C73.9927 238.943 76.523 236.075 77.0291 234.219C77.6195 232.448 77.7039 230.171 76.6917 228.653C75.6796 227.219 73.7397 226.797 72.2215 227.809C72.1371 227.893 72.0528 227.978 71.9684 228.062C69.9442 229.833 70.5346 234.641 71.4624 236.834C71.5467 237.003 72.1371 238.099 72.6432 238.943C72.3058 238.521 71.8841 238.099 71.4624 237.762C70.1972 236.244 68.932 234.725 67.9199 233.46C67.3295 232.701 66.8234 232.026 66.4017 231.352C66.6547 230.424 67.4982 226.713 67.1608 224.941C66.9078 223.17 65.98 220.977 64.2087 220.134C62.6905 219.29 60.7506 219.881 59.9072 221.315C59.8228 221.399 59.8228 221.568 59.7385 221.568C58.8107 224.098 61.5097 228.062 63.3653 229.58C63.534 229.749 66.3174 231.436 66.3174 231.436V231.352C66.7391 232.026 67.1608 232.617 67.7512 233.46C68.7633 234.725 69.8598 236.328 71.125 237.846C72.5589 239.533 74.077 241.136 75.5952 242.654C77.3665 244.341 79.3064 245.859 81.3307 247.208L81.415 247.293C80.6559 247.04 78.5473 246.618 78.2943 246.534C75.9326 246.281 71.125 247.04 70.0285 249.486C69.3538 251.088 70.0285 253.028 71.7154 253.619C71.8841 253.703 71.9684 253.703 72.0528 253.787C73.4866 253.872 75.6796 253.028 77.1978 252.016Z" fill="#45E2C3"/>
<path d="M199.752 85.8584C201.186 88.22 206.162 91.6781 206.162 91.6781C206.162 91.6781 207.427 87.6296 207.427 87.3766C208.018 84.2558 207.174 78.0987 204.138 76.4118C202.029 75.3997 199.668 76.2431 198.656 78.2674C198.571 78.436 198.487 78.5204 198.487 78.6891C197.643 80.9664 198.571 83.8341 199.752 85.8584Z" fill="#45E2C3"/>
<path d="M249.345 122.881C249.345 122.965 252.635 120.266 252.803 120.013C254.912 117.736 257.78 112.169 256.093 109.048C254.912 107.108 252.466 106.434 250.442 107.53C250.273 107.614 250.189 107.699 250.104 107.783C248.08 109.133 247.321 112.085 247.152 114.446C246.983 117.23 249.345 122.881 249.345 122.881Z" fill="#45E2C3"/>
<path d="M191.232 101.46C193.087 103.231 198.485 105.171 198.907 105.34C197.811 108.461 196.967 111.581 196.293 114.702C195.871 116.558 195.618 118.413 195.196 120.269C195.196 119.425 195.196 118.582 195.196 118.498C194.943 115.377 192.581 109.641 189.123 108.798C186.93 108.376 184.737 109.81 184.316 112.087C184.316 112.256 184.231 112.34 184.231 112.509C183.978 114.955 185.665 117.485 187.352 119.088C189.039 120.691 193.594 122.462 194.774 122.884C194.606 123.558 194.521 124.317 194.437 124.992C193.847 128.535 193.34 131.908 192.75 135.282C192.497 136.463 192.244 137.644 192.075 138.825C192.075 138.066 192.075 137.391 192.075 137.222C191.822 134.101 189.461 128.366 186.003 127.522C183.81 127.101 181.617 128.535 181.195 130.812C181.195 130.981 181.111 131.065 181.111 131.234C180.858 133.68 182.46 136.21 184.231 137.813C185.918 139.499 190.051 140.933 191.485 141.439C191.232 142.62 190.895 143.801 190.557 144.982C190.304 145.741 190.135 146.5 189.882 147.259L189.039 149.536C188.448 150.97 187.858 152.404 187.352 153.754C186.93 154.681 186.593 155.609 186.171 156.537C186.424 155.356 186.846 152.995 186.846 152.826C187.099 149.705 185.581 143.548 182.376 142.367C180.267 141.608 177.905 142.704 177.062 144.897C176.978 145.066 176.978 145.15 176.893 145.319C176.219 147.681 177.568 150.38 179.002 152.235C180.604 154.26 185.412 156.874 185.918 157.212C185.243 158.73 184.569 160.164 183.894 161.513C181.954 165.562 180.267 168.851 178.918 171.382L180.773 172.731C182.123 170.116 183.894 166.574 185.749 162.357C186.424 160.839 187.183 159.236 187.858 157.465C189.545 157.886 191.316 158.14 193.003 158.393C193.34 161.007 195.702 165.477 196.124 166.068C194.774 166.911 193.34 167.755 192.075 168.598C188.364 170.791 185.159 172.647 182.544 173.996L184.653 175.514C187.015 174.165 189.967 172.394 193.172 170.454C194.606 169.61 196.124 168.598 197.642 167.586C198.064 168.092 201.775 172.056 204.221 173.068C206.33 173.996 209.282 174.502 211.475 173.322C213.499 172.225 214.258 169.779 213.161 167.755C213.077 167.586 212.993 167.502 212.908 167.417C210.8 164.634 204.643 164.718 201.606 165.731C201.438 165.815 199.582 166.574 198.485 167.164C199.16 166.743 199.666 166.321 200.341 165.899C201.606 165.056 202.871 164.128 204.221 163.2L206.161 161.682C206.836 161.176 207.426 160.586 208.101 160.079C209.535 158.814 210.968 157.465 212.402 156.031C213.161 157.127 215.945 161.007 217.885 162.272C219.909 163.453 222.777 164.465 225.054 163.538C227.163 162.778 228.343 160.417 227.584 158.308C227.5 158.14 227.5 158.055 227.416 157.886C225.813 154.766 219.572 153.922 216.535 154.428C216.282 154.428 214.174 155.103 212.993 155.441C213.836 154.597 214.68 153.754 215.523 152.826C217.885 150.211 220.162 147.596 222.439 144.982C223.114 144.223 223.873 143.295 224.548 142.536C224.801 142.873 228.006 147.596 230.199 148.946C232.139 150.127 235.091 151.139 237.368 150.211C239.477 149.452 240.658 147.09 239.899 144.982C239.814 144.813 239.814 144.729 239.73 144.56C238.127 141.439 231.886 140.596 228.85 141.102C228.596 141.102 225.476 142.03 224.717 142.283C226.319 140.512 227.837 138.74 229.524 137.138C231.717 134.945 233.995 132.752 236.441 130.812C236.609 131.065 239.899 135.873 242.092 137.306C244.031 138.487 246.984 139.499 249.261 138.572C251.369 137.813 252.55 135.451 251.791 133.342C251.707 133.174 251.707 133.089 251.623 132.921C250.02 129.8 243.778 128.956 240.742 129.462C240.489 129.462 238.127 130.137 237.031 130.559L236.947 130.39C239.477 128.45 242.176 126.848 244.959 125.414C246.562 124.655 248.08 123.896 249.514 123.305C250.02 124.317 252.466 128.788 254.406 130.137C256.346 131.571 258.96 132.836 261.322 132.246C263.515 131.74 264.865 129.547 264.443 127.269C264.443 127.101 264.359 127.016 264.274 126.848C263.093 123.558 256.936 122.04 253.815 122.293C253.647 122.293 251.96 122.546 250.695 122.799C251.369 122.546 252.044 122.209 252.719 122.04C255.165 121.112 257.527 120.353 259.551 119.847C260.732 119.51 261.744 119.172 262.756 119.004C263.768 119.678 267.817 122.462 270.178 122.884C272.54 123.305 275.492 123.137 277.263 121.534C278.95 120.016 279.203 117.485 277.685 115.714C277.601 115.546 277.432 115.461 277.432 115.461C274.817 113.184 268.66 114.618 266.045 116.136C265.792 116.305 262.503 118.835 262.503 118.835L262.587 118.919C261.659 119.172 260.563 119.425 259.467 119.678C257.358 120.269 255.081 120.859 252.635 121.787C249.936 122.715 247.321 123.811 244.791 125.077C241.923 126.426 239.14 128.113 236.525 129.968L236.441 130.053C237.031 129.294 238.633 126.932 238.802 126.679C240.236 123.98 241.501 117.823 239.055 115.293C237.368 113.69 234.838 113.69 233.151 115.377C233.067 115.461 232.898 115.63 232.898 115.63C231.295 117.485 231.295 120.606 231.802 122.799C232.392 125.414 235.85 129.884 236.103 130.222C233.488 132.161 231.042 134.27 228.765 136.632C227.416 137.897 226.15 139.331 224.717 140.68C225.223 140.005 225.644 139.331 225.729 139.162C227.163 136.463 228.428 130.306 225.982 127.776C224.295 126.173 221.765 126.173 220.162 127.86C220.078 128.029 219.909 128.113 219.909 128.197C218.306 130.053 218.306 133.089 218.813 135.367C219.319 137.644 222.186 141.608 222.945 142.62L221.427 144.307C219.066 146.922 216.704 149.536 214.342 151.982C213.499 152.826 212.655 153.669 211.728 154.597C212.149 153.922 212.487 153.416 212.571 153.332C214.005 150.633 215.27 144.476 212.824 141.945C211.137 140.343 208.607 140.343 206.92 142.03C206.836 142.114 206.667 142.283 206.667 142.367C205.064 144.223 205.064 147.343 205.57 149.536C206.076 151.814 208.691 155.441 209.619 156.621C208.691 157.465 207.848 158.308 206.92 159.067C206.245 159.573 205.739 160.079 205.064 160.586L203.124 162.019C201.859 162.863 200.51 163.791 199.329 164.634C198.485 165.224 197.642 165.731 196.714 166.321C197.558 165.477 199.245 163.706 199.329 163.622C200.931 161.429 201.859 158.73 202.112 156.031C202.365 155.778 202.45 155.525 202.618 155.272C203.715 153.248 202.956 150.802 200.931 149.705C200.763 149.621 200.678 149.536 200.51 149.452C197.22 148.271 192.075 151.814 190.135 154.26C189.967 154.428 188.955 156.115 188.28 157.212C188.533 156.537 188.87 155.862 189.123 155.103C189.714 153.669 190.304 152.235 190.81 150.717C191.063 149.958 191.316 149.199 191.569 148.44C191.822 147.681 191.991 146.837 192.244 146.078C192.75 144.223 193.172 142.283 193.594 140.343C194.774 140.849 199.245 142.536 201.606 142.451C203.968 142.367 206.836 141.608 208.269 139.584C209.619 137.813 209.282 135.198 207.51 133.764C207.342 133.68 207.257 133.595 207.173 133.511C204.137 131.824 198.485 134.523 196.208 136.632C196.039 136.8 194.521 138.487 193.847 139.415C194.1 138.234 194.268 137.053 194.521 135.873C195.112 132.414 195.533 128.956 196.04 125.414C196.208 124.317 196.293 123.305 196.461 122.209C196.883 122.462 202.112 124.57 204.727 124.402C207.004 124.317 209.956 123.558 211.39 121.534C212.74 119.763 212.402 117.148 210.631 115.714C210.462 115.63 210.378 115.546 210.294 115.461C207.257 113.774 201.606 116.473 199.329 118.582C199.16 118.751 197.052 121.197 196.546 121.871C196.883 119.51 197.22 117.232 197.726 114.955C198.317 111.834 199.076 108.798 200.088 105.846C200.341 105.93 205.739 108.208 208.354 108.123C210.631 108.039 213.583 107.28 215.017 105.256C216.367 103.484 216.029 100.785 214.258 99.4358C214.089 99.3514 214.005 99.2671 213.921 99.1827C210.884 97.4959 205.233 100.195 202.956 102.304C202.787 102.472 201.185 104.328 200.425 105.256L200.257 105.171C201.353 102.135 202.618 99.2671 204.221 96.5681C205.064 95.0499 205.908 93.616 206.836 92.2665C207.848 92.7726 212.318 95.1342 214.68 95.3872C216.957 95.5559 219.993 95.1342 221.596 93.2786C223.198 91.5917 223.114 88.9771 221.427 87.4589C221.258 87.3745 221.174 87.2058 221.09 87.2058C218.222 85.1816 212.318 87.2902 209.872 89.1458C209.703 89.2301 208.438 90.4109 207.595 91.2544C208.016 90.664 208.438 90.0735 208.776 89.4831C210.294 87.3745 211.896 85.4346 213.246 83.8321C214.005 82.9043 214.764 82.1452 215.439 81.3017C216.62 81.3017 221.596 81.3861 223.789 80.4583C225.982 79.5305 228.343 77.8436 229.018 75.3976C229.693 73.2047 228.343 70.9274 226.15 70.3369C225.982 70.2526 225.897 70.2526 225.729 70.2526C222.271 69.7465 217.969 74.3011 216.62 77.0845C216.451 77.3375 215.101 81.3017 215.186 81.3017H215.27C214.595 81.9765 213.836 82.8199 213.161 83.6634C211.728 85.3503 210.125 87.1215 208.607 89.2301C206.92 91.5074 205.233 93.8691 203.799 96.315C202.112 99.0141 200.678 101.882 199.666 104.918L199.582 105.087C199.666 104.075 199.751 101.207 199.666 101.038C199.413 97.9176 197.052 92.1822 193.594 91.3387C191.401 90.917 189.208 92.3509 188.786 94.6282C188.786 94.7968 188.702 94.8812 188.702 95.0499C187.858 97.4115 189.461 99.8575 191.232 101.46Z" fill="#45E2C3"/>
<path d="M230.788 216.841V214.648C230.788 203.346 245.126 202.84 245.126 194.827C245.126 191.284 242.259 189.007 238.041 189.007C233.403 189.007 230.45 191.537 230.45 195.08V196.008C230.45 196.851 229.944 197.273 229.101 197.273L220.413 196.935C219.654 196.935 219.064 196.514 219.064 195.923V194.995C219.064 185.212 226.908 178.38 238.294 178.38C249.512 178.38 256.766 184.79 256.766 194.236C256.766 207.732 242.259 207.816 242.259 215.238V216.672C242.343 217.347 241.837 217.937 241.162 218.022C241.078 218.022 240.909 218.022 240.909 218.022H232.306C231.631 218.106 231.041 217.6 230.957 216.925C230.788 217.009 230.788 216.841 230.788 216.841ZM230.029 229.914C230.029 226.372 233.149 223.42 237.029 223.42C240.656 223.42 243.946 226.372 243.946 229.914C243.946 233.457 240.656 236.409 236.945 236.409C233.318 236.409 230.029 233.457 230.029 229.914Z" fill="#1A1A1A"/>
<path d="M59.0657 123.723V121.783C59.0657 111.999 71.5487 111.578 71.5487 104.493C71.5487 101.456 69.1027 99.5164 65.3915 99.5164C61.343 99.5164 58.8126 101.709 58.8126 104.83V105.589C58.8126 106.348 58.3909 106.77 57.6318 106.77L50.1252 106.517C49.4504 106.517 48.9443 106.18 48.9443 105.674V104.914C48.9443 96.3957 55.7762 90.4916 65.7289 90.4916C75.4285 90.4916 81.7543 95.974 81.7543 104.24C81.7543 115.964 69.1027 116.048 69.1027 122.458V123.723C69.187 124.314 68.7653 124.904 68.1749 124.904C68.0905 124.904 68.0062 124.904 67.9218 124.904H60.4152C59.8248 124.988 59.2344 124.567 59.2344 123.976C59.0657 123.892 59.0657 123.808 59.0657 123.723ZM58.3909 135.025C58.3909 131.905 61.0899 129.374 64.4637 129.374C67.5845 129.374 70.4522 131.989 70.4522 135.025C70.4522 138.146 67.5845 140.677 64.3794 140.677C61.1743 140.761 58.4753 138.231 58.3909 135.025Z" fill="#696969"/>
<path d="M217.207 48.5741V47.6463C217.207 42.67 223.533 42.5013 223.533 38.8745C223.533 37.3563 222.352 36.3441 220.412 36.3441C218.388 36.3441 217.123 37.4406 217.123 38.9588V39.3805C217.123 39.7179 216.87 39.971 216.448 39.971L212.653 39.8023C212.315 39.8023 211.978 39.6336 211.978 39.3805V39.0432C211.978 34.7416 215.436 31.7052 220.412 31.7052C225.389 31.7052 228.51 34.4886 228.51 38.6214C228.51 44.5256 222.099 44.5256 222.099 47.815V48.4897C222.099 48.7428 221.931 49.0802 221.593 49.0802C221.509 49.0802 221.509 49.0802 221.425 49.0802H217.629C217.46 49.1645 217.207 48.9115 217.207 48.5741C217.207 48.6584 217.207 48.5741 217.207 48.5741ZM216.786 54.3095C216.617 52.6226 217.966 51.1888 219.653 51.0201C221.34 50.8514 222.774 52.2009 222.943 53.8878C223.111 55.5747 221.762 57.0085 220.075 57.1772C219.991 57.1772 219.906 57.1772 219.822 57.1772C218.22 57.1772 216.87 55.9121 216.786 54.3095Z" fill="#696969"/>
<path d="M33.1698 180.994V179.813C33.1698 173.572 41.0982 173.319 41.0982 168.848C41.0982 166.908 39.4957 165.643 37.134 165.643C34.5193 165.643 33.0011 166.993 33.0011 169.017V169.523C33.0011 170.029 32.7481 170.198 32.242 170.198L27.4344 170.029C27.0127 170.029 26.6753 169.776 26.6753 169.439V168.933C26.6753 163.45 30.9769 159.739 37.3027 159.739C43.5442 159.739 47.5084 163.282 47.5084 168.511C47.5084 175.933 39.4956 176.018 39.4956 180.15V180.91C39.58 181.247 39.2426 181.584 38.9052 181.669C38.8209 181.669 38.7365 181.669 38.7365 181.669H34.0133C33.6759 181.753 33.3385 181.5 33.1698 180.994ZM33.1698 180.994C33.1698 181.163 33.1698 181.078 33.1698 180.994ZM32.7481 188.248C32.5794 186.139 34.182 184.283 36.2906 184.199C38.3992 184.115 40.2547 185.633 40.3391 187.741C40.4234 189.85 38.9052 191.706 36.7966 191.79C36.7123 191.79 36.5436 191.79 36.5436 191.79C34.5193 191.959 32.8324 190.272 32.7481 188.248Z" stroke="#263238" stroke-miterlimit="10"/>
<path d="M93.4758 67.9746V67.1312C93.4758 62.8296 98.9582 62.6609 98.9582 59.6245C98.9582 58.3594 97.8617 57.4316 96.2591 57.4316C94.4879 57.4316 93.3914 58.3594 93.3914 59.7089V60.0463C93.3914 60.3836 93.1384 60.5523 92.8853 60.5523L89.5959 60.3836C89.3429 60.3836 89.0898 60.215 89.0898 60.0463V59.6245C89.0898 55.9134 92.0419 53.2987 96.4278 53.2987C100.814 53.2987 103.344 55.7447 103.344 59.2872C103.344 64.4322 97.8617 64.4322 97.8617 67.2155V67.8059C97.8617 68.059 97.693 68.312 97.44 68.312C97.3556 68.312 97.3556 68.312 97.2713 68.312H93.9818C93.6444 68.3964 93.3914 68.1433 93.4758 67.9746ZM93.1384 72.8666C93.054 71.4328 94.1505 70.2519 95.6687 70.0833C97.1026 69.9989 98.2834 71.0954 98.4521 72.6136C98.5364 74.0474 97.4399 75.2283 95.9217 75.3969C95.8374 75.3969 95.8374 75.3969 95.7531 75.3969C94.4036 75.3969 93.1384 74.3005 93.1384 72.8666Z" fill="#1A1A1A"/>
<path d="M190.386 247.542V246.699C190.386 242.397 195.869 242.228 195.869 239.192C195.869 237.927 194.772 236.999 193.17 236.999C191.399 236.999 190.302 237.927 190.302 239.276V239.614C190.302 239.951 190.049 240.12 189.796 240.12L186.507 239.951C186.254 239.951 186 239.782 186 239.614V239.276C186 235.565 188.953 232.951 193.338 232.951C197.724 232.951 200.339 235.397 200.339 238.939C200.339 244.084 194.857 244.084 194.857 246.867V247.458C194.857 247.711 194.688 247.964 194.435 247.964H194.351H191.061C190.724 248.048 190.471 247.795 190.386 247.542ZM190.386 247.542C190.386 247.626 190.386 247.626 190.386 247.542ZM190.133 252.518C190.049 251.085 191.146 249.904 192.664 249.735C194.098 249.651 195.278 250.747 195.447 252.265C195.531 253.699 194.435 254.88 192.917 255.049C192.832 255.049 192.832 255.049 192.748 255.049C191.314 255.049 190.218 253.952 190.133 252.518Z" stroke="#263238" stroke-miterlimit="10"/>
<path d="M164.746 262.476C164.662 262.307 164.662 262.223 164.577 262.054C164.493 261.885 164.493 261.801 164.409 261.632C164.324 261.464 164.324 261.379 164.24 261.21C164.155 261.042 164.155 260.957 164.071 260.789C163.987 260.62 163.987 260.536 163.902 260.367C163.818 260.198 163.818 260.114 163.734 259.945L163.565 259.524C163.481 259.355 163.481 259.271 163.396 259.102L163.228 258.68C163.143 258.511 163.143 258.427 163.059 258.258L162.89 257.837C162.806 257.668 162.806 257.584 162.722 257.415L162.553 256.993C162.469 256.825 162.469 256.74 162.384 256.572L162.216 256.15C162.131 255.981 162.131 255.897 162.047 255.728C161.963 255.559 161.963 255.475 161.878 255.306C161.794 255.138 161.794 255.053 161.71 254.885C161.625 254.716 161.625 254.632 161.541 254.463C159.432 247.968 152.769 243.245 145.515 243.245C138.515 243.245 132.358 247.294 129.743 253.113C129.659 253.282 129.574 253.366 129.49 253.535L129.321 253.957C129.237 254.126 129.153 254.21 129.068 254.379C128.984 254.547 128.9 254.632 128.815 254.8L128.646 255.222C128.562 255.391 128.478 255.475 128.393 255.644C128.309 255.812 128.225 255.897 128.14 256.065C128.056 256.234 127.972 256.318 127.887 256.487L127.719 256.909C127.634 257.078 127.55 257.162 127.466 257.331C127.381 257.499 127.297 257.584 127.213 257.752L127.044 258.174C126.96 258.343 126.875 258.427 126.791 258.596C126.707 258.764 126.622 258.849 126.538 259.018L126.369 259.439C126.285 259.608 126.2 259.692 126.116 259.861C126.032 260.03 125.947 260.114 125.863 260.283L125.694 260.704C125.61 260.873 125.526 260.957 125.441 261.126C125.357 261.295 125.273 261.379 125.188 261.548C124.008 263.909 123.501 266.524 123.501 269.223C123.501 279.766 132.611 288.369 143.913 288.369C154.962 288.369 164.493 279.766 164.493 269.223C164.493 267.199 164.155 265.175 163.396 263.319C164.83 262.813 164.746 262.644 164.746 262.476Z" fill="#263238"/>
<path d="M149.144 117.401C115.322 117.401 92.3804 137.306 92.3804 166.32V168.935C92.3804 169.778 92.8864 170.622 93.5612 171.044C93.7299 171.212 93.8142 171.297 93.9829 171.381C94.1516 171.55 94.2359 171.634 94.4046 171.718C94.5733 171.887 94.6577 171.971 94.8264 172.056C94.995 172.224 95.0794 172.309 95.2481 172.393C95.4168 172.562 95.5011 172.646 95.6698 172.73C95.8385 172.899 95.9228 172.984 96.0915 173.068C96.2602 173.237 96.3446 173.321 96.5132 173.405C96.6819 173.574 96.7663 173.658 96.935 173.743C97.1037 173.911 97.188 173.996 97.3567 174.08C97.5254 174.249 97.6941 174.333 97.8628 174.417C98.0314 174.586 98.1158 174.67 98.2845 174.755C98.4532 174.923 98.5375 175.008 98.7062 175.092C98.8749 175.261 98.9592 175.345 99.1279 175.43C99.2966 175.598 99.381 175.683 99.5496 175.767C99.7183 175.936 99.8027 176.02 99.9714 176.104C100.14 176.273 100.224 176.357 100.393 176.442C100.562 176.61 100.646 176.695 100.815 176.779C100.984 176.948 101.068 177.032 101.237 177.116C101.405 177.285 101.49 177.369 101.658 177.454C101.827 177.622 101.911 177.707 102.08 177.791C102.839 178.466 103.767 178.803 104.779 178.719L125.865 179.478C127.974 179.478 129.239 178.466 129.239 176.357V174.249C129.239 165.561 136.324 159.488 147.542 159.488C157.747 159.488 164.664 164.971 164.664 173.49C164.664 174.417 164.579 175.429 164.411 176.357C153.783 190.274 126.287 196.347 126.287 223.253V229.663C126.287 232.278 127.721 233.712 130.335 233.712H155.639C158.253 233.712 159.687 232.278 159.687 229.663V225.783C159.687 203.938 202.534 203.769 202.534 163.959C203.546 136.041 182.207 117.401 149.144 117.401Z" fill="#263238"/>
<path d="M127.131 230.17V223.759C127.131 190.443 169.303 189.009 169.303 165.224C169.303 154.934 160.953 148.187 148.47 148.187C134.806 148.187 126.203 155.609 126.203 166.152V168.767C126.203 171.381 124.769 172.647 122.155 172.647L96.5139 171.719C94.1522 171.719 92.4653 170.538 92.4653 168.851V166.236C92.4653 137.222 115.407 117.317 149.229 117.317C182.292 117.317 203.631 136.041 203.631 164.043C203.631 203.854 160.784 204.107 160.784 225.868V230.17C160.784 232.784 159.35 234.218 156.736 234.218H131.348C128.565 234.302 127.131 232.869 127.131 230.17Z" fill="#F3A600" stroke="#3A3A3A" stroke-miterlimit="10"/>
<path d="M124.936 268.884C124.936 258.341 134.214 249.738 145.516 249.738C156.312 249.738 165.927 258.426 165.927 268.884C165.927 279.343 156.312 288.031 145.347 288.031C134.045 287.946 124.936 279.343 124.936 268.884Z" fill="#F3A600" stroke="#383837" stroke-miterlimit="10"/>
<path d="M144.335 309.454C164.086 309.454 180.097 305.866 180.097 301.441C180.097 297.016 164.086 293.428 144.335 293.428C124.584 293.428 108.573 297.016 108.573 301.441C108.573 305.866 124.584 309.454 144.335 309.454Z" fill="#263238"/>
<path d="M180.351 45.8786C182.797 45.963 185.243 45.7099 187.605 45.2882" stroke="#263238" stroke-linecap="round" stroke-linejoin="round"/>
<path d="M115.489 120.354L114.055 123.559C114.055 123.559 105.621 124.487 105.621 125.078C105.621 125.668 105.705 130.138 106.127 130.223C106.548 130.391 106.886 130.391 107.223 130.223L119.706 127.017L120.887 121.366L115.489 120.354Z" fill="white" stroke="#263238" stroke-linecap="round" stroke-linejoin="round"/>
<path d="M113.128 126.007C111.61 127.272 109.923 128.368 108.152 129.38C106.212 130.308 106.128 131.658 106.718 131.658C107.309 131.658 113.044 129.296 113.044 129.296C113.044 129.296 118.189 127.946 118.948 127.525C119.707 127.103 119.792 124.826 119.792 124.826" fill="white"/>
<path d="M113.128 126.007C111.61 127.272 109.923 128.368 108.152 129.38C106.212 130.308 106.128 131.658 106.718 131.658C107.309 131.658 113.044 129.296 113.044 129.296C113.044 129.296 118.189 127.946 118.948 127.525C119.707 127.103 119.792 124.826 119.792 124.826" stroke="#263238" stroke-linecap="round" stroke-linejoin="round"/>
<path d="M122.91 59.3741L117.681 99.1847L114.139 120.777L122.067 122.632L128.14 97.0761L130.923 81.0507L122.91 59.3741Z" fill="#1C224A"/>
<path d="M164.746 30.5274L161.625 30.1057L155.215 27.5753L154.878 35.335L164.999 36.2628L164.746 30.5274Z" fill="white" stroke="#263238" stroke-linecap="round" stroke-linejoin="round"/>
<path d="M127.802 171.717C125.44 174.416 123.247 177.368 121.223 180.32C118.524 184.453 119.452 188.839 122.826 189.936C126.199 191.032 130.332 187.996 131.513 185.718C132.694 183.441 132.272 182.176 134.043 179.73C135.815 177.368 137.164 175.007 136.574 171.886C135.815 168.681 129.489 169.524 127.802 171.717Z" fill="#7D7D7D" stroke="#263238" stroke-linecap="round" stroke-linejoin="round"/>
<path d="M131.092 186.228C130.839 185.806 130.67 185.216 130.333 184.71C127.803 180.324 123.332 180.577 120.633 181.421C118.778 185.132 119.874 188.843 122.826 189.855C125.778 190.951 129.658 188.505 131.092 186.228Z" fill="white" stroke="#263238" stroke-linecap="round" stroke-linejoin="round"/>
<path d="M130.334 184.709C129.406 186.058 128.141 189.854 123.249 188.335C121.9 187.914 120.634 187.155 119.791 186.142C120.044 187.914 121.141 189.347 122.827 189.938C126.117 191.034 130.334 187.998 131.515 185.721C132.696 183.443 132.274 182.178 134.045 179.732C135.816 177.371 137.166 175.009 136.576 171.888C136.576 175.684 135.226 176.274 133.455 178.383C131.515 180.407 131.262 183.359 130.334 184.709Z" fill="white" stroke="#263238" stroke-linecap="round" stroke-linejoin="round"/>
<path d="M174.192 171.717C176.554 174.416 178.747 177.368 180.771 180.32C183.47 184.453 182.542 188.839 179.169 189.936C175.879 191.117 171.662 187.996 170.481 185.718C169.3 183.441 169.722 182.176 167.951 179.73C166.18 177.368 164.83 175.007 165.42 171.886C166.18 168.681 172.421 169.524 174.192 171.717Z" fill="#7D7D7D" stroke="#263238" stroke-linecap="round" stroke-linejoin="round"/>
<path d="M170.903 186.228C171.156 185.806 171.325 185.216 171.662 184.71C174.193 180.324 178.663 180.577 181.362 181.421C183.218 185.132 182.121 188.843 179.169 189.855C176.301 190.951 172.422 188.505 170.903 186.228Z" fill="white" stroke="#263238" stroke-linecap="round" stroke-linejoin="round"/>
<path d="M171.662 184.709C172.59 186.058 173.855 189.854 178.747 188.335C180.096 187.914 181.362 187.155 182.205 186.142C181.952 187.914 180.855 189.347 179.169 189.938C175.879 191.034 171.662 187.998 170.481 185.721C169.3 183.443 169.722 182.178 167.951 179.732C166.18 177.371 164.83 175.009 165.42 171.888C165.42 175.684 166.77 176.274 168.541 178.383C170.397 180.407 170.818 183.359 171.662 184.709Z" fill="white" stroke="#263238" stroke-linecap="round" stroke-linejoin="round"/>
<path d="M181.613 117.4C181.613 114.616 176.721 111.411 176.721 111.411C169.383 103.989 156.141 104.917 151.249 105.591C146.357 104.917 133.115 103.905 125.777 111.411C125.777 111.411 120.885 114.532 120.885 117.4C120.885 120.267 127.042 171.296 127.042 171.296C127.042 171.296 126.874 173.995 131.26 174.248C135.646 174.585 137.501 172.055 137.501 172.055L139.272 128.786C139.272 128.786 146.357 123.725 147.622 123.641C148.044 123.557 148.719 123.472 149.394 123.388V123.472C150.574 123.219 151.924 123.219 153.189 123.472C153.864 123.557 154.454 123.641 154.96 123.725C156.226 123.894 163.311 128.87 163.311 128.87L165.082 172.139C165.082 172.139 167.022 174.67 171.323 174.332C175.709 173.995 175.54 171.38 175.54 171.38C175.54 171.38 181.613 120.267 181.613 117.4Z" fill="#263238" stroke="#263238" stroke-linecap="round" stroke-linejoin="round"/>
<path d="M163.142 128.871C163.142 128.871 162.214 118.412 166.769 114.532" stroke="#707070" stroke-linecap="round" stroke-linejoin="round"/>
<path d="M139.275 128.872C139.275 128.872 139.697 120.185 138.853 117.064C137.925 113.943 136.323 112.678 136.323 112.678" stroke="#707070" stroke-linecap="round" stroke-linejoin="round"/>
<path d="M145.094 108.291C145.094 108.291 150.155 114.11 151.083 119.002" stroke="#707070" stroke-linecap="round" stroke-linejoin="round"/>
<path d="M156.143 108.63C156.143 108.63 153.359 111.751 153.022 114.113" stroke="#707070" stroke-linecap="round" stroke-linejoin="round"/>
<path d="M149.057 47.4809C149.057 47.4809 144.503 46.8905 142.9 48.4087C141.298 50.0113 135.984 55.7467 135.984 55.7467L138.767 105.763C138.767 105.763 145.262 108.293 150.744 108.293C156.227 108.293 162.552 106.269 163.986 105.173C165.42 104.076 164.155 50.433 164.155 50.433C164.155 50.433 152.431 46.9749 149.057 47.4809Z" fill="#0D43B2" stroke="#263238" stroke-linecap="round" stroke-linejoin="round"/>
<path d="M157.408 48.49C159.77 48.0683 162.216 47.8996 164.662 47.8996C167.783 47.8996 170.903 48.0683 170.903 48.0683L178.747 40.5617L162.891 36.8505L164.156 29.5969C164.156 29.5969 175.795 28.8378 181.615 29.9342C187.435 31.0307 196.544 33.8984 197.05 33.8984C197.472 33.8984 198.147 35.6697 197.641 36.8505C197.219 38.0313 182.374 54.4785 177.904 58.7801C175.036 61.5634 172.253 64.5998 169.723 67.7206L167.698 102.808C167.698 102.808 172.843 105.591 173.855 106.603C174.783 107.531 175.88 111.327 175.88 111.327C175.88 111.327 166.264 107.362 163.818 107.109C161.288 106.772 159.686 106.688 159.264 105.76C158.842 104.832 154.878 62.8286 154.878 62.8286L155.047 49.4178C155.047 49.3335 155.047 48.49 157.408 48.49Z" fill="#1C224A"/>
<path d="M166.855 70.0826L158.336 71.1791L159.096 74.3842L163.313 75.3963L167.446 73.5408L166.855 70.0826Z" stroke="#343F82" stroke-linecap="round" stroke-linejoin="round"/>
<path d="M171.662 51.2743L169.807 67.7215L174.699 53.7203" stroke="#343F82" stroke-linecap="round" stroke-linejoin="round"/>
<path d="M178.748 40.4778C178.748 40.4778 182.712 41.2369 188.616 38.8752" stroke="#343F82" stroke-linecap="round" stroke-linejoin="round"/>
<path d="M143.745 47.3105L144.504 58.7814C145.938 60.7213 148.215 61.8178 150.661 61.7334C154.625 61.5648 155.047 58.7814 155.047 58.7814V49.3348L143.745 47.3105Z" fill="white" stroke="#263238" stroke-linecap="round" stroke-linejoin="round"/>
<path d="M144.336 61.7341C144.336 61.7341 144.926 105.762 143.408 106.268C141.805 106.774 135.564 106.858 131.515 108.798C127.467 110.738 125.695 111.497 125.695 111.497C125.695 111.497 127.635 106.943 129.828 104.918C131.262 103.653 132.949 102.472 134.72 101.629L130.587 80.5429C130.587 80.5429 123.081 60.5533 122.912 59.4568C122.743 58.3603 137.251 50.1789 140.203 48.7451C143.155 47.3112 143.998 48.5764 143.998 48.5764L144.336 61.7341Z" fill="#1C224A"/>
<path d="M140.37 46.4687C140.37 46.4687 136.574 58.4457 136.237 60.0482C135.899 61.6507 136.237 61.6507 137.418 60.4699C138.598 59.2891 141.382 56.6744 141.382 56.6744L144.334 61.7351L144.165 52.4572V47.1435C144.165 47.1435 143.996 44.9505 140.37 46.4687Z" fill="#7D7D7D" stroke="#263238" stroke-linecap="round" stroke-linejoin="round"/>
<path d="M132.947 72.2764H142.225L142.141 76.0719L138.008 77.5057L132.863 76.0719L132.947 72.2764Z" stroke="#343F82" stroke-linecap="round" stroke-linejoin="round"/>
<path d="M158.505 30.9498C158.505 30.9498 160.698 40.5651 161.204 42.0833C161.625 43.6015 158.673 49.7586 157.746 51.1925C156.987 52.3733 155.721 53.2168 154.287 53.3854C153.191 53.3854 147.203 51.3612 145.769 50.4334C144.335 49.5056 142.985 48.4091 142.985 48.4091C141.636 48.9995 140.033 48.8309 138.852 47.8187C136.913 46.0475 134.467 44.0232 135.057 42.6737C135.647 41.2399 137.081 40.3964 138.684 40.4808C140.455 40.4808 139.865 40.3121 139.865 40.3121C139.865 40.3121 136.744 35.7575 136.744 32.1307C136.744 28.5038 143.491 25.8892 147.456 25.8892C150.155 25.9735 152.854 26.6483 155.3 27.8291L158.505 30.9498Z" fill="white" stroke="#263238" stroke-linecap="round" stroke-linejoin="round"/>
<path d="M153.022 34.4921L155.805 39.8901L153.022 41.7457L151.672 40.2275" stroke="#263238" stroke-linecap="round" stroke-linejoin="round"/>
<path d="M158.168 39.3829C158.168 39.3829 158.336 40.6481 156.396 42.6724" stroke="#263238" stroke-linecap="round" stroke-linejoin="round"/>
<path d="M149.986 36.5126C149.986 37.2717 149.649 37.8621 149.311 37.8621C148.974 37.8621 148.637 37.2717 148.637 36.5126C148.637 35.7535 148.974 35.1631 149.311 35.1631C149.649 35.1631 149.986 35.7535 149.986 36.5126Z" fill="#263238"/>
<path d="M154.877 32.6338C155.299 32.6338 155.552 33.2242 155.552 33.9833C155.552 34.7424 155.215 35.3328 154.877 35.3328C154.54 35.3328 154.203 34.7424 154.203 33.9833C154.203 33.2242 154.54 32.6338 154.877 32.6338Z" fill="#263238"/>
<path d="M141.467 22.6825C141.467 22.6825 131.598 26.3093 131.261 30.8639C130.924 35.4185 140.117 41.7444 140.539 42.5035C140.961 43.2626 142.479 41.5757 142.479 41.5757C141.888 40.7322 141.635 39.6357 141.888 38.6236C142.31 37.0211 144.419 35.1655 144.419 34.4064C144.419 33.6473 142.057 34.9968 142.057 32.6352C142.057 30.2735 147.877 28.8397 151.335 29.0084C154.793 29.177 157.83 34.9968 160.276 32.1291C162.806 29.3457 159.095 28.5866 159.095 28.5866C159.095 28.5866 163.987 27.9962 163.987 25.4659C163.987 22.9355 161.456 21.2487 160.36 21.2487C159.263 21.2487 156.227 23.1886 156.227 21.08C156.227 18.9714 159.179 18.1279 156.396 14.8385C153.612 11.549 149.901 14.8385 149.901 16.1036C149.901 17.3688 148.973 19.6461 148.299 19.6461C147.624 19.6461 145.768 16.8627 143.575 18.4653C142.31 19.4774 141.467 21.08 141.467 22.6825Z" fill="#3E4142" stroke="#263238" stroke-linecap="round" stroke-linejoin="round"/>
<path d="M145.515 34.8292L150.66 32.9736" stroke="#263238" stroke-linecap="round" stroke-linejoin="round"/>
<path d="M151.418 30.7792C151.334 30.3575 151.418 29.7671 151.671 29.3453" stroke="#263238" stroke-linecap="round" stroke-linejoin="round"/>
<path d="M151.588 29.2615C152.01 28.5868 152.769 27.659 154.456 26.8999" stroke="white" stroke-linecap="round" stroke-linejoin="round"/>
<defs>
<filter id="filter0_d_235_1385" x="0" y="21.0232" width="299.761" height="285.146" filterUnits="userSpaceOnUse" color-interpolation-filters="sRGB">
<feFlood flood-opacity="0" result="BackgroundImageFix"/>
<feColorMatrix in="SourceAlpha" type="matrix" values="0 0 0 0 0 0 0 0 0 0 0 0 0 0 0 0 0 0 127 0" result="hardAlpha"/>
<feOffset/>
<feGaussianBlur stdDeviation="2"/>
<feComposite in2="hardAlpha" operator="out"/>
<feColorMatrix type="matrix" values="0 0 0 0 0 0 0 0 0 0 0 0 0 0 0 0 0 0 0.75 0"/>
<feBlend mode="normal" in2="BackgroundImageFix" result="effect1_dropShadow_235_1385"/>
<feBlend mode="normal" in="SourceGraphic" in2="effect1_dropShadow_235_1385" result="shape"/>
</filter>
</defs>
</svg>
