<svg width="73" height="72" viewBox="0 0 73 72" fill="none" xmlns="http://www.w3.org/2000/svg">
<path d="M13.3496 34.0513H40.8142L40.8427 34.0607L40.9089 34.0587C41.0696 34.0537 41.231 34.0513 41.3929 34.0513C50.2142 34.0513 57.3837 41.4163 57.3837 50.5246C57.3837 59.633 50.2142 66.998 41.3929 66.998C41.231 66.998 41.0696 66.9955 40.9089 66.9906L40.8426 66.9885L40.814 66.998H33.6231H33.4769L33.4328 67.0386H13.3496V34.0513Z" fill="#FDECC2" stroke="#4F4F4F" stroke-width="0.75"/>
<path d="M4.59473 62.484C14.3161 56.3862 24.0374 56.3862 33.7588 62.484C43.4802 68.5817 53.2016 68.5817 62.9229 62.484" stroke="#4F4F4F" stroke-width="1.5"/>
<path d="M45.376 33.8034C50.3221 32.5777 54.2072 28.4672 55.3932 23.2553C56.5792 28.4672 60.4645 32.5777 65.4105 33.8034C60.4645 35.0291 56.5792 39.1395 55.3932 44.3515C54.2072 39.1395 50.3221 35.0291 45.376 33.8034Z" fill="#FFC13C" stroke="#4F4F4F" stroke-width="0.75"/>
<path d="M8 8C9.07088 19.8557 18.964 26.0026 23.7022 27.5982C23.4996 26.4081 23.5354 24.8583 23.6198 24.1399C23.6198 23.9523 23.521 22.5294 22.9437 19.9805C22.33 17.2711 21.6041 16.0405 21.2391 15.7807C19.8755 15.4343 19.7941 12.8239 19.9239 11.562C18.547 12.244 11.4209 9.44263 8 8Z" fill="url(#paint0_linear_478_4416)" stroke="#4F4F4F" stroke-width="0.75"/>
<path d="M59.8936 8C58.8227 19.8557 48.7385 26.118 44.0003 27.7137C44.2029 26.5235 44.6252 24.7172 44.5408 23.9988C44.5408 23.8112 44.0804 21.6256 44.5408 18.7251C44.9276 16.2883 45.3721 16.0942 46.5512 15.4159C47.965 14.2637 48.1204 13.0522 47.9743 11.6057C49.4045 12.1436 56.4727 9.44263 59.8936 8Z" fill="url(#paint1_linear_478_4416)"/>
<path d="M59.8936 8C58.8227 19.8557 48.7385 26.118 44.0003 27.7137C44.2029 26.5235 44.6252 24.7172 44.5408 23.9988C44.5408 23.8112 44.0804 21.6256 44.5408 18.7251C44.9276 16.2883 45.3721 16.0942 46.5512 15.4159C47.965 14.2637 48.1204 13.0522 47.9743 11.6057C49.4045 12.1436 56.4727 9.44263 59.8936 8Z" fill="url(#paint2_linear_478_4416)"/>
<path d="M59.8936 8C58.8227 19.8557 48.7385 26.118 44.0003 27.7137C44.2029 26.5235 44.6252 24.7172 44.5408 23.9988C44.5408 23.8112 44.0804 21.6256 44.5408 18.7251C44.9276 16.2883 45.3721 16.0942 46.5512 15.4159C47.965 14.2637 48.1204 13.0522 47.9743 11.6057C49.4045 12.1436 56.4727 9.44263 59.8936 8Z" stroke="#4F4F4F" stroke-width="0.75"/>
<path d="M22.8824 51.5155V56H46.6718V51.5155H42.2159C42.3368 46.0041 39.6985 43.4131 38.3642 42.8065V38.322C41.5181 35.9956 43.384 31.2839 44.3065 27.6636C44.6211 26.4291 44.826 25.3215 44.9348 24.4786C44.5572 21.9872 44.3759 16.8224 46.6718 16.0945C48.9678 15.3666 49.139 13.0615 48.9376 12H19.054C18.903 13.1915 18.9784 15.6785 20.4889 16.0945C22.377 16.6144 23.5099 23.8286 23.5099 24.4786C23.1779 25.4582 23.2696 26.6639 23.6329 27.965C24.658 31.6361 29.0301 36.0667 30.9632 38.322V42.8065C28.1235 43.1704 27.2122 48.7641 27.1115 51.5155H22.8824Z" fill="url(#paint3_linear_478_4416)" stroke="#4F4F4F" stroke-width="0.75"/>
<defs>
<linearGradient id="paint0_linear_478_4416" x1="15.8115" y1="8.12503" x2="15.8115" y2="27.5896" gradientUnits="userSpaceOnUse">
<stop stop-color="#3224CC"/>
<stop offset="1" stop-color="#291DB0"/>
</linearGradient>
<linearGradient id="paint1_linear_478_4416" x1="51.987" y1="8.12577" x2="51.987" y2="27.705" gradientUnits="userSpaceOnUse">
<stop stop-color="#8378FB"/>
<stop offset="1" stop-color="#5E50FA"/>
</linearGradient>
<linearGradient id="paint2_linear_478_4416" x1="51.987" y1="8.12577" x2="51.987" y2="27.705" gradientUnits="userSpaceOnUse">
<stop stop-color="#3224CC"/>
<stop offset="1" stop-color="#291DB0"/>
</linearGradient>
<linearGradient id="paint3_linear_478_4416" x1="28.089" y1="55.6988" x2="28.089" y2="4.36875" gradientUnits="userSpaceOnUse">
<stop stop-color="#F9B409"/>
<stop offset="1" stop-color="#F3D68F"/>
</linearGradient>
</defs>
</svg>
