<svg width="73" height="72" viewBox="0 0 73 72" fill="none" xmlns="http://www.w3.org/2000/svg">
<g clip-path="url(#clip0_478_4402)">
<path d="M38.0005 34.5H8.00048C5.5152 34.5 3.50049 36.6899 3.50049 39.3913V59.6087C3.50049 62.3101 5.5152 64.5 8.00048 64.5H38.0005C40.4858 64.5 42.5005 62.3101 42.5005 59.6087V39.3913C42.5005 36.6899 40.4858 34.5 38.0005 34.5Z" fill="url(#paint0_linear_478_4402)"/>
<path d="M36.7553 68.0864C28.662 72.7591 15.5402 72.7591 7.44687 68.0864C-0.64643 63.4138 -0.646429 55.8379 7.44687 51.1652C15.5402 46.4925 28.662 46.4925 36.7553 51.1652C44.8486 55.8379 44.8486 63.4138 36.7553 68.0864Z" fill="#231B7E" stroke="#4F4F4F" stroke-width="0.75"/>
<path d="M36.7785 57.6574C28.6724 62.3374 15.5298 62.3374 7.42366 57.6574C-0.682445 52.9773 -0.682443 45.3894 7.42366 40.7094C15.5298 36.0293 28.6724 36.0293 36.7785 40.7094C44.8846 45.3894 44.8846 52.9773 36.7785 57.6574Z" fill="url(#paint1_linear_478_4402)" stroke="#4F4F4F" stroke-width="0.75"/>
<path d="M36.7553 47.2007C28.662 51.8734 15.5402 51.8734 7.44687 47.2007C-0.64643 42.528 -0.646429 34.9521 7.44687 30.2795C15.5402 25.6068 28.662 25.6068 36.7553 30.2795C44.8486 34.9521 44.8486 42.528 36.7553 47.2007Z" fill="#231B7E" stroke="#4F4F4F" stroke-width="0.75"/>
<mask id="path-5-outside-1_478_4402" maskUnits="userSpaceOnUse" x="15.5898" y="6.49609" width="50" height="50" fill="black">
<rect fill="white" x="15.5898" y="6.49609" width="50" height="50"/>
<path d="M64.148 31.5682C64.148 44.8629 53.5018 55.6403 40.3689 55.6403C27.2361 55.6403 16.5898 44.8629 16.5898 31.5682C16.5898 18.2735 27.2361 7.49609 40.3689 7.49609C53.5018 7.49609 64.148 18.2735 64.148 31.5682Z"/>
</mask>
<path d="M64.148 31.5682C64.148 44.8629 53.5018 55.6403 40.3689 55.6403C27.2361 55.6403 16.5898 44.8629 16.5898 31.5682C16.5898 18.2735 27.2361 7.49609 40.3689 7.49609C53.5018 7.49609 64.148 18.2735 64.148 31.5682Z" fill="#D9D9D9"/>
<path d="M64.148 31.5682C64.148 44.8629 53.5018 55.6403 40.3689 55.6403C27.2361 55.6403 16.5898 44.8629 16.5898 31.5682C16.5898 18.2735 27.2361 7.49609 40.3689 7.49609C53.5018 7.49609 64.148 18.2735 64.148 31.5682Z" fill="url(#paint2_linear_478_4402)"/>
<path d="M63.398 31.5682C63.398 44.4573 53.0789 54.8903 40.3689 54.8903V56.3903C53.9246 56.3903 64.898 45.2684 64.898 31.5682H63.398ZM40.3689 54.8903C27.659 54.8903 17.3398 44.4573 17.3398 31.5682H15.8398C15.8398 45.2684 26.8133 56.3903 40.3689 56.3903V54.8903ZM17.3398 31.5682C17.3398 18.6791 27.659 8.24609 40.3689 8.24609V6.74609C26.8133 6.74609 15.8398 17.868 15.8398 31.5682H17.3398ZM40.3689 8.24609C53.0789 8.24609 63.398 18.6791 63.398 31.5682H64.898C64.898 17.868 53.9246 6.74609 40.3689 6.74609V8.24609Z" fill="#4F4F4F" mask="url(#path-5-outside-1_478_4402)"/>
<path d="M32.3032 11.5865L35.1593 8.44704C38.8807 7.5217 43.5345 8.04642 45.8218 8.56486L48.8702 11.9996L40.4642 15.0565L32.3032 11.5865Z" fill="#BB8E1E"/>
<path d="M55.7383 16.8359L59.5311 18.2069C62.0923 21.6346 63.3272 26.8386 63.5047 29.6471L61.2877 33.1115L55.7383 26.089V16.8359Z" fill="#BB8E1E"/>
<path d="M40.4512 23.8018L32.5347 29.5849L35.7991 39.3337H45.1028L48.2041 29.5849L40.4512 23.8018Z" fill="#BB8E1E"/>
<path d="M25.0617 16.7163L21.0629 18.4512C18.5819 22.0203 17.257 27.0184 17.1221 29.6897L19.6753 33.1571L25.0617 26.4651V16.7163Z" fill="#BB8E1E"/>
<path d="M31.578 53.2459C26.4367 51.1613 23.9242 48.1583 22.292 46.3683L22.4687 41.0137L31.0378 43.9053L36.2609 51.3408L31.578 53.2459Z" fill="#BB8E1E"/>
<path d="M44.8525 51.4988L49.5262 53.3074C51.9221 52.3741 55.7004 50.0191 58.7681 46.0716L58.5634 41.3369L50.239 44.1459L44.8525 51.4988Z" fill="#BB8E1E"/>
</g>
<defs>
<linearGradient id="paint0_linear_478_4402" x1="14.1984" y1="64.5" x2="13.2371" y2="4.81122" gradientUnits="userSpaceOnUse">
<stop stop-color="#6557FF"/>
<stop offset="1" stop-color="#6557FF" stop-opacity="0"/>
</linearGradient>
<linearGradient id="paint1_linear_478_4402" x1="0.32705" y1="71.2582" x2="28.9468" y2="19.5674" gradientUnits="userSpaceOnUse">
<stop stop-color="#61DFC6"/>
<stop offset="1" stop-color="#61DFC6" stop-opacity="0"/>
</linearGradient>
<linearGradient id="paint2_linear_478_4402" x1="29.6354" y1="55.6404" x2="29.6354" y2="-0.223024" gradientUnits="userSpaceOnUse">
<stop stop-color="#F9B409"/>
<stop offset="1" stop-color="#FDECC2"/>
</linearGradient>
<clipPath id="clip0_478_4402">
<rect width="72" height="72" fill="white" transform="translate(0.5)"/>
</clipPath>
</defs>
</svg>
