<svg width="73" height="72" viewBox="0 0 73 72" fill="none" xmlns="http://www.w3.org/2000/svg">
<path opacity="0.6" d="M16.7451 0H56.9598L45.7098 48.2596H27.9951L16.7451 0Z" fill="url(#paint0_linear_478_4434)"/>
<path d="M66.8924 61.9641L66.8924 61.9639C66.7942 61.0026 66.3204 60.1201 65.5742 59.5066C64.8248 58.8915 63.8608 58.5966 62.8918 58.6876L62.8915 58.6876L62.4338 58.7302L66.8924 61.9641ZM66.8924 61.9641L66.9195 62.2271M66.8924 61.9641L66.9195 62.2271M63.4519 66.4958L63.4533 66.4956C64.5028 66.3816 65.4626 65.8476 66.1134 65.0155L63.4519 66.4958ZM63.4519 66.4958L63.4074 66.5008C63.4071 66.5008 63.4068 66.5008 63.4065 66.5009C62.405 66.6089 61.402 66.3286 60.6052 65.7183C59.7663 65.0753 59.2257 64.1199 59.1064 63.0698C59.1064 63.0697 59.1063 63.0696 59.1063 63.0694L59.0811 62.8427L59.081 62.842M63.4519 66.4958L59.081 62.842M59.081 62.842C58.966 61.8259 59.2785 60.8054 59.9447 60.0234L59.081 62.842ZM66.9195 62.2271C67.0213 63.2236 66.7326 64.2228 66.1135 65.0154L66.9195 62.2271ZM59.9448 60.0234C60.5743 59.285 61.4676 58.8208 62.4336 58.7302L59.9448 60.0234Z" fill="#61DFC6" stroke="#4F4F4F" stroke-width="0.75"/>
<path d="M40.7918 12.6565L40.7918 12.6563C40.6936 11.695 40.2198 10.8125 39.4736 10.199C38.7242 9.58393 37.7602 9.28898 36.7912 9.37997L36.7909 9.38L36.3332 9.4226L40.7918 12.6565ZM40.7918 12.6565L40.8189 12.9195M40.7918 12.6565L40.8189 12.9195M37.3513 17.1881L37.3527 17.188C38.4022 17.0739 39.3621 16.54 40.0128 15.7079L37.3513 17.1881ZM37.3513 17.1881L37.3068 17.1931C37.3065 17.1932 37.3062 17.1932 37.306 17.1932C36.3044 17.3013 35.3014 17.021 34.5046 16.4107C33.6657 15.7677 33.1251 14.8123 33.0058 13.7622C33.0058 13.7621 33.0058 13.7619 33.0057 13.7618L32.9805 13.5351L32.9804 13.5344M37.3513 17.1881L32.9804 13.5344M32.9804 13.5344C32.8654 12.5183 33.1779 11.4977 33.8441 10.7158L32.9804 13.5344ZM40.8189 12.9195C40.9207 13.916 40.632 14.9152 40.0129 15.7078L40.8189 12.9195ZM33.8442 10.7157C34.4738 9.97739 35.3671 9.51321 36.333 9.42262L33.8442 10.7157Z" fill="#6557FF" stroke="#4F4F4F" stroke-width="0.75"/>
<path d="M42.3087 7.07791L44.9465 4.40816L45.9541 8.01329L42.3087 7.07791Z" fill="#61DFC6" stroke="#4F4F4F" stroke-width="0.75"/>
<path d="M31.7554 26.6092V23.5088L34.4571 25.0591L31.7554 26.6092Z" fill="#FFC633" stroke="#4F4F4F" stroke-width="0.75"/>
<path d="M27.6172 8.01496V6.27056L29.1373 7.14275L27.6172 8.01496Z" fill="#FFC633" stroke="#4F4F4F" stroke-width="0.75"/>
<path d="M34.4043 2.21135C34.8103 1.81236 35.4678 1.81236 35.8738 2.21135C36.2761 2.60677 36.2761 3.24193 35.8738 3.63736C35.4678 4.03634 34.8103 4.03634 34.4043 3.63736C34.002 3.24193 34.002 2.60677 34.4043 2.21135ZM42.9206 22.2869C42.3044 22.8926 41.2832 22.8977 40.6409 22.2834C40.0174 21.6871 40.0219 20.6991 40.6464 20.0664C41.2622 19.4631 42.2806 19.4581 42.9225 20.07C43.5352 20.6743 43.5346 21.6835 42.9206 22.2869Z" fill="#61DFC6" stroke="#4F4F4F" stroke-width="0.75"/>
<path d="M48.099 13.4217L48.099 13.4217C47.5269 12.8594 47.5269 11.9531 48.099 11.3907C48.6748 10.8248 49.6083 10.8248 50.184 11.3907C50.7562 11.9531 50.7562 12.8594 50.184 13.4217L50.184 13.4217C49.6083 13.9876 48.6748 13.9876 48.099 13.4217Z" fill="#FFC633" stroke="#4F4F4F" stroke-width="0.75"/>
<path d="M26.8307 17.5528C26.0021 18.3656 24.6442 18.3696 23.7906 17.5499C22.9672 16.7392 22.9631 15.4156 23.7935 14.5802C24.622 13.7674 25.98 13.7635 26.8336 14.5831C27.6569 15.3938 27.6611 16.7174 26.8307 17.5528Z" fill="#61DFC6" stroke="#4F4F4F" stroke-width="0.75"/>
<path d="M45.4107 30.028L45.4107 30.028C46.1764 30.7805 46.1764 31.9756 45.4107 32.7281L45.4107 32.7281C44.6418 33.4838 43.4155 33.4842 42.6461 32.7292C41.8915 31.9731 41.8827 30.7772 42.6449 30.028C43.4142 29.2719 44.6414 29.2719 45.4107 30.028Z" fill="#FFC633" stroke="#4F4F4F" stroke-width="0.75"/>
<path d="M28.494 33.4217C28.1075 33.0338 28.1053 32.4257 28.4928 32.0448L29.9111 32.0448C30.3021 32.4291 30.3021 33.0362 29.9111 33.4205C29.5169 33.808 28.8887 33.8083 28.494 33.4217ZM28.4928 32.0447C28.8875 31.657 29.5165 31.657 29.9111 32.0447L28.4928 32.0447Z" fill="#FFC633" stroke="#4F4F4F" stroke-width="0.75"/>
<mask id="path-12-inside-1_478_4434" fill="white">
<path d="M15.4531 65.0756C15.4988 65.4185 15.6787 65.7292 15.9533 65.9393C16.2279 66.1494 16.5746 66.2417 16.9172 66.196C17.2598 66.1502 17.5702 65.9701 17.7801 65.6953C17.9901 65.4205 18.0823 65.0735 18.0366 64.7306L16.7448 64.9031L15.4531 65.0756Z"/>
</mask>
<path d="M15.4531 65.0756C15.4988 65.4185 15.6787 65.7292 15.9533 65.9393C16.2279 66.1494 16.5746 66.2417 16.9172 66.196C17.2598 66.1502 17.5702 65.9701 17.7801 65.6953C17.9901 65.4205 18.0823 65.0735 18.0366 64.7306L16.7448 64.9031L15.4531 65.0756Z" fill="url(#paint1_linear_478_4434)" stroke="#4F4F4F" stroke-width="1.5" mask="url(#path-12-inside-1_478_4434)"/>
<mask id="path-13-inside-2_478_4434" fill="white">
<path d="M21.3369 64.2443C21.3826 64.5872 21.5625 64.8979 21.8371 65.108C22.1117 65.3181 22.4584 65.4104 22.801 65.3647C23.1436 65.3189 23.454 65.1388 23.6639 64.864C23.8739 64.5892 23.9661 64.2422 23.9204 63.8993L22.6286 64.0718L21.3369 64.2443Z"/>
</mask>
<path d="M21.3369 64.2443C21.3826 64.5872 21.5625 64.8979 21.8371 65.108C22.1117 65.3181 22.4584 65.4104 22.801 65.3647C23.1436 65.3189 23.454 65.1388 23.6639 64.864C23.8739 64.5892 23.9661 64.2422 23.9204 63.8993L22.6286 64.0718L21.3369 64.2443Z" fill="url(#paint2_linear_478_4434)" stroke="#4F4F4F" stroke-width="1.5" mask="url(#path-13-inside-2_478_4434)"/>
<mask id="path-14-inside-3_478_4434" fill="white">
<path d="M27.3622 63.4108C27.408 63.7537 27.5879 64.0644 27.8625 64.2745C28.1371 64.4846 28.4838 64.5769 28.8264 64.5312C29.169 64.4854 29.4794 64.3053 29.6893 64.0305C29.8993 63.7557 29.9915 63.4087 29.9458 63.0658L28.654 63.2383L27.3622 63.4108Z"/>
</mask>
<path d="M27.3622 63.4108C27.408 63.7537 27.5879 64.0644 27.8625 64.2745C28.1371 64.4846 28.4838 64.5769 28.8264 64.5312C29.169 64.4854 29.4794 64.3053 29.6893 64.0305C29.8993 63.7557 29.9915 63.4087 29.9458 63.0658L28.654 63.2383L27.3622 63.4108Z" fill="url(#paint3_linear_478_4434)" stroke="#4F4F4F" stroke-width="1.5" mask="url(#path-14-inside-3_478_4434)"/>
<mask id="path-15-inside-4_478_4434" fill="white">
<path d="M33.3886 62.4897C33.4343 62.8326 33.6143 63.1432 33.8888 63.3533C34.1634 63.5634 34.5102 63.6558 34.8528 63.61C35.1954 63.5643 35.5058 63.3842 35.7157 63.1094C35.9256 62.8345 36.0179 62.4875 35.9722 62.1446L34.6804 62.3171L33.3886 62.4897Z"/>
</mask>
<path d="M33.3886 62.4897C33.4343 62.8326 33.6143 63.1432 33.8888 63.3533C34.1634 63.5634 34.5102 63.6558 34.8528 63.61C35.1954 63.5643 35.5058 63.3842 35.7157 63.1094C35.9256 62.8345 36.0179 62.4875 35.9722 62.1446L34.6804 62.3171L33.3886 62.4897Z" fill="url(#paint4_linear_478_4434)" stroke="#4F4F4F" stroke-width="1.5" mask="url(#path-15-inside-4_478_4434)"/>
<mask id="path-16-inside-5_478_4434" fill="white">
<path d="M39.4145 61.6662C39.4602 62.0091 39.6401 62.3197 39.9147 62.5299C40.1893 62.74 40.536 62.8323 40.8786 62.7865C41.2212 62.7408 41.5316 62.5607 41.7416 62.2859C41.9515 62.0111 42.0438 61.664 41.998 61.3211L40.7063 61.4937L39.4145 61.6662Z"/>
</mask>
<path d="M39.4145 61.6662C39.4602 62.0091 39.6401 62.3197 39.9147 62.5299C40.1893 62.74 40.536 62.8323 40.8786 62.7865C41.2212 62.7408 41.5316 62.5607 41.7416 62.2859C41.9515 62.0111 42.0438 61.664 41.998 61.3211L40.7063 61.4937L39.4145 61.6662Z" fill="url(#paint5_linear_478_4434)" stroke="#4F4F4F" stroke-width="1.5" mask="url(#path-16-inside-5_478_4434)"/>
<mask id="path-17-inside-6_478_4434" fill="white">
<path d="M45.4409 60.8246C45.4866 61.1675 45.6665 61.4782 45.9411 61.6883C46.2157 61.8984 46.5624 61.9907 46.905 61.945C47.2476 61.8992 47.558 61.7191 47.7679 61.4443C47.9779 61.1695 48.0701 60.8225 48.0244 60.4796L46.7326 60.6521L45.4409 60.8246Z"/>
</mask>
<path d="M45.4409 60.8246C45.4866 61.1675 45.6665 61.4782 45.9411 61.6883C46.2157 61.8984 46.5624 61.9907 46.905 61.945C47.2476 61.8992 47.558 61.7191 47.7679 61.4443C47.9779 61.1695 48.0701 60.8225 48.0244 60.4796L46.7326 60.6521L45.4409 60.8246Z" fill="url(#paint6_linear_478_4434)" stroke="#4F4F4F" stroke-width="1.5" mask="url(#path-17-inside-6_478_4434)"/>
<mask id="path-18-inside-7_478_4434" fill="white">
<path d="M51.4238 59.9945C51.4695 60.3374 51.6494 60.6481 51.924 60.8582C52.1986 61.0683 52.5453 61.1607 52.8879 61.1149C53.2305 61.0691 53.5409 60.8891 53.7508 60.6142C53.9608 60.3394 54.053 59.9924 54.0073 59.6495L52.7155 59.822L51.4238 59.9945Z"/>
</mask>
<path d="M51.4238 59.9945C51.4695 60.3374 51.6494 60.6481 51.924 60.8582C52.1986 61.0683 52.5453 61.1607 52.8879 61.1149C53.2305 61.0691 53.5409 60.8891 53.7508 60.6142C53.9608 60.3394 54.053 59.9924 54.0073 59.6495L52.7155 59.822L51.4238 59.9945Z" fill="url(#paint7_linear_478_4434)" stroke="#4F4F4F" stroke-width="1.5" mask="url(#path-18-inside-7_478_4434)"/>
<mask id="path-19-inside-8_478_4434" fill="white">
<path d="M61.2301 56.6408C61.413 56.9343 61.7049 57.1431 62.0416 57.2212C62.3783 57.2994 62.7322 57.2404 63.0255 57.0574C63.3188 56.8743 63.5274 56.5822 63.6055 56.2452C63.6835 55.9082 63.6246 55.5539 63.4418 55.2604L62.3359 55.9506L61.2301 56.6408Z"/>
</mask>
<path d="M61.2301 56.6408C61.413 56.9343 61.7049 57.1431 62.0416 57.2212C62.3783 57.2994 62.7322 57.2404 63.0255 57.0574C63.3188 56.8743 63.5274 56.5822 63.6055 56.2452C63.6835 55.9082 63.6246 55.5539 63.4418 55.2604L62.3359 55.9506L61.2301 56.6408Z" fill="url(#paint8_linear_478_4434)" stroke="#4F4F4F" stroke-width="1.5" mask="url(#path-19-inside-8_478_4434)"/>
<mask id="path-20-inside-9_478_4434" fill="white">
<path d="M65.2536 53.9168C65.4876 54.1715 65.813 54.3226 66.1584 54.337C66.5037 54.3515 66.8406 54.228 67.095 53.9938C67.3494 53.7597 67.5004 53.4339 67.5149 53.0883C67.5293 52.7427 67.4059 52.4054 67.1719 52.1508L66.2128 53.0338L65.2536 53.9168Z"/>
</mask>
<path d="M65.2536 53.9168C65.4876 54.1715 65.813 54.3226 66.1584 54.337C66.5037 54.3515 66.8406 54.228 67.095 53.9938C67.3494 53.7597 67.5004 53.4339 67.5149 53.0883C67.5293 52.7427 67.4059 52.4054 67.1719 52.1508L66.2128 53.0338L65.2536 53.9168Z" fill="url(#paint9_linear_478_4434)" stroke="#4F4F4F" stroke-width="1.5" mask="url(#path-20-inside-9_478_4434)"/>
<mask id="path-21-inside-10_478_4434" fill="white">
<path d="M56.6275 59.047C56.7568 59.3678 57.0082 59.624 57.3263 59.7593C57.6444 59.8946 58.0032 59.8979 58.3237 59.7684C58.6442 59.6389 58.9002 59.3873 59.0354 59.069C59.1706 58.7506 59.1739 58.3915 59.0445 58.0707L57.836 58.5588L56.6275 59.047Z"/>
</mask>
<path d="M56.6275 59.047C56.7568 59.3678 57.0082 59.624 57.3263 59.7593C57.6444 59.8946 58.0032 59.8979 58.3237 59.7684C58.6442 59.6389 58.9002 59.3873 59.0354 59.069C59.1706 58.7506 59.1739 58.3915 59.0445 58.0707L57.836 58.5588L56.6275 59.047Z" fill="url(#paint10_linear_478_4434)" stroke="#4F4F4F" stroke-width="1.5" mask="url(#path-21-inside-10_478_4434)"/>
<path d="M8.40859 51.2807C8.49565 59.081 11.4644 63.5338 12.8924 64.6942L52.6012 58.9066C60.1662 57.8172 67.8945 51.1172 67.8945 50.6815C67.8509 45.0165 60.9463 44.7986 57.4994 45.3978C47.0934 46.1385 40.6963 43.1446 38.7985 41.555L34.0286 38.2654C29.0583 37.1822 26.4529 42.0364 25.7314 42.6783C25.1543 43.1918 26.3511 44.0879 27.0217 44.4718C23.9304 48.6552 19.1664 48.3211 17.1709 47.6311C14.4279 45.6266 12.4723 44.9076 11.8373 44.7987C8.78958 45.0166 8.2816 49.2108 8.40859 51.2807Z" fill="url(#paint11_linear_478_4434)" stroke="#4F4F4F" stroke-width="0.75"/>
<path d="M31.3163 47.2324L27.0475 44.4867C26.5706 44.3039 25.6795 43.4652 25.5821 43.0996C25.4603 42.6426 25.8066 42.5996 27.8764 40.1623C29.5324 38.2125 32.8593 37.7533 34.0276 38.2534L38.6766 41.4637L34.645 47.3498C33.0135 48.1298 31.7019 47.5574 31.3163 47.2324Z" fill="#61DFC6" stroke="#4F4F4F" stroke-width="0.75"/>
<path d="M16.1855 58.5504C11.3867 56.9973 8.98974 52.9423 8.39111 51.1089C8.39111 58.8452 11.3388 63.358 12.7875 64.6282L20.9052 63.4417C21.3243 62.519 20.9843 60.1034 16.1855 58.5504Z" fill="url(#paint12_linear_478_4434)" stroke="#4F4F4F" stroke-width="0.75"/>
<path d="M12.2209 65.3071C12.1112 64.8926 12.5365 64.681 12.7628 64.627L53.741 58.6671C58.4378 57.942 64.8924 53.2461 67.5729 51.0843C67.7343 50.9228 68.0058 50.497 68.2073 50.6298C68.5212 50.8366 68.3725 51.2941 68.2073 51.476L67.8985 51.798C63.407 56.7535 56.7169 59.4031 53.8534 59.8463L13.0432 65.6271C12.8148 65.6932 12.3306 65.7216 12.2209 65.3071Z" fill="url(#paint13_linear_478_4434)" stroke="#4F4F4F" stroke-width="0.75"/>
<path d="M18.8359 51.275C22.9583 51.6316 25.6698 47.1563 26.4967 45.1613C23.1948 47.9981 19.187 48.3036 17.1902 47.5959C14.872 46.0475 13.2302 45.0861 11.8329 44.8293C10.4356 44.5724 8.52979 46.9586 8.97511 47.9137C9.42042 48.8688 13.6829 50.8294 18.8359 51.275Z" fill="#D9D9D9"/>
<path d="M18.8359 51.275C22.9583 51.6316 25.6698 47.1563 26.4967 45.1613C23.1948 47.9981 19.187 48.3036 17.1902 47.5959C14.872 46.0475 13.2302 45.0861 11.8329 44.8293C10.4356 44.5724 8.52979 46.9586 8.97511 47.9137C9.42042 48.8688 13.6829 50.8294 18.8359 51.275Z" fill="url(#paint14_linear_478_4434)"/>
<path d="M18.8359 51.275C22.9583 51.6316 25.6698 47.1563 26.4967 45.1613C23.1948 47.9981 19.187 48.3036 17.1902 47.5959C14.872 46.0475 13.2302 45.0861 11.8329 44.8293C10.4356 44.5724 8.52979 46.9586 8.97511 47.9137C9.42042 48.8688 13.6829 50.8294 18.8359 51.275Z" fill="url(#paint15_linear_478_4434)"/>
<path d="M18.8359 51.275C22.9583 51.6316 25.6698 47.1563 26.4967 45.1613C23.1948 47.9981 19.187 48.3036 17.1902 47.5959C14.872 46.0475 13.2302 45.0861 11.8329 44.8293C10.4356 44.5724 8.52979 46.9586 8.97511 47.9137C9.42042 48.8688 13.6829 50.8294 18.8359 51.275Z" fill="url(#paint16_linear_478_4434)"/>
<path d="M18.8359 51.275C22.9583 51.6316 25.6698 47.1563 26.4967 45.1613C23.1948 47.9981 19.187 48.3036 17.1902 47.5959C14.872 46.0475 13.2302 45.0861 11.8329 44.8293C10.4356 44.5724 8.52979 46.9586 8.97511 47.9137C9.42042 48.8688 13.6829 50.8294 18.8359 51.275Z" stroke="#4F4F4F" stroke-width="0.75"/>
<path d="M48.4893 49.4285C43.3636 49.4697 36.2411 45.1843 36.1587 45.1019L38.6633 41.4771C43.8155 44.8253 50.3147 45.4448 52.1125 45.4311C52.376 46.008 49.5941 48.5701 48.4893 49.4285Z" fill="url(#paint17_linear_478_4434)"/>
<path d="M36.1587 45.1019L35.8502 44.8887L35.6725 45.1459L35.8935 45.367L36.1587 45.1019ZM48.4893 49.4285L48.4923 49.8035L48.6192 49.8025L48.7194 49.7246L48.4893 49.4285ZM52.1125 45.4311L52.4536 45.2753L52.3526 45.0542L52.1096 45.0561L52.1125 45.4311ZM38.6633 41.4771L38.8677 41.1626L38.562 40.964L38.3548 41.2639L38.6633 41.4771ZM35.8935 45.367C35.9122 45.3858 35.9295 45.3989 35.9333 45.4018C35.9404 45.4073 35.9469 45.412 35.9516 45.4153C35.9611 45.422 35.9714 45.4289 35.9811 45.4353C36.0009 45.4483 36.0266 45.4645 36.0569 45.4833C36.118 45.5212 36.2039 45.5729 36.3119 45.6365C36.5283 45.7637 36.837 45.9397 37.2202 46.148C37.9866 46.5645 39.054 47.1113 40.281 47.6545C42.7208 48.7346 45.8448 49.8248 48.4923 49.8035L48.4863 49.0535C46.0081 49.0735 43.008 48.0415 40.5846 46.9687C39.3799 46.4353 38.3309 45.898 37.5784 45.489C37.2022 45.2846 36.9009 45.1127 36.692 44.9899C36.5874 44.9284 36.5068 44.8797 36.452 44.8458C36.4243 44.8287 36.4047 44.8162 36.3924 44.8081C36.386 44.8039 36.3836 44.8022 36.3838 44.8024C36.3838 44.8024 36.3865 44.8042 36.3906 44.8074C36.3914 44.808 36.4064 44.8193 36.4239 44.8368L35.8935 45.367ZM48.7194 49.7246C49.2863 49.2841 50.2707 48.4174 51.0823 47.5862C51.4872 47.1715 51.86 46.7547 52.1172 46.3975C52.2448 46.2203 52.3549 46.0429 52.4238 45.8778C52.4837 45.7344 52.5561 45.4998 52.4536 45.2753L51.7714 45.5869C51.7347 45.5066 51.7779 45.4783 51.7317 45.5888C51.6947 45.6775 51.622 45.8017 51.5086 45.9592C51.2838 46.2714 50.9414 46.657 50.5457 47.0622C49.756 47.8709 48.7971 48.7145 48.2592 49.1324L48.7194 49.7246ZM52.1096 45.0561C50.3516 45.0695 43.935 44.4557 38.8677 41.1626L38.459 41.7915C43.6961 45.1949 50.2778 45.8201 52.1154 45.8061L52.1096 45.0561ZM38.3548 41.2639L35.8502 44.8887L36.4672 45.3151L38.9718 41.6902L38.3548 41.2639Z" fill="#4F4F4F"/>
<defs>
<linearGradient id="paint0_linear_478_4434" x1="27.7762" y1="48.2596" x2="26.9453" y2="0.0143077" gradientUnits="userSpaceOnUse">
<stop stop-color="#FFC633" stop-opacity="0.91"/>
<stop offset="1" stop-color="#FFC633" stop-opacity="0.01"/>
</linearGradient>
<linearGradient id="paint1_linear_478_4434" x1="16.9172" y1="66.196" x2="16.5719" y2="63.6103" gradientUnits="userSpaceOnUse">
<stop stop-color="#B4ADEA"/>
<stop offset="1" stop-color="#5E50FA"/>
</linearGradient>
<linearGradient id="paint2_linear_478_4434" x1="22.801" y1="65.3647" x2="22.4557" y2="62.779" gradientUnits="userSpaceOnUse">
<stop stop-color="#B4ADEA"/>
<stop offset="1" stop-color="#5E50FA"/>
</linearGradient>
<linearGradient id="paint3_linear_478_4434" x1="28.8264" y1="64.5312" x2="28.4811" y2="61.9455" gradientUnits="userSpaceOnUse">
<stop stop-color="#B4ADEA"/>
<stop offset="1" stop-color="#5E50FA"/>
</linearGradient>
<linearGradient id="paint4_linear_478_4434" x1="34.8528" y1="63.61" x2="34.5074" y2="61.0243" gradientUnits="userSpaceOnUse">
<stop stop-color="#B4ADEA"/>
<stop offset="1" stop-color="#5E50FA"/>
</linearGradient>
<linearGradient id="paint5_linear_478_4434" x1="40.8786" y1="62.7865" x2="40.5333" y2="60.2009" gradientUnits="userSpaceOnUse">
<stop stop-color="#B4ADEA"/>
<stop offset="1" stop-color="#5E50FA"/>
</linearGradient>
<linearGradient id="paint6_linear_478_4434" x1="46.905" y1="61.945" x2="46.5597" y2="59.3593" gradientUnits="userSpaceOnUse">
<stop stop-color="#B4ADEA"/>
<stop offset="1" stop-color="#5E50FA"/>
</linearGradient>
<linearGradient id="paint7_linear_478_4434" x1="52.8879" y1="61.1149" x2="52.5426" y2="58.5292" gradientUnits="userSpaceOnUse">
<stop stop-color="#B4ADEA"/>
<stop offset="1" stop-color="#5E50FA"/>
</linearGradient>
<linearGradient id="paint8_linear_478_4434" x1="63.0255" y1="57.0574" x2="61.6446" y2="54.8449" gradientUnits="userSpaceOnUse">
<stop stop-color="#B4ADEA"/>
<stop offset="1" stop-color="#5E50FA"/>
</linearGradient>
<linearGradient id="paint9_linear_478_4434" x1="67.095" y1="53.9938" x2="65.3289" y2="52.0753" gradientUnits="userSpaceOnUse">
<stop stop-color="#B4ADEA"/>
<stop offset="1" stop-color="#5E50FA"/>
</linearGradient>
<linearGradient id="paint10_linear_478_4434" x1="58.3237" y1="59.7684" x2="57.3469" y2="57.3499" gradientUnits="userSpaceOnUse">
<stop stop-color="#B4ADEA"/>
<stop offset="1" stop-color="#5E50FA"/>
</linearGradient>
<linearGradient id="paint11_linear_478_4434" x1="24.7133" y1="64.5122" x2="24.7133" y2="33.4974" gradientUnits="userSpaceOnUse">
<stop stop-color="#F9B409"/>
<stop offset="1" stop-color="#FDECC2"/>
</linearGradient>
<linearGradient id="paint12_linear_478_4434" x1="14.7236" y1="51.1089" x2="14.7236" y2="64.5899" gradientUnits="userSpaceOnUse">
<stop stop-color="#2215B0"/>
<stop offset="1" stop-color="#31298C"/>
</linearGradient>
<linearGradient id="paint13_linear_478_4434" x1="40.3197" y1="50.8326" x2="40.3197" y2="65.6657" gradientUnits="userSpaceOnUse">
<stop stop-color="#61DFC6"/>
<stop offset="1" stop-color="#61DFC6"/>
</linearGradient>
<linearGradient id="paint14_linear_478_4434" x1="17.615" y1="44.8101" x2="17.615" y2="51.2969" gradientUnits="userSpaceOnUse">
<stop stop-color="#8378FB"/>
<stop offset="1" stop-color="#5E50FA"/>
</linearGradient>
<linearGradient id="paint15_linear_478_4434" x1="21.6948" y1="45.6869" x2="20.4877" y2="51.7977" gradientUnits="userSpaceOnUse">
<stop stop-color="#B76AF3"/>
<stop offset="1" stop-color="#463ACA"/>
</linearGradient>
<linearGradient id="paint16_linear_478_4434" x1="17.703" y1="44.8515" x2="17.703" y2="51.2952" gradientUnits="userSpaceOnUse">
<stop stop-color="#2B237B"/>
<stop offset="1" stop-color="#392F9F"/>
</linearGradient>
<linearGradient id="paint17_linear_478_4434" x1="44.1443" y1="41.5278" x2="44.1443" y2="49.4289" gradientUnits="userSpaceOnUse">
<stop stop-color="#2B237B"/>
<stop offset="1" stop-color="#392F9F"/>
</linearGradient>
</defs>
</svg>
