<svg width="72" height="72" viewBox="0 0 72 72" fill="none" xmlns="http://www.w3.org/2000/svg">
<g clip-path="url(#clip0_367_4216)">
<path d="M18.7852 19.513C18.7852 19.0606 18.4295 18.6938 17.9907 18.6938H0.908308C0.469501 18.6938 0.113774 19.0606 0.113774 19.513L0.11377 72.3513C0.11377 72.8039 0.469496 73.1708 0.908302 73.1708H17.9907C18.4295 73.1708 18.7852 72.8039 18.7852 72.3513V19.513Z" fill="#FDECC2"/>
<path d="M18.7852 19.513C18.7852 19.0606 18.4295 18.6938 17.9907 18.6938H0.908308C0.469501 18.6938 0.113774 19.0606 0.113774 19.513L0.11377 72.3513C0.11377 72.8039 0.469496 73.1708 0.908302 73.1708H17.9907C18.4295 73.1708 18.7852 72.8039 18.7852 72.3513V19.513Z" fill="url(#paint0_linear_367_4216)"/>
<path d="M37.4567 38.3544C37.4567 37.902 37.081 37.5352 36.6175 37.5352H0.952938C0.48948 37.5352 0.113776 37.902 0.113776 38.3544L0.11377 72.351C0.11377 72.8036 0.48948 73.1705 0.952938 73.1705H36.6175C37.081 73.1705 37.4567 72.8036 37.4567 72.351V38.3544Z" fill="#FDECC2"/>
<path d="M37.4567 38.3544C37.4567 37.902 37.081 37.5352 36.6175 37.5352H0.952938C0.48948 37.5352 0.113776 37.902 0.113776 38.3544L0.11377 72.351C0.11377 72.8036 0.48948 73.1705 0.952938 73.1705H36.6175C37.081 73.1705 37.4567 72.8036 37.4567 72.351V38.3544Z" fill="url(#paint1_linear_367_4216)"/>
<path d="M54.5391 55.9672C54.5391 55.5147 54.1833 55.1479 53.7445 55.1479H0.908302C0.469498 55.1479 0.113771 55.5147 0.113771 55.9672L0.11377 72.351C0.11377 72.8036 0.469496 73.1704 0.908302 73.1704H53.7445C54.1833 73.1704 54.5391 72.8036 54.5391 72.351V55.9672Z" fill="#FDECC2"/>
<path d="M54.5391 55.9672C54.5391 55.5147 54.1833 55.1479 53.7445 55.1479H0.908302C0.469498 55.1479 0.113771 55.5147 0.113771 55.9672L0.11377 72.351C0.11377 72.8036 0.469496 73.1704 0.908302 73.1704H53.7445C54.1833 73.1704 54.5391 72.8036 54.5391 72.351V55.9672Z" fill="url(#paint2_linear_367_4216)"/>
<path d="M35.8343 53.8062C36.4306 53.4506 36.6354 52.6623 36.2916 52.0455C35.9479 51.4287 35.1858 51.2168 34.5894 51.5724L35.8343 53.8062Z" fill="white"/>
<path d="M18.5794 15.8767C15.693 29.505 10.8461 52.4288 9.48131 59.0213C9.26872 60.0482 9.90805 61.0074 10.9317 61.2352L31.9893 65.9209C33.0704 66.1615 34.1412 65.4777 34.3776 64.3957L43.8 21.282C44.0366 20.1994 43.3478 19.1307 42.2641 18.8991L20.9522 14.3438C19.8706 14.1126 18.8085 14.7947 18.5794 15.8767Z" fill="url(#paint3_linear_367_4216)" stroke="#191919"/>
<path d="M26.3458 14.0597C21.1973 27.004 12.5454 48.7786 10.086 55.0456C9.70289 56.0219 10.1709 57.0753 11.1413 57.4729L31.1039 65.6505C32.1288 66.0703 33.2997 65.5773 33.7157 64.5509L50.2898 23.6501C50.706 22.6231 50.2078 21.4534 49.1788 21.0419L28.9435 12.9498C27.9166 12.5392 26.7545 13.032 26.3458 14.0597Z" fill="url(#paint4_linear_367_4216)" stroke="#191919"/>
<path d="M35.1596 13.762C28.1723 25.8136 16.4271 46.0877 13.077 51.9273C12.5551 52.837 12.8639 53.9476 13.7658 54.4828L32.3167 65.4937C33.2691 66.059 34.4996 65.7427 35.0613 64.7882L57.4424 26.7532C58.0044 25.7981 57.6827 24.5682 56.7251 24.0105L37.8918 13.0443C36.936 12.4878 35.7143 12.8052 35.1596 13.762Z" fill="#99D14A"/>
<path d="M35.1596 13.762C28.1723 25.8136 16.4271 46.0877 13.077 51.9273C12.5551 52.837 12.8639 53.9476 13.7658 54.4828L32.3167 65.4937C33.2691 66.059 34.4996 65.7427 35.0613 64.7882L57.4424 26.7532C58.0044 25.7981 57.6827 24.5682 56.7251 24.0105L37.8918 13.0443C36.936 12.4878 35.7143 12.8052 35.1596 13.762Z" fill="url(#paint5_linear_367_4216)"/>
<path d="M35.1596 13.762C28.1723 25.8136 16.4271 46.0877 13.077 51.9273C12.5551 52.837 12.8639 53.9476 13.7658 54.4828L32.3167 65.4937C33.2691 66.059 34.4996 65.7427 35.0613 64.7882L57.4424 26.7532C58.0044 25.7981 57.6827 24.5682 56.7251 24.0105L37.8918 13.0443C36.936 12.4878 35.7143 12.8052 35.1596 13.762Z" stroke="#191919"/>
<path d="M14.6389 49.6378C15.7233 50.6521 17.5534 53.3007 16.1986 55.7809" stroke="#191919"/>
<path d="M36.303 62.2853C34.8887 61.8332 31.684 61.5271 30.1793 63.9193" stroke="#191919"/>
<path d="M34.0456 16.2923C35.4599 16.7444 38.6647 17.0506 40.1693 14.6583" stroke="#191919"/>
<path d="M55.8122 29.0702C54.7279 28.0559 52.8978 25.4073 54.2525 22.9271" stroke="#191919"/>
<path d="M39.9697 31.3204C46.0123 34.8665 48.4452 41.5532 45.7236 46.1907C43.0021 50.8282 35.9779 51.965 29.9354 48.4188C23.8928 44.8727 21.4599 38.186 24.1815 33.5485C26.903 28.911 33.9271 27.7743 39.9697 31.3204Z" stroke="#191919"/>
<path d="M30.1605 36.4768L31.7317 37.3989L31.2441 38.2298L29.6729 37.3077L30.1605 36.4768ZM38.7989 41.6824L40.2317 42.5232L39.7441 43.3541L38.3113 42.5133L38.7989 41.6824ZM37.3957 40.0712C37.1933 39.9524 36.9992 39.8886 36.8134 39.8799C36.6297 39.8675 36.4349 39.9107 36.229 40.0095C36.0251 40.1047 35.7915 40.2587 35.5281 40.4717C35.0796 40.8291 34.6528 41.1253 34.2477 41.3601C33.841 41.5893 33.4313 41.714 33.0184 41.7343C32.602 41.7525 32.163 41.6261 31.7013 41.3552C31.261 41.0968 30.9408 40.768 30.7406 40.3689C30.5404 39.9698 30.4617 39.5345 30.5044 39.0631C30.5457 38.5861 30.7111 38.1008 31.0008 37.6072C31.2217 37.2308 31.4786 36.9233 31.7714 36.6846C32.0607 36.4438 32.3782 36.2769 32.724 36.1839C33.0663 36.0887 33.4263 36.0732 33.8039 36.1374C34.1816 36.2015 34.5693 36.3502 34.967 36.5836L34.0699 38.1123C33.8569 37.9872 33.6551 37.8999 33.4647 37.8502C33.2743 37.8005 33.098 37.7877 32.9358 37.8119C32.7757 37.8325 32.6336 37.8876 32.5095 37.977C32.3818 38.0644 32.2753 38.1809 32.1898 38.3265C32.0627 38.5431 32.0011 38.7456 32.0051 38.9341C32.009 39.1226 32.0651 39.2916 32.1731 39.4409C32.2797 39.5846 32.4254 39.7107 32.61 39.819C32.7911 39.9253 32.9679 39.9861 33.1403 40.0014C33.3148 40.0131 33.5069 39.9706 33.7163 39.8739C33.9223 39.7752 34.1672 39.6182 34.4511 39.4029C34.8995 39.0455 35.3288 38.7532 35.739 38.5261C36.1492 38.299 36.5607 38.1753 36.9736 38.155C37.3865 38.1348 37.8237 38.2601 38.2853 38.531C38.7434 38.7998 39.0715 39.1355 39.2696 39.5382C39.4641 39.9388 39.5341 40.3809 39.4794 40.8644C39.4213 41.3458 39.2442 41.8387 38.9483 42.3429C38.7566 42.6696 38.5233 42.9695 38.2485 43.2426C37.9701 43.5136 37.6561 43.7232 37.3066 43.8714C36.9571 44.0195 36.575 44.0769 36.1602 44.0435C35.7418 44.008 35.2947 43.8507 34.8189 43.5714L35.7191 42.0375C35.9783 42.1896 36.2147 42.283 36.4283 42.3176C36.6383 42.3502 36.8271 42.3416 36.9947 42.292C37.1608 42.2367 37.3069 42.1505 37.4328 42.0335C37.5588 41.9165 37.6645 41.7852 37.7499 41.6396C37.8833 41.4123 37.9519 41.202 37.9556 41.0084C37.9615 40.8114 37.9153 40.6339 37.817 40.476C37.7173 40.3124 37.5768 40.1775 37.3957 40.0712Z" fill="#0FA88A"/>
<path d="M60.6967 1.33789C60.6967 6.99253 56.3784 11.5766 51.0513 11.5766C56.3784 11.5766 60.6967 16.1606 60.6967 21.8152C60.6967 16.1606 65.0152 11.5766 70.3423 11.5766C65.0152 11.5766 60.6967 6.99253 60.6967 1.33789Z" fill="#FFC13C"/>
<ellipse cx="35.1292" cy="39.7141" rx="4" ry="6.5" transform="rotate(-60 35.1292 39.7141)" fill="#24C3A3"/>
</g>
<defs>
<linearGradient id="paint0_linear_367_4216" x1="9.40243" y1="19.0414" x2="9.40243" y2="73.1468" gradientUnits="userSpaceOnUse">
<stop stop-color="#8378FB"/>
<stop offset="1" stop-color="#5E50FA"/>
</linearGradient>
<linearGradient id="paint1_linear_367_4216" x1="18.6911" y1="37.7625" x2="18.6911" y2="73.1548" gradientUnits="userSpaceOnUse">
<stop stop-color="#8378FB"/>
<stop offset="1" stop-color="#5E50FA"/>
</linearGradient>
<linearGradient id="paint2_linear_367_4216" x1="27.1893" y1="55.2629" x2="27.1893" y2="73.1625" gradientUnits="userSpaceOnUse">
<stop stop-color="#8378FB"/>
<stop offset="1" stop-color="#5E50FA"/>
</linearGradient>
<linearGradient id="paint3_linear_367_4216" x1="18.1881" y1="14.1887" x2="35.1561" y2="65.9614" gradientUnits="userSpaceOnUse">
<stop stop-color="#00B38F"/>
<stop offset="0.515411" stop-color="#7CEAD4"/>
<stop offset="1" stop-color="#00B38F"/>
</linearGradient>
<linearGradient id="paint4_linear_367_4216" x1="26.2454" y1="12.3298" x2="34.2183" y2="66.2256" gradientUnits="userSpaceOnUse">
<stop stop-color="#00B38F"/>
<stop offset="0.515411" stop-color="#7CEAD4"/>
<stop offset="1" stop-color="#00B38F"/>
</linearGradient>
<linearGradient id="paint5_linear_367_4216" x1="35.3134" y1="12.0361" x2="35.3134" y2="66.5184" gradientUnits="userSpaceOnUse">
<stop stop-color="#00B38F"/>
<stop offset="0.515411" stop-color="#7CEAD4"/>
<stop offset="1" stop-color="#00B38F"/>
</linearGradient>
<clipPath id="clip0_367_4216">
<rect width="72" height="72" fill="white"/>
</clipPath>
</defs>
</svg>
