<svg width="24" height="25" viewBox="0 0 24 25" fill="none" xmlns="http://www.w3.org/2000/svg">
<g clip-path="url(#clip0_785_250)">
<path d="M12 3.16088C15.2063 3.16088 15.5859 3.17494 16.8469 3.23119C18.0188 3.28275 18.6516 3.47963 19.0734 3.64369C19.6313 3.85931 20.0344 4.12181 20.4516 4.539C20.8734 4.96088 21.1313 5.35931 21.3469 5.91713C21.5109 6.339 21.7078 6.9765 21.7594 8.14369C21.8156 9.40931 21.8297 9.789 21.8297 12.9906C21.8297 16.1968 21.8156 16.5765 21.7594 17.8374C21.7078 19.0093 21.5109 19.6421 21.3469 20.064C21.1313 20.6218 20.8687 21.0249 20.4516 21.4421C20.0297 21.864 19.6313 22.1218 19.0734 22.3374C18.6516 22.5015 18.0141 22.6984 16.8469 22.7499C15.5813 22.8062 15.2016 22.8203 12 22.8203C8.79375 22.8203 8.41406 22.8062 7.15313 22.7499C5.98125 22.6984 5.34844 22.5015 4.92656 22.3374C4.36875 22.1218 3.96563 21.8593 3.54844 21.4421C3.12656 21.0203 2.86875 20.6218 2.65313 20.064C2.48906 19.6421 2.29219 19.0046 2.24063 17.8374C2.18438 16.5718 2.17031 16.1921 2.17031 12.9906C2.17031 9.78431 2.18438 9.40463 2.24063 8.14369C2.29219 6.97181 2.48906 6.339 2.65313 5.91713C2.86875 5.35931 3.13125 4.95619 3.54844 4.539C3.97031 4.11713 4.36875 3.85931 4.92656 3.64369C5.34844 3.47963 5.98594 3.28275 7.15313 3.23119C8.41406 3.17494 8.79375 3.16088 12 3.16088ZM12 0.999939C8.74219 0.999939 8.33438 1.014 7.05469 1.07025C5.77969 1.1265 4.90313 1.33275 4.14375 1.62806C3.35156 1.93744 2.68125 2.34525 2.01563 3.01556C1.34531 3.68119 0.9375 4.3515 0.628125 5.139C0.332812 5.90306 0.126563 6.77494 0.0703125 8.04994C0.0140625 9.33431 0 9.74213 0 12.9999C0 16.2578 0.0140625 16.6656 0.0703125 17.9453C0.126563 19.2203 0.332812 20.0968 0.628125 20.8562C0.9375 21.6484 1.34531 22.3187 2.01563 22.9843C2.68125 23.6499 3.35156 24.0624 4.13906 24.3671C4.90313 24.6624 5.775 24.8687 7.05 24.9249C8.32969 24.9812 8.7375 24.9953 11.9953 24.9953C15.2531 24.9953 15.6609 24.9812 16.9406 24.9249C18.2156 24.8687 19.0922 24.6624 19.8516 24.3671C20.6391 24.0624 21.3094 23.6499 21.975 22.9843C22.6406 22.3187 23.0531 21.6484 23.3578 20.8609C23.6531 20.0968 23.8594 19.2249 23.9156 17.9499C23.9719 16.6703 23.9859 16.2624 23.9859 13.0046C23.9859 9.74681 23.9719 9.339 23.9156 8.05931C23.8594 6.78431 23.6531 5.90775 23.3578 5.14838C23.0625 4.3515 22.6547 3.68119 21.9844 3.01556C21.3188 2.34994 20.6484 1.93744 19.8609 1.63275C19.0969 1.33744 18.225 1.13119 16.95 1.07494C15.6656 1.014 15.2578 0.999939 12 0.999939Z" fill="white"/>
<path d="M12 6.83588C8.59688 6.83588 5.83594 9.59681 5.83594 12.9999C5.83594 16.4031 8.59688 19.164 12 19.164C15.4031 19.164 18.1641 16.4031 18.1641 12.9999C18.1641 9.59681 15.4031 6.83588 12 6.83588ZM12 16.9984C9.79219 16.9984 8.00156 15.2078 8.00156 12.9999C8.00156 10.7921 9.79219 9.0015 12 9.0015C14.2078 9.0015 15.9984 10.7921 15.9984 12.9999C15.9984 15.2078 14.2078 16.9984 12 16.9984Z" fill="white"/>
<path d="M19.8469 6.5922C19.8469 7.38908 19.2 8.03127 18.4078 8.03127C17.6109 8.03127 16.9688 7.38439 16.9688 6.5922C16.9688 5.79533 17.6156 5.15314 18.4078 5.15314C19.2 5.15314 19.8469 5.80001 19.8469 6.5922Z" fill="white"/>
</g>
<defs>
<clipPath id="clip0_785_250">
<rect width="24" height="24" fill="white" transform="translate(0 0.962952)"/>
</clipPath>
</defs>
</svg>
